G04 #@! TF.GenerationSoftware,KiCad,Pcbnew,7.0.10*
G04 #@! TF.CreationDate,2024-02-13T01:05:36+00:00*
G04 #@! TF.ProjectId,WYSE_5070_Riser,57595345-5f35-4303-9730-5f5269736572,rev?*
G04 #@! TF.SameCoordinates,Original*
G04 #@! TF.FileFunction,Legend,Bot*
G04 #@! TF.FilePolarity,Positive*
%FSLAX46Y46*%
G04 Gerber Fmt 4.6, Leading zero omitted, Abs format (unit mm)*
G04 Created by KiCad (PCBNEW 7.0.10) date 2024-02-13 01:05:36*
%MOMM*%
%LPD*%
G01*
G04 APERTURE LIST*
G04 Aperture macros list*
%AMFreePoly0*
4,1,25,2.100000,0.900000,1.800000,0.900000,1.705665,0.897535,1.521119,0.858308,1.348761,0.781569,1.196124,0.670672,1.069880,0.530464,0.975545,0.367071,0.917243,0.187636,0.900000,0.023576,0.900000,-0.023576,0.917243,-0.187636,0.975545,-0.367071,1.069880,-0.530464,1.196124,-0.670672,1.348761,-0.781569,1.521119,-0.858308,1.705665,-0.897535,1.800000,-0.900000,2.100000,-0.900000,
2.100000,-2.500000,-0.900000,-2.500000,-0.900000,2.500000,2.100000,2.500000,2.100000,0.900000,2.100000,0.900000,$1*%
G04 Aperture macros list end*
%ADD10C,0.254000*%
%ADD11C,0.100000*%
%ADD12C,0.200000*%
%ADD13C,0.000000*%
%ADD14R,0.700000X3.200000*%
%ADD15R,0.700000X4.300000*%
%ADD16C,0.500000*%
%ADD17C,1.200000*%
%ADD18FreePoly0,180.000000*%
%ADD19R,0.700000X1.600000*%
%ADD20R,3.000000X5.000000*%
G04 APERTURE END LIST*
D10*
X105323332Y-50754318D02*
X105323332Y-51661461D01*
X105323332Y-51661461D02*
X105383809Y-51842889D01*
X105383809Y-51842889D02*
X105504761Y-51963842D01*
X105504761Y-51963842D02*
X105686190Y-52024318D01*
X105686190Y-52024318D02*
X105807142Y-52024318D01*
X104779047Y-50875270D02*
X104718571Y-50814794D01*
X104718571Y-50814794D02*
X104597618Y-50754318D01*
X104597618Y-50754318D02*
X104295237Y-50754318D01*
X104295237Y-50754318D02*
X104174285Y-50814794D01*
X104174285Y-50814794D02*
X104113809Y-50875270D01*
X104113809Y-50875270D02*
X104053332Y-50996222D01*
X104053332Y-50996222D02*
X104053332Y-51117175D01*
X104053332Y-51117175D02*
X104113809Y-51298603D01*
X104113809Y-51298603D02*
X104839523Y-52024318D01*
X104839523Y-52024318D02*
X104053332Y-52024318D01*
D11*
X107700000Y-56550000D02*
G75*
G03*
X105500000Y-56550000I-1100000J0D01*
G01*
X124400000Y-54750000D02*
X124400000Y-54750000D01*
X124400000Y-54750000D02*
X124400000Y-54750000D01*
X124400000Y-54750000D02*
X124400000Y-54000000D01*
X124400000Y-54750000D02*
X122400000Y-54750000D01*
X124400000Y-54000000D02*
X124400000Y-54750000D01*
X124400000Y-54000000D02*
X124400000Y-54000000D01*
X124400000Y-48000000D02*
X124400000Y-48000000D01*
X124400000Y-48000000D02*
X124400000Y-47250000D01*
X124400000Y-47250000D02*
X124400000Y-48000000D01*
X124400000Y-47250000D02*
X124400000Y-47250000D01*
X124400000Y-47250000D02*
X124400000Y-47250000D01*
X124400000Y-47250000D02*
X122400000Y-47250000D01*
X122400000Y-54750000D02*
X124400000Y-54750000D01*
X122400000Y-54750000D02*
X122400000Y-54750000D01*
X122400000Y-47250000D02*
X124400000Y-47250000D01*
X122400000Y-47250000D02*
X122400000Y-47250000D01*
X100400000Y-54750000D02*
X100400000Y-54750000D01*
X100400000Y-54750000D02*
X99400000Y-54750000D01*
X99400000Y-54750000D02*
X100400000Y-54750000D01*
X99400000Y-54750000D02*
X99400000Y-54750000D01*
X87400000Y-54750000D02*
X87400000Y-54750000D01*
X87400000Y-54750000D02*
X85400000Y-54750000D01*
X87400000Y-47250000D02*
X87400000Y-47250000D01*
X87400000Y-47250000D02*
X85400000Y-47250000D01*
X85400000Y-54750000D02*
X87400000Y-54750000D01*
X85400000Y-54750000D02*
X85400000Y-54750000D01*
X85400000Y-54750000D02*
X85400000Y-54750000D01*
X85400000Y-54750000D02*
X85400000Y-54000000D01*
X85400000Y-54000000D02*
X85400000Y-54750000D01*
X85400000Y-54000000D02*
X85400000Y-54000000D01*
X85400000Y-48000000D02*
X85400000Y-48000000D01*
X85400000Y-48000000D02*
X85400000Y-47250000D01*
X85400000Y-47250000D02*
X87400000Y-47250000D01*
X85400000Y-47250000D02*
X85400000Y-48000000D01*
X85400000Y-47250000D02*
X85400000Y-47250000D01*
X85400000Y-47250000D02*
X85400000Y-47250000D01*
D12*
X88500000Y-55800000D02*
G75*
G03*
X88300000Y-55800000I-100000J0D01*
G01*
X88300000Y-55800000D02*
G75*
G03*
X88500000Y-55800000I100000J0D01*
G01*
%LPC*%
D13*
G36*
X128850000Y-63450000D02*
G01*
X94450000Y-63450000D01*
X94450000Y-57800000D01*
X128850000Y-57800000D01*
X128850000Y-63450000D01*
G37*
D14*
X95100000Y-59400000D03*
D15*
X96100000Y-59950000D03*
X97100000Y-59950000D03*
X98100000Y-59950000D03*
X99100000Y-59950000D03*
X100100000Y-59950000D03*
X101100000Y-59950000D03*
X102100000Y-59950000D03*
X103100000Y-59950000D03*
X104100000Y-59950000D03*
X105100000Y-59950000D03*
X108100000Y-59950000D03*
X109100000Y-59950000D03*
X110100000Y-59950000D03*
X111100000Y-59950000D03*
X112100000Y-59950000D03*
X113100000Y-59950000D03*
X114100000Y-59950000D03*
X115100000Y-59950000D03*
X116100000Y-59950000D03*
X117100000Y-59950000D03*
X118100000Y-59950000D03*
X119100000Y-59950000D03*
X120100000Y-59950000D03*
X121100000Y-59950000D03*
X122100000Y-59950000D03*
X123100000Y-59950000D03*
X124100000Y-59950000D03*
X125100000Y-59950000D03*
X126100000Y-59950000D03*
X127100000Y-59950000D03*
X128100000Y-59950000D03*
D16*
X103700000Y-42850000D03*
X103700000Y-44350000D03*
X104450000Y-42850000D03*
X104450000Y-44350000D03*
X105200000Y-42850000D03*
X105200000Y-44350000D03*
X123700000Y-42850000D03*
X123700000Y-44350000D03*
X124450000Y-42850000D03*
X124450000Y-44350000D03*
X125200000Y-42850000D03*
X125200000Y-44350000D03*
X83700000Y-42850000D03*
X83700000Y-44350000D03*
X84450000Y-42850000D03*
X84450000Y-44350000D03*
X85200000Y-42850000D03*
X85200000Y-44350000D03*
D17*
X140200000Y-51000000D03*
D18*
X142000000Y-51000000D03*
D17*
X123200000Y-51000000D03*
X100050000Y-51000000D03*
D19*
X88400000Y-54400000D03*
X89400000Y-54400000D03*
X90400000Y-54400000D03*
X91400000Y-54400000D03*
X92400000Y-54400000D03*
X93400000Y-54400000D03*
X94400000Y-54400000D03*
X95400000Y-54400000D03*
X96400000Y-54400000D03*
X97400000Y-54400000D03*
X98400000Y-54400000D03*
X101400000Y-54400000D03*
X102400000Y-54400000D03*
X103400000Y-54400000D03*
X104400000Y-54400000D03*
X105400000Y-54400000D03*
X106400000Y-54400000D03*
X107400000Y-54400000D03*
X108400000Y-54400000D03*
X109400000Y-54400000D03*
X110400000Y-54400000D03*
X111400000Y-54400000D03*
X112400000Y-54400000D03*
X113400000Y-54400000D03*
X114400000Y-54400000D03*
X115400000Y-54400000D03*
X116400000Y-54400000D03*
X117400000Y-54400000D03*
X118400000Y-54400000D03*
X119400000Y-54400000D03*
X120400000Y-54400000D03*
X121400000Y-54400000D03*
X88400000Y-47600000D03*
X89400000Y-47600000D03*
X90400000Y-47600000D03*
X91400000Y-47600000D03*
X92400000Y-47600000D03*
X93400000Y-47600000D03*
X94400000Y-47600000D03*
X95400000Y-47600000D03*
X96400000Y-47600000D03*
X97400000Y-47600000D03*
X98400000Y-47600000D03*
X101400000Y-47600000D03*
X102400000Y-47600000D03*
X103400000Y-47600000D03*
X104400000Y-47600000D03*
X105400000Y-47600000D03*
X106400000Y-47600000D03*
X107400000Y-47600000D03*
X108400000Y-47600000D03*
X109400000Y-47600000D03*
X110400000Y-47600000D03*
X111400000Y-47600000D03*
X112400000Y-47600000D03*
X113400000Y-47600000D03*
X114400000Y-47600000D03*
X115400000Y-47600000D03*
X116400000Y-47600000D03*
X117400000Y-47600000D03*
X118400000Y-47600000D03*
X119400000Y-47600000D03*
X120400000Y-47600000D03*
X121400000Y-47600000D03*
D20*
X85400000Y-51000000D03*
D18*
X125000000Y-51000000D03*
%LPD*%
M02*
