G04 #@! TF.GenerationSoftware,KiCad,Pcbnew,7.0.10*
G04 #@! TF.CreationDate,2024-02-13T01:05:36+00:00*
G04 #@! TF.ProjectId,WYSE_5070_Riser,57595345-5f35-4303-9730-5f5269736572,rev?*
G04 #@! TF.SameCoordinates,Original*
G04 #@! TF.FileFunction,Soldermask,Top*
G04 #@! TF.FilePolarity,Negative*
%FSLAX46Y46*%
G04 Gerber Fmt 4.6, Leading zero omitted, Abs format (unit mm)*
G04 Created by KiCad (PCBNEW 7.0.10) date 2024-02-13 01:05:36*
%MOMM*%
%LPD*%
G01*
G04 APERTURE LIST*
G04 Aperture macros list*
%AMRoundRect*
0 Rectangle with rounded corners*
0 $1 Rounding radius*
0 $2 $3 $4 $5 $6 $7 $8 $9 X,Y pos of 4 corners*
0 Add a 4 corners polygon primitive as box body*
4,1,4,$2,$3,$4,$5,$6,$7,$8,$9,$2,$3,0*
0 Add four circle primitives for the rounded corners*
1,1,$1+$1,$2,$3*
1,1,$1+$1,$4,$5*
1,1,$1+$1,$6,$7*
1,1,$1+$1,$8,$9*
0 Add four rect primitives between the rounded corners*
20,1,$1+$1,$2,$3,$4,$5,0*
20,1,$1+$1,$4,$5,$6,$7,0*
20,1,$1+$1,$6,$7,$8,$9,0*
20,1,$1+$1,$8,$9,$2,$3,0*%
G04 Aperture macros list end*
%ADD10C,0.000000*%
%ADD11RoundRect,0.140000X-0.219203X-0.021213X-0.021213X-0.219203X0.219203X0.021213X0.021213X0.219203X0*%
%ADD12RoundRect,0.140000X-0.170000X0.140000X-0.170000X-0.140000X0.170000X-0.140000X0.170000X0.140000X0*%
%ADD13RoundRect,0.250000X0.325000X0.650000X-0.325000X0.650000X-0.325000X-0.650000X0.325000X-0.650000X0*%
%ADD14R,0.700000X4.300000*%
%ADD15R,0.700000X3.200000*%
%ADD16RoundRect,0.250000X-0.475000X0.250000X-0.475000X-0.250000X0.475000X-0.250000X0.475000X0.250000X0*%
%ADD17RoundRect,0.140000X0.140000X0.170000X-0.140000X0.170000X-0.140000X-0.170000X0.140000X-0.170000X0*%
%ADD18RoundRect,0.250000X-0.250000X-0.475000X0.250000X-0.475000X0.250000X0.475000X-0.250000X0.475000X0*%
%ADD19C,0.500000*%
%ADD20RoundRect,0.135000X-0.185000X0.135000X-0.185000X-0.135000X0.185000X-0.135000X0.185000X0.135000X0*%
%ADD21RoundRect,0.135000X0.185000X-0.135000X0.185000X0.135000X-0.185000X0.135000X-0.185000X-0.135000X0*%
%ADD22R,3.550000X3.500000*%
%ADD23R,0.558800X1.422400*%
%ADD24R,3.352800X2.717800*%
%ADD25C,1.200000*%
G04 APERTURE END LIST*
D10*
G36*
X128800000Y-63450000D02*
G01*
X94400000Y-63450000D01*
X94400000Y-57800000D01*
X128800000Y-57800000D01*
X128800000Y-63450000D01*
G37*
D11*
X109714142Y-49807036D03*
X110392964Y-50485858D03*
D12*
X79925000Y-49625000D03*
X79925000Y-50585000D03*
D13*
X79875000Y-60850000D03*
X76925000Y-60850000D03*
D14*
X95100000Y-59950000D03*
X96100000Y-59950000D03*
X97100000Y-59950000D03*
X98100000Y-59950000D03*
X99100000Y-59950000D03*
X100100000Y-59950000D03*
X101100000Y-59950000D03*
X102100000Y-59950000D03*
X103100000Y-59950000D03*
X104100000Y-59950000D03*
X105100000Y-59950000D03*
X108100000Y-59950000D03*
X109100000Y-59950000D03*
X110100000Y-59950000D03*
X111100000Y-59950000D03*
X112100000Y-59950000D03*
X113100000Y-59950000D03*
X114100000Y-59950000D03*
X115100000Y-59950000D03*
X116100000Y-59950000D03*
X117100000Y-59950000D03*
X118100000Y-59950000D03*
X119100000Y-59950000D03*
X120100000Y-59950000D03*
X121100000Y-59950000D03*
X122100000Y-59950000D03*
X123100000Y-59950000D03*
X124100000Y-59950000D03*
X125100000Y-59950000D03*
X126100000Y-59950000D03*
D15*
X127100000Y-59400000D03*
D14*
X128100000Y-59950000D03*
D16*
X67700000Y-56600000D03*
X67700000Y-58500000D03*
X69700000Y-56600000D03*
X69700000Y-58500000D03*
D17*
X77530000Y-59200000D03*
X76570000Y-59200000D03*
D11*
X113714142Y-49807036D03*
X114392964Y-50485858D03*
D18*
X73450000Y-56800000D03*
X75350000Y-56800000D03*
D19*
X103700000Y-42850000D03*
X103700000Y-44350000D03*
X104450000Y-42850000D03*
X104450000Y-44350000D03*
X105200000Y-42850000D03*
X105200000Y-44350000D03*
D17*
X80980000Y-51650000D03*
X80020000Y-51650000D03*
D16*
X71700000Y-56600000D03*
X71700000Y-58500000D03*
D20*
X83900000Y-53790000D03*
X83900000Y-54810000D03*
X83900000Y-51790000D03*
X83900000Y-52810000D03*
D11*
X117007036Y-50514142D03*
X117685858Y-51192964D03*
D21*
X81075000Y-50610000D03*
X81075000Y-49590000D03*
D11*
X113007036Y-50514142D03*
X113685858Y-51192964D03*
X109007036Y-50514142D03*
X109685858Y-51192964D03*
D21*
X83900000Y-58710000D03*
X83900000Y-57690000D03*
D12*
X82400000Y-50770000D03*
X82400000Y-51730000D03*
D22*
X76375000Y-50300000D03*
X67425000Y-50300000D03*
D19*
X123700000Y-42850000D03*
X123700000Y-44350000D03*
X124450000Y-42850000D03*
X124450000Y-44350000D03*
X125200000Y-42850000D03*
X125200000Y-44350000D03*
D11*
X104714142Y-49807036D03*
X105392964Y-50485858D03*
X104007036Y-50514142D03*
X104685858Y-51192964D03*
D19*
X83700000Y-42850000D03*
X83700000Y-44350000D03*
X84450000Y-42850000D03*
X84450000Y-44350000D03*
X85200000Y-42850000D03*
X85200000Y-44350000D03*
D11*
X117714142Y-49807036D03*
X118392964Y-50485858D03*
D23*
X78595000Y-58692400D03*
X79865000Y-58692400D03*
X81135000Y-58692400D03*
X82405000Y-58692400D03*
X82405000Y-53307600D03*
X81135000Y-53307600D03*
X79865000Y-53307600D03*
X78595000Y-53307600D03*
D24*
X80500000Y-56000000D03*
D25*
X140200000Y-51000000D03*
X123200000Y-51000000D03*
X100050000Y-51000000D03*
M02*
