%TF.GenerationSoftware,KiCad,Pcbnew,7.0.10*%
%TF.CreationDate,2024-02-13T00:03:24+00:00*%
%TF.ProjectId,WYSE_5070_Riser,57595345-5f35-4303-9730-5f5269736572,rev?*%
%TF.SameCoordinates,Original*%
%TF.FileFunction,Drillmap*%
%TF.FilePolarity,Positive*%
%FSLAX45Y45*%
G04 Gerber Fmt 4.5, Leading zero omitted, Abs format (unit mm)*
G04 Created by KiCad (PCBNEW 7.0.10) date 2024-02-13 00:03:24*
%MOMM*%
%LPD*%
G01*
G04 APERTURE LIST*
%ADD10C,0.100000*%
%ADD11C,0.200000*%
G04 APERTURE END LIST*
D10*
X14445000Y-4500000D02*
G75*
G03*
X14405000Y-4460000I-40000J0D01*
G01*
X14445000Y-4500000D02*
X14445000Y-5520000D01*
X6485000Y-4260000D02*
X8245000Y-4260000D01*
X6445000Y-6200000D02*
X6445000Y-4500000D01*
X12245000Y-4460000D02*
G75*
G03*
X12245000Y-4260000I0J100000D01*
G01*
X10645000Y-4460000D02*
X12245000Y-4460000D01*
X9145000Y-5560000D02*
X9145000Y-6200000D01*
X10645000Y-4260000D02*
X12245000Y-4260000D01*
X14405000Y-5560000D02*
G75*
G03*
X14445000Y-5520000I0J40000D01*
G01*
X12645000Y-4260000D02*
G75*
G03*
X12645000Y-4460000I0J-100000D01*
G01*
X12645000Y-4260000D02*
X14405000Y-4260000D01*
X14445000Y-1370000D02*
G75*
G03*
X14405000Y-1330000I-40000J0D01*
G01*
X6445000Y-6200000D02*
G75*
G03*
X6485000Y-6240000I40000J0D01*
G01*
X8245000Y-4460000D02*
G75*
G03*
X8245000Y-4260000I0J100000D01*
G01*
X6485000Y-1330000D02*
G75*
G03*
X6445000Y-1370000I0J-40000D01*
G01*
X14445000Y-4220000D02*
X14445000Y-1370000D01*
X6445000Y-4220000D02*
X6445000Y-1370000D01*
X8645000Y-4260000D02*
X10245000Y-4260000D01*
X12875000Y-5560000D02*
X14405000Y-5560000D01*
X12645000Y-4460000D02*
X14405000Y-4460000D01*
X14405000Y-4260000D02*
G75*
G03*
X14445000Y-4220000I0J40000D01*
G01*
X10245000Y-4460000D02*
G75*
G03*
X10245000Y-4260000I0J100000D01*
G01*
X8645000Y-4260000D02*
G75*
G03*
X8645000Y-4460000I0J-100000D01*
G01*
X6485000Y-4460000D02*
G75*
G03*
X6445000Y-4500000I0J-40000D01*
G01*
X9105000Y-6240000D02*
G75*
G03*
X9145000Y-6200000I0J40000D01*
G01*
X9445000Y-5560000D02*
X9145000Y-5560000D01*
X10645000Y-4260000D02*
G75*
G03*
X10645000Y-4460000I0J-100000D01*
G01*
X6485000Y-4460000D02*
X8245000Y-4460000D01*
X8645000Y-4460000D02*
X10245000Y-4460000D01*
X6445000Y-4220000D02*
G75*
G03*
X6485000Y-4260000I40000J0D01*
G01*
X9105000Y-6240000D02*
X6485000Y-6240000D01*
X14405000Y-1330000D02*
X6485000Y-1330000D01*
X9445000Y-5560000D02*
X9445000Y-6290000D01*
X9445000Y-6290000D02*
X9495000Y-6340000D01*
X9495000Y-6340000D02*
X10515000Y-6340000D01*
X10565000Y-5655000D02*
X10565000Y-6290000D01*
X10565000Y-6290000D02*
X10515000Y-6340000D01*
X10755000Y-5655000D02*
X10755000Y-6290000D01*
X10755000Y-6290000D02*
X10805000Y-6340000D01*
X10805000Y-6340000D02*
X12825000Y-6340000D01*
X12875000Y-5560000D02*
X12875000Y-6290000D01*
X12875000Y-6290000D02*
X12825000Y-6340000D01*
X10755000Y-5655000D02*
G75*
G03*
X10565000Y-5655000I-95000J0D01*
G01*
D11*
D10*
X6685000Y-4715000D02*
X6715000Y-4745000D01*
X6715000Y-4715000D02*
X6685000Y-4745000D01*
X6685000Y-5315000D02*
X6715000Y-5345000D01*
X6715000Y-5315000D02*
X6685000Y-5345000D01*
X6685000Y-5465000D02*
X6715000Y-5495000D01*
X6715000Y-5465000D02*
X6685000Y-5495000D01*
X6685000Y-5945000D02*
X6715000Y-5975000D01*
X6715000Y-5945000D02*
X6685000Y-5975000D01*
X6685000Y-6095000D02*
X6715000Y-6125000D01*
X6715000Y-6095000D02*
X6685000Y-6125000D01*
X6835000Y-4565000D02*
X6865000Y-4595000D01*
X6865000Y-4565000D02*
X6835000Y-4595000D01*
X6835000Y-4715000D02*
X6865000Y-4745000D01*
X6865000Y-4715000D02*
X6835000Y-4745000D01*
X6835000Y-5315000D02*
X6865000Y-5345000D01*
X6865000Y-5315000D02*
X6835000Y-5345000D01*
X6835000Y-5465000D02*
X6865000Y-5495000D01*
X6865000Y-5465000D02*
X6835000Y-5495000D01*
X6835000Y-5945000D02*
X6865000Y-5975000D01*
X6865000Y-5945000D02*
X6835000Y-5975000D01*
X6835000Y-6095000D02*
X6865000Y-6125000D01*
X6865000Y-6095000D02*
X6835000Y-6125000D01*
X6985000Y-4565000D02*
X7015000Y-4595000D01*
X7015000Y-4565000D02*
X6985000Y-4595000D01*
X6985000Y-4715000D02*
X7015000Y-4745000D01*
X7015000Y-4715000D02*
X6985000Y-4745000D01*
X6985000Y-4865000D02*
X7015000Y-4895000D01*
X7015000Y-4865000D02*
X6985000Y-4895000D01*
X6985000Y-5015000D02*
X7015000Y-5045000D01*
X7015000Y-5015000D02*
X6985000Y-5045000D01*
X6985000Y-5165000D02*
X7015000Y-5195000D01*
X7015000Y-5165000D02*
X6985000Y-5195000D01*
X6985000Y-5315000D02*
X7015000Y-5345000D01*
X7015000Y-5315000D02*
X6985000Y-5345000D01*
X6985000Y-5465000D02*
X7015000Y-5495000D01*
X7015000Y-5465000D02*
X6985000Y-5495000D01*
X6985000Y-5945000D02*
X7015000Y-5975000D01*
X7015000Y-5945000D02*
X6985000Y-5975000D01*
X6985000Y-6095000D02*
X7015000Y-6125000D01*
X7015000Y-6095000D02*
X6985000Y-6125000D01*
X7135000Y-4865000D02*
X7165000Y-4895000D01*
X7165000Y-4865000D02*
X7135000Y-4895000D01*
X7135000Y-5015000D02*
X7165000Y-5045000D01*
X7165000Y-5015000D02*
X7135000Y-5045000D01*
X7135000Y-5165000D02*
X7165000Y-5195000D01*
X7165000Y-5165000D02*
X7135000Y-5195000D01*
X7135000Y-5315000D02*
X7165000Y-5345000D01*
X7165000Y-5315000D02*
X7135000Y-5345000D01*
X7135000Y-5465000D02*
X7165000Y-5495000D01*
X7165000Y-5465000D02*
X7135000Y-5495000D01*
X7135000Y-5945000D02*
X7165000Y-5975000D01*
X7165000Y-5945000D02*
X7135000Y-5975000D01*
X7135000Y-6095000D02*
X7165000Y-6125000D01*
X7165000Y-6095000D02*
X7135000Y-6125000D01*
X7285000Y-5165000D02*
X7315000Y-5195000D01*
X7315000Y-5165000D02*
X7285000Y-5195000D01*
X7285000Y-5315000D02*
X7315000Y-5345000D01*
X7315000Y-5315000D02*
X7285000Y-5345000D01*
X7285000Y-5465000D02*
X7315000Y-5495000D01*
X7315000Y-5465000D02*
X7285000Y-5495000D01*
X7285000Y-5795000D02*
X7315000Y-5825000D01*
X7315000Y-5795000D02*
X7285000Y-5825000D01*
X7285000Y-5945000D02*
X7315000Y-5975000D01*
X7315000Y-5945000D02*
X7285000Y-5975000D01*
X7285000Y-6095000D02*
X7315000Y-6125000D01*
X7315000Y-6095000D02*
X7285000Y-6125000D01*
X7435000Y-5795000D02*
X7465000Y-5825000D01*
X7465000Y-5795000D02*
X7435000Y-5825000D01*
X7435000Y-5945000D02*
X7465000Y-5975000D01*
X7465000Y-5945000D02*
X7435000Y-5975000D01*
X7435000Y-6095000D02*
X7465000Y-6125000D01*
X7465000Y-6095000D02*
X7435000Y-6125000D01*
X7485000Y-5485000D02*
X7515000Y-5515000D01*
X7515000Y-5485000D02*
X7485000Y-5515000D01*
X7585000Y-5485000D02*
X7615000Y-5515000D01*
X7615000Y-5485000D02*
X7585000Y-5515000D01*
X7585000Y-5795000D02*
X7615000Y-5825000D01*
X7615000Y-5795000D02*
X7585000Y-5825000D01*
X7585000Y-6095000D02*
X7615000Y-6125000D01*
X7615000Y-6095000D02*
X7585000Y-6125000D01*
X7685000Y-5485000D02*
X7715000Y-5515000D01*
X7715000Y-5485000D02*
X7685000Y-5515000D01*
X7685000Y-5585000D02*
X7715000Y-5615000D01*
X7715000Y-5585000D02*
X7685000Y-5615000D01*
X7685000Y-5685000D02*
X7715000Y-5715000D01*
X7715000Y-5685000D02*
X7685000Y-5715000D01*
X7740000Y-5825000D02*
X7770000Y-5855000D01*
X7770000Y-5825000D02*
X7740000Y-5855000D01*
X7760000Y-5315000D02*
X7790000Y-5345000D01*
X7790000Y-5315000D02*
X7760000Y-5345000D01*
X7835000Y-5485000D02*
X7865000Y-5515000D01*
X7865000Y-5485000D02*
X7835000Y-5515000D01*
X7835000Y-5585000D02*
X7865000Y-5615000D01*
X7865000Y-5585000D02*
X7835000Y-5615000D01*
X7835000Y-5685000D02*
X7865000Y-5715000D01*
X7865000Y-5685000D02*
X7835000Y-5715000D01*
X7885000Y-6010000D02*
X7915000Y-6040000D01*
X7915000Y-6010000D02*
X7885000Y-6040000D01*
X7885000Y-6135000D02*
X7915000Y-6165000D01*
X7915000Y-6135000D02*
X7885000Y-6165000D01*
X7935000Y-5485000D02*
X7965000Y-5515000D01*
X7965000Y-5485000D02*
X7935000Y-5515000D01*
X7935000Y-5585000D02*
X7965000Y-5615000D01*
X7965000Y-5585000D02*
X7935000Y-5615000D01*
X7935000Y-5685000D02*
X7965000Y-5715000D01*
X7965000Y-5685000D02*
X7935000Y-5715000D01*
X8035000Y-5485000D02*
X8065000Y-5515000D01*
X8065000Y-5485000D02*
X8035000Y-5515000D01*
X8035000Y-5585000D02*
X8065000Y-5615000D01*
X8065000Y-5585000D02*
X8035000Y-5615000D01*
X8035000Y-5685000D02*
X8065000Y-5715000D01*
X8065000Y-5685000D02*
X8035000Y-5715000D01*
X8085000Y-6010000D02*
X8115000Y-6040000D01*
X8115000Y-6010000D02*
X8085000Y-6040000D01*
X8085000Y-6135000D02*
X8115000Y-6165000D01*
X8115000Y-6135000D02*
X8085000Y-6165000D01*
X8135000Y-5485000D02*
X8165000Y-5515000D01*
X8165000Y-5485000D02*
X8135000Y-5515000D01*
X8135000Y-5585000D02*
X8165000Y-5615000D01*
X8165000Y-5585000D02*
X8135000Y-5615000D01*
X8135000Y-5685000D02*
X8165000Y-5715000D01*
X8165000Y-5685000D02*
X8135000Y-5715000D01*
X8185000Y-6010000D02*
X8215000Y-6040000D01*
X8215000Y-6010000D02*
X8185000Y-6040000D01*
X8185000Y-6135000D02*
X8215000Y-6165000D01*
X8215000Y-6135000D02*
X8185000Y-6165000D01*
X8235000Y-5485000D02*
X8265000Y-5515000D01*
X8265000Y-5485000D02*
X8235000Y-5515000D01*
X8235000Y-5585000D02*
X8265000Y-5615000D01*
X8265000Y-5585000D02*
X8235000Y-5615000D01*
X8235000Y-5685000D02*
X8265000Y-5715000D01*
X8265000Y-5685000D02*
X8235000Y-5715000D01*
X8285000Y-6010000D02*
X8315000Y-6040000D01*
X8315000Y-6010000D02*
X8285000Y-6040000D01*
X8285000Y-6135000D02*
X8315000Y-6165000D01*
X8315000Y-6135000D02*
X8285000Y-6165000D01*
X8310000Y-5065000D02*
X8340000Y-5095000D01*
X8340000Y-5065000D02*
X8310000Y-5095000D01*
X8335000Y-5585000D02*
X8365000Y-5615000D01*
X8365000Y-5585000D02*
X8335000Y-5615000D01*
X8335000Y-5685000D02*
X8365000Y-5715000D01*
X8365000Y-5685000D02*
X8335000Y-5715000D01*
X8385000Y-6135000D02*
X8415000Y-6165000D01*
X8415000Y-6135000D02*
X8385000Y-6165000D01*
X8435000Y-5685000D02*
X8465000Y-5715000D01*
X8465000Y-5685000D02*
X8435000Y-5715000D01*
X8585000Y-5685000D02*
X8615000Y-5715000D01*
X8615000Y-5685000D02*
X8585000Y-5715000D01*
X8585000Y-5835000D02*
X8615000Y-5865000D01*
X8615000Y-5835000D02*
X8585000Y-5865000D01*
X8725000Y-4595000D02*
X8755000Y-4625000D01*
X8755000Y-4595000D02*
X8725000Y-4625000D01*
X8725000Y-4745000D02*
X8755000Y-4775000D01*
X8755000Y-4745000D02*
X8725000Y-4775000D01*
X8725000Y-4895000D02*
X8755000Y-4925000D01*
X8755000Y-4895000D02*
X8725000Y-4925000D01*
X8725000Y-5045000D02*
X8755000Y-5075000D01*
X8755000Y-5045000D02*
X8725000Y-5075000D01*
X8735000Y-5685000D02*
X8765000Y-5715000D01*
X8765000Y-5685000D02*
X8735000Y-5715000D01*
X8735000Y-5835000D02*
X8765000Y-5865000D01*
X8765000Y-5835000D02*
X8735000Y-5865000D01*
X8735000Y-5985000D02*
X8765000Y-6015000D01*
X8765000Y-5985000D02*
X8735000Y-6015000D01*
X8825000Y-4595000D02*
X8855000Y-4625000D01*
X8855000Y-4595000D02*
X8825000Y-4625000D01*
X8825000Y-4745000D02*
X8855000Y-4775000D01*
X8855000Y-4745000D02*
X8825000Y-4775000D01*
X8825000Y-4895000D02*
X8855000Y-4925000D01*
X8855000Y-4895000D02*
X8825000Y-4925000D01*
X8825000Y-5045000D02*
X8855000Y-5075000D01*
X8855000Y-5045000D02*
X8825000Y-5075000D01*
X8885000Y-5685000D02*
X8915000Y-5715000D01*
X8915000Y-5685000D02*
X8885000Y-5715000D01*
X8885000Y-5835000D02*
X8915000Y-5865000D01*
X8915000Y-5835000D02*
X8885000Y-5865000D01*
X8885000Y-5985000D02*
X8915000Y-6015000D01*
X8915000Y-5985000D02*
X8885000Y-6015000D01*
X8885000Y-6135000D02*
X8915000Y-6165000D01*
X8915000Y-6135000D02*
X8885000Y-6165000D01*
X8925000Y-4595000D02*
X8955000Y-4625000D01*
X8955000Y-4595000D02*
X8925000Y-4625000D01*
X8925000Y-4745000D02*
X8955000Y-4775000D01*
X8955000Y-4745000D02*
X8925000Y-4775000D01*
X8925000Y-4895000D02*
X8955000Y-4925000D01*
X8955000Y-4895000D02*
X8925000Y-4925000D01*
X8925000Y-5045000D02*
X8955000Y-5075000D01*
X8955000Y-5045000D02*
X8925000Y-5075000D01*
X9025000Y-4595000D02*
X9055000Y-4625000D01*
X9055000Y-4595000D02*
X9025000Y-4625000D01*
X9025000Y-4745000D02*
X9055000Y-4775000D01*
X9055000Y-4745000D02*
X9025000Y-4775000D01*
X9025000Y-4895000D02*
X9055000Y-4925000D01*
X9055000Y-4895000D02*
X9025000Y-4925000D01*
X9025000Y-5045000D02*
X9055000Y-5075000D01*
X9055000Y-5045000D02*
X9025000Y-5075000D01*
X9035000Y-5685000D02*
X9065000Y-5715000D01*
X9065000Y-5685000D02*
X9035000Y-5715000D01*
X9035000Y-5835000D02*
X9065000Y-5865000D01*
X9065000Y-5835000D02*
X9035000Y-5865000D01*
X9035000Y-5985000D02*
X9065000Y-6015000D01*
X9065000Y-5985000D02*
X9035000Y-6015000D01*
X9125000Y-4745000D02*
X9155000Y-4775000D01*
X9155000Y-4745000D02*
X9125000Y-4775000D01*
X9125000Y-4895000D02*
X9155000Y-4925000D01*
X9155000Y-4895000D02*
X9125000Y-4925000D01*
X9125000Y-5425000D02*
X9155000Y-5455000D01*
X9155000Y-5425000D02*
X9125000Y-5455000D01*
X9225000Y-4745000D02*
X9255000Y-4775000D01*
X9255000Y-4745000D02*
X9225000Y-4775000D01*
X9325000Y-4745000D02*
X9355000Y-4775000D01*
X9355000Y-4745000D02*
X9325000Y-4775000D01*
X9425000Y-4745000D02*
X9455000Y-4775000D01*
X9455000Y-4745000D02*
X9425000Y-4775000D01*
X9495000Y-5620000D02*
X9525000Y-5650000D01*
X9525000Y-5620000D02*
X9495000Y-5650000D01*
X9595000Y-5645000D02*
X9625000Y-5675000D01*
X9625000Y-5645000D02*
X9595000Y-5675000D01*
X9595000Y-5715000D02*
X9625000Y-5745000D01*
X9625000Y-5715000D02*
X9595000Y-5745000D01*
X9695000Y-5645000D02*
X9725000Y-5675000D01*
X9725000Y-5645000D02*
X9695000Y-5675000D01*
X9695000Y-5715000D02*
X9725000Y-5745000D01*
X9725000Y-5715000D02*
X9695000Y-5745000D01*
X9795000Y-5715000D02*
X9825000Y-5745000D01*
X9825000Y-5715000D02*
X9795000Y-5745000D01*
X9825000Y-4745000D02*
X9855000Y-4775000D01*
X9855000Y-4745000D02*
X9825000Y-4775000D01*
X9875000Y-5485000D02*
X9905000Y-5515000D01*
X9905000Y-5485000D02*
X9875000Y-5515000D01*
X9995000Y-5485000D02*
X10025000Y-5515000D01*
X10025000Y-5485000D02*
X9995000Y-5515000D01*
X9995000Y-5590000D02*
X10025000Y-5620000D01*
X10025000Y-5590000D02*
X9995000Y-5620000D01*
X10040000Y-5340000D02*
X10070000Y-5370000D01*
X10070000Y-5340000D02*
X10040000Y-5370000D01*
X10095000Y-5590000D02*
X10125000Y-5620000D01*
X10125000Y-5590000D02*
X10095000Y-5620000D01*
X10095000Y-5715000D02*
X10125000Y-5745000D01*
X10125000Y-5715000D02*
X10095000Y-5745000D01*
X10170000Y-5235000D02*
X10200000Y-5265000D01*
X10200000Y-5235000D02*
X10170000Y-5265000D01*
X10195000Y-5625000D02*
X10225000Y-5655000D01*
X10225000Y-5625000D02*
X10195000Y-5655000D01*
X10195000Y-5715000D02*
X10225000Y-5745000D01*
X10225000Y-5715000D02*
X10195000Y-5745000D01*
X10243650Y-5235000D02*
X10273650Y-5265000D01*
X10273650Y-5235000D02*
X10243650Y-5265000D01*
X10270000Y-4875000D02*
X10300000Y-4905000D01*
X10300000Y-4875000D02*
X10270000Y-4905000D01*
X10295000Y-5715000D02*
X10325000Y-5745000D01*
X10325000Y-5715000D02*
X10295000Y-5745000D01*
X10306350Y-5235000D02*
X10336350Y-5265000D01*
X10336350Y-5235000D02*
X10306350Y-5265000D01*
X10343650Y-4875000D02*
X10373650Y-4905000D01*
X10373650Y-4875000D02*
X10343650Y-4905000D01*
X10380000Y-5235000D02*
X10410000Y-5265000D01*
X10410000Y-5235000D02*
X10380000Y-5265000D01*
X10406350Y-4875000D02*
X10436350Y-4905000D01*
X10436350Y-4875000D02*
X10406350Y-4905000D01*
X10445000Y-5625000D02*
X10475000Y-5655000D01*
X10475000Y-5625000D02*
X10445000Y-5655000D01*
X10470000Y-5235000D02*
X10500000Y-5265000D01*
X10500000Y-5235000D02*
X10470000Y-5265000D01*
X10480000Y-4875000D02*
X10510000Y-4905000D01*
X10510000Y-4875000D02*
X10480000Y-4905000D01*
X10543650Y-5235000D02*
X10573650Y-5265000D01*
X10573650Y-5235000D02*
X10543650Y-5265000D01*
X10575000Y-4875000D02*
X10605000Y-4905000D01*
X10605000Y-4875000D02*
X10575000Y-4905000D01*
X10606350Y-5235000D02*
X10636350Y-5265000D01*
X10636350Y-5235000D02*
X10606350Y-5265000D01*
X10675000Y-4875000D02*
X10705000Y-4905000D01*
X10705000Y-4875000D02*
X10675000Y-4905000D01*
X10680000Y-5235000D02*
X10710000Y-5265000D01*
X10710000Y-5235000D02*
X10680000Y-5265000D01*
X10770000Y-4875000D02*
X10800000Y-4905000D01*
X10800000Y-4875000D02*
X10770000Y-4905000D01*
X10770000Y-5235000D02*
X10800000Y-5265000D01*
X10800000Y-5235000D02*
X10770000Y-5265000D01*
X10795000Y-5715000D02*
X10825000Y-5745000D01*
X10825000Y-5715000D02*
X10795000Y-5745000D01*
X10798998Y-5628333D02*
X10828998Y-5658333D01*
X10828998Y-5628333D02*
X10798998Y-5658333D01*
X10825000Y-5500000D02*
X10855000Y-5530000D01*
X10855000Y-5500000D02*
X10825000Y-5530000D01*
X10843333Y-5583998D02*
X10873333Y-5613998D01*
X10873333Y-5583998D02*
X10843333Y-5613998D01*
X10843650Y-4875000D02*
X10873650Y-4905000D01*
X10873650Y-4875000D02*
X10843650Y-4905000D01*
X10906350Y-4875000D02*
X10936350Y-4905000D01*
X10936350Y-4875000D02*
X10906350Y-4905000D01*
X10942832Y-5622168D02*
X10972832Y-5652168D01*
X10972832Y-5622168D02*
X10942832Y-5652168D01*
X10980000Y-4875000D02*
X11010000Y-4905000D01*
X11010000Y-4875000D02*
X10980000Y-4905000D01*
X10987168Y-5577832D02*
X11017168Y-5607832D01*
X11017168Y-5577832D02*
X10987168Y-5607832D01*
X11075000Y-4875000D02*
X11105000Y-4905000D01*
X11105000Y-4875000D02*
X11075000Y-4905000D01*
X11145000Y-5715000D02*
X11175000Y-5745000D01*
X11175000Y-5715000D02*
X11145000Y-5745000D01*
X11170000Y-4875000D02*
X11200000Y-4905000D01*
X11200000Y-4875000D02*
X11170000Y-4905000D01*
X11225000Y-5425000D02*
X11255000Y-5455000D01*
X11255000Y-5425000D02*
X11225000Y-5455000D01*
X11243650Y-4875548D02*
X11273650Y-4905548D01*
X11273650Y-4875548D02*
X11243650Y-4905548D01*
X11306350Y-4875548D02*
X11336350Y-4905548D01*
X11336350Y-4875548D02*
X11306350Y-4905548D01*
X11345000Y-5715000D02*
X11375000Y-5745000D01*
X11375000Y-5715000D02*
X11345000Y-5745000D01*
X11380000Y-4875000D02*
X11410000Y-4905000D01*
X11410000Y-4875000D02*
X11380000Y-4905000D01*
X11445000Y-5715000D02*
X11475000Y-5745000D01*
X11475000Y-5715000D02*
X11445000Y-5745000D01*
X11475000Y-4875000D02*
X11505000Y-4905000D01*
X11505000Y-4875000D02*
X11475000Y-4905000D01*
X11570000Y-4875000D02*
X11600000Y-4905000D01*
X11600000Y-4875000D02*
X11570000Y-4905000D01*
X11625000Y-5425000D02*
X11655000Y-5455000D01*
X11655000Y-5425000D02*
X11625000Y-5455000D01*
X11643650Y-4875000D02*
X11673650Y-4905000D01*
X11673650Y-4875000D02*
X11643650Y-4905000D01*
X11645000Y-5715000D02*
X11675000Y-5745000D01*
X11675000Y-5715000D02*
X11645000Y-5745000D01*
X11706350Y-4875000D02*
X11736350Y-4905000D01*
X11736350Y-4875000D02*
X11706350Y-4905000D01*
X11780000Y-4875000D02*
X11810000Y-4905000D01*
X11810000Y-4875000D02*
X11780000Y-4905000D01*
X11845000Y-5715000D02*
X11875000Y-5745000D01*
X11875000Y-5715000D02*
X11845000Y-5745000D01*
X12025000Y-5425000D02*
X12055000Y-5455000D01*
X12055000Y-5425000D02*
X12025000Y-5455000D01*
X12045000Y-5715000D02*
X12075000Y-5745000D01*
X12075000Y-5715000D02*
X12045000Y-5745000D01*
X12125000Y-4745000D02*
X12155000Y-4775000D01*
X12155000Y-4745000D02*
X12125000Y-4775000D01*
X12245000Y-5715000D02*
X12275000Y-5745000D01*
X12275000Y-5715000D02*
X12245000Y-5745000D01*
X12445000Y-5715000D02*
X12475000Y-5745000D01*
X12475000Y-5715000D02*
X12445000Y-5745000D01*
X12645000Y-5715000D02*
X12675000Y-5745000D01*
X12675000Y-5715000D02*
X12645000Y-5745000D01*
X12745000Y-5715000D02*
X12775000Y-5745000D01*
X12775000Y-5715000D02*
X12745000Y-5745000D01*
D11*
X6700777Y-6656484D02*
X6700777Y-6456484D01*
X6700777Y-6456484D02*
X6748396Y-6456484D01*
X6748396Y-6456484D02*
X6776967Y-6466008D01*
X6776967Y-6466008D02*
X6796015Y-6485055D01*
X6796015Y-6485055D02*
X6805539Y-6504103D01*
X6805539Y-6504103D02*
X6815062Y-6542198D01*
X6815062Y-6542198D02*
X6815062Y-6570769D01*
X6815062Y-6570769D02*
X6805539Y-6608865D01*
X6805539Y-6608865D02*
X6796015Y-6627912D01*
X6796015Y-6627912D02*
X6776967Y-6646960D01*
X6776967Y-6646960D02*
X6748396Y-6656484D01*
X6748396Y-6656484D02*
X6700777Y-6656484D01*
X6900777Y-6656484D02*
X6900777Y-6523150D01*
X6900777Y-6561246D02*
X6910301Y-6542198D01*
X6910301Y-6542198D02*
X6919824Y-6532674D01*
X6919824Y-6532674D02*
X6938872Y-6523150D01*
X6938872Y-6523150D02*
X6957920Y-6523150D01*
X7024586Y-6656484D02*
X7024586Y-6523150D01*
X7024586Y-6456484D02*
X7015062Y-6466008D01*
X7015062Y-6466008D02*
X7024586Y-6475531D01*
X7024586Y-6475531D02*
X7034110Y-6466008D01*
X7034110Y-6466008D02*
X7024586Y-6456484D01*
X7024586Y-6456484D02*
X7024586Y-6475531D01*
X7148396Y-6656484D02*
X7129348Y-6646960D01*
X7129348Y-6646960D02*
X7119824Y-6627912D01*
X7119824Y-6627912D02*
X7119824Y-6456484D01*
X7253158Y-6656484D02*
X7234110Y-6646960D01*
X7234110Y-6646960D02*
X7224586Y-6627912D01*
X7224586Y-6627912D02*
X7224586Y-6456484D01*
X7481729Y-6656484D02*
X7481729Y-6456484D01*
X7481729Y-6456484D02*
X7548396Y-6599341D01*
X7548396Y-6599341D02*
X7615062Y-6456484D01*
X7615062Y-6456484D02*
X7615062Y-6656484D01*
X7796015Y-6656484D02*
X7796015Y-6551722D01*
X7796015Y-6551722D02*
X7786491Y-6532674D01*
X7786491Y-6532674D02*
X7767443Y-6523150D01*
X7767443Y-6523150D02*
X7729348Y-6523150D01*
X7729348Y-6523150D02*
X7710301Y-6532674D01*
X7796015Y-6646960D02*
X7776967Y-6656484D01*
X7776967Y-6656484D02*
X7729348Y-6656484D01*
X7729348Y-6656484D02*
X7710301Y-6646960D01*
X7710301Y-6646960D02*
X7700777Y-6627912D01*
X7700777Y-6627912D02*
X7700777Y-6608865D01*
X7700777Y-6608865D02*
X7710301Y-6589817D01*
X7710301Y-6589817D02*
X7729348Y-6580293D01*
X7729348Y-6580293D02*
X7776967Y-6580293D01*
X7776967Y-6580293D02*
X7796015Y-6570769D01*
X7891253Y-6523150D02*
X7891253Y-6723150D01*
X7891253Y-6532674D02*
X7910301Y-6523150D01*
X7910301Y-6523150D02*
X7948396Y-6523150D01*
X7948396Y-6523150D02*
X7967443Y-6532674D01*
X7967443Y-6532674D02*
X7976967Y-6542198D01*
X7976967Y-6542198D02*
X7986491Y-6561246D01*
X7986491Y-6561246D02*
X7986491Y-6618388D01*
X7986491Y-6618388D02*
X7976967Y-6637436D01*
X7976967Y-6637436D02*
X7967443Y-6646960D01*
X7967443Y-6646960D02*
X7948396Y-6656484D01*
X7948396Y-6656484D02*
X7910301Y-6656484D01*
X7910301Y-6656484D02*
X7891253Y-6646960D01*
X8072205Y-6637436D02*
X8081729Y-6646960D01*
X8081729Y-6646960D02*
X8072205Y-6656484D01*
X8072205Y-6656484D02*
X8062682Y-6646960D01*
X8062682Y-6646960D02*
X8072205Y-6637436D01*
X8072205Y-6637436D02*
X8072205Y-6656484D01*
X8072205Y-6532674D02*
X8081729Y-6542198D01*
X8081729Y-6542198D02*
X8072205Y-6551722D01*
X8072205Y-6551722D02*
X8062682Y-6542198D01*
X8062682Y-6542198D02*
X8072205Y-6532674D01*
X8072205Y-6532674D02*
X8072205Y-6551722D01*
D10*
X6410000Y-6970000D02*
X6440000Y-7000000D01*
X6440000Y-6970000D02*
X6410000Y-7000000D01*
D11*
X6738872Y-6876484D02*
X6757920Y-6876484D01*
X6757920Y-6876484D02*
X6776967Y-6886008D01*
X6776967Y-6886008D02*
X6786491Y-6895531D01*
X6786491Y-6895531D02*
X6796015Y-6914579D01*
X6796015Y-6914579D02*
X6805539Y-6952674D01*
X6805539Y-6952674D02*
X6805539Y-7000293D01*
X6805539Y-7000293D02*
X6796015Y-7038388D01*
X6796015Y-7038388D02*
X6786491Y-7057436D01*
X6786491Y-7057436D02*
X6776967Y-7066960D01*
X6776967Y-7066960D02*
X6757920Y-7076484D01*
X6757920Y-7076484D02*
X6738872Y-7076484D01*
X6738872Y-7076484D02*
X6719824Y-7066960D01*
X6719824Y-7066960D02*
X6710301Y-7057436D01*
X6710301Y-7057436D02*
X6700777Y-7038388D01*
X6700777Y-7038388D02*
X6691253Y-7000293D01*
X6691253Y-7000293D02*
X6691253Y-6952674D01*
X6691253Y-6952674D02*
X6700777Y-6914579D01*
X6700777Y-6914579D02*
X6710301Y-6895531D01*
X6710301Y-6895531D02*
X6719824Y-6886008D01*
X6719824Y-6886008D02*
X6738872Y-6876484D01*
X6891253Y-7057436D02*
X6900777Y-7066960D01*
X6900777Y-7066960D02*
X6891253Y-7076484D01*
X6891253Y-7076484D02*
X6881729Y-7066960D01*
X6881729Y-7066960D02*
X6891253Y-7057436D01*
X6891253Y-7057436D02*
X6891253Y-7076484D01*
X6967443Y-6876484D02*
X7091253Y-6876484D01*
X7091253Y-6876484D02*
X7024586Y-6952674D01*
X7024586Y-6952674D02*
X7053158Y-6952674D01*
X7053158Y-6952674D02*
X7072205Y-6962198D01*
X7072205Y-6962198D02*
X7081729Y-6971722D01*
X7081729Y-6971722D02*
X7091253Y-6990769D01*
X7091253Y-6990769D02*
X7091253Y-7038388D01*
X7091253Y-7038388D02*
X7081729Y-7057436D01*
X7081729Y-7057436D02*
X7072205Y-7066960D01*
X7072205Y-7066960D02*
X7053158Y-7076484D01*
X7053158Y-7076484D02*
X6996015Y-7076484D01*
X6996015Y-7076484D02*
X6976967Y-7066960D01*
X6976967Y-7066960D02*
X6967443Y-7057436D01*
X7215062Y-6876484D02*
X7234110Y-6876484D01*
X7234110Y-6876484D02*
X7253158Y-6886008D01*
X7253158Y-6886008D02*
X7262682Y-6895531D01*
X7262682Y-6895531D02*
X7272205Y-6914579D01*
X7272205Y-6914579D02*
X7281729Y-6952674D01*
X7281729Y-6952674D02*
X7281729Y-7000293D01*
X7281729Y-7000293D02*
X7272205Y-7038388D01*
X7272205Y-7038388D02*
X7262682Y-7057436D01*
X7262682Y-7057436D02*
X7253158Y-7066960D01*
X7253158Y-7066960D02*
X7234110Y-7076484D01*
X7234110Y-7076484D02*
X7215062Y-7076484D01*
X7215062Y-7076484D02*
X7196015Y-7066960D01*
X7196015Y-7066960D02*
X7186491Y-7057436D01*
X7186491Y-7057436D02*
X7176967Y-7038388D01*
X7176967Y-7038388D02*
X7167443Y-7000293D01*
X7167443Y-7000293D02*
X7167443Y-6952674D01*
X7167443Y-6952674D02*
X7176967Y-6914579D01*
X7176967Y-6914579D02*
X7186491Y-6895531D01*
X7186491Y-6895531D02*
X7196015Y-6886008D01*
X7196015Y-6886008D02*
X7215062Y-6876484D01*
X7405539Y-6876484D02*
X7424586Y-6876484D01*
X7424586Y-6876484D02*
X7443634Y-6886008D01*
X7443634Y-6886008D02*
X7453158Y-6895531D01*
X7453158Y-6895531D02*
X7462682Y-6914579D01*
X7462682Y-6914579D02*
X7472205Y-6952674D01*
X7472205Y-6952674D02*
X7472205Y-7000293D01*
X7472205Y-7000293D02*
X7462682Y-7038388D01*
X7462682Y-7038388D02*
X7453158Y-7057436D01*
X7453158Y-7057436D02*
X7443634Y-7066960D01*
X7443634Y-7066960D02*
X7424586Y-7076484D01*
X7424586Y-7076484D02*
X7405539Y-7076484D01*
X7405539Y-7076484D02*
X7386491Y-7066960D01*
X7386491Y-7066960D02*
X7376967Y-7057436D01*
X7376967Y-7057436D02*
X7367443Y-7038388D01*
X7367443Y-7038388D02*
X7357920Y-7000293D01*
X7357920Y-7000293D02*
X7357920Y-6952674D01*
X7357920Y-6952674D02*
X7367443Y-6914579D01*
X7367443Y-6914579D02*
X7376967Y-6895531D01*
X7376967Y-6895531D02*
X7386491Y-6886008D01*
X7386491Y-6886008D02*
X7405539Y-6876484D01*
X7557920Y-7076484D02*
X7557920Y-6943150D01*
X7557920Y-6962198D02*
X7567443Y-6952674D01*
X7567443Y-6952674D02*
X7586491Y-6943150D01*
X7586491Y-6943150D02*
X7615063Y-6943150D01*
X7615063Y-6943150D02*
X7634110Y-6952674D01*
X7634110Y-6952674D02*
X7643634Y-6971722D01*
X7643634Y-6971722D02*
X7643634Y-7076484D01*
X7643634Y-6971722D02*
X7653158Y-6952674D01*
X7653158Y-6952674D02*
X7672205Y-6943150D01*
X7672205Y-6943150D02*
X7700777Y-6943150D01*
X7700777Y-6943150D02*
X7719824Y-6952674D01*
X7719824Y-6952674D02*
X7729348Y-6971722D01*
X7729348Y-6971722D02*
X7729348Y-7076484D01*
X7824586Y-7076484D02*
X7824586Y-6943150D01*
X7824586Y-6962198D02*
X7834110Y-6952674D01*
X7834110Y-6952674D02*
X7853158Y-6943150D01*
X7853158Y-6943150D02*
X7881729Y-6943150D01*
X7881729Y-6943150D02*
X7900777Y-6952674D01*
X7900777Y-6952674D02*
X7910301Y-6971722D01*
X7910301Y-6971722D02*
X7910301Y-7076484D01*
X7910301Y-6971722D02*
X7919824Y-6952674D01*
X7919824Y-6952674D02*
X7938872Y-6943150D01*
X7938872Y-6943150D02*
X7967443Y-6943150D01*
X7967443Y-6943150D02*
X7986491Y-6952674D01*
X7986491Y-6952674D02*
X7996015Y-6971722D01*
X7996015Y-6971722D02*
X7996015Y-7076484D01*
X8386491Y-6866960D02*
X8215063Y-7124103D01*
X8643634Y-6876484D02*
X8662682Y-6876484D01*
X8662682Y-6876484D02*
X8681729Y-6886008D01*
X8681729Y-6886008D02*
X8691253Y-6895531D01*
X8691253Y-6895531D02*
X8700777Y-6914579D01*
X8700777Y-6914579D02*
X8710301Y-6952674D01*
X8710301Y-6952674D02*
X8710301Y-7000293D01*
X8710301Y-7000293D02*
X8700777Y-7038388D01*
X8700777Y-7038388D02*
X8691253Y-7057436D01*
X8691253Y-7057436D02*
X8681729Y-7066960D01*
X8681729Y-7066960D02*
X8662682Y-7076484D01*
X8662682Y-7076484D02*
X8643634Y-7076484D01*
X8643634Y-7076484D02*
X8624587Y-7066960D01*
X8624587Y-7066960D02*
X8615063Y-7057436D01*
X8615063Y-7057436D02*
X8605539Y-7038388D01*
X8605539Y-7038388D02*
X8596015Y-7000293D01*
X8596015Y-7000293D02*
X8596015Y-6952674D01*
X8596015Y-6952674D02*
X8605539Y-6914579D01*
X8605539Y-6914579D02*
X8615063Y-6895531D01*
X8615063Y-6895531D02*
X8624587Y-6886008D01*
X8624587Y-6886008D02*
X8643634Y-6876484D01*
X8796015Y-7057436D02*
X8805539Y-7066960D01*
X8805539Y-7066960D02*
X8796015Y-7076484D01*
X8796015Y-7076484D02*
X8786491Y-7066960D01*
X8786491Y-7066960D02*
X8796015Y-7057436D01*
X8796015Y-7057436D02*
X8796015Y-7076484D01*
X8929348Y-6876484D02*
X8948396Y-6876484D01*
X8948396Y-6876484D02*
X8967444Y-6886008D01*
X8967444Y-6886008D02*
X8976968Y-6895531D01*
X8976968Y-6895531D02*
X8986491Y-6914579D01*
X8986491Y-6914579D02*
X8996015Y-6952674D01*
X8996015Y-6952674D02*
X8996015Y-7000293D01*
X8996015Y-7000293D02*
X8986491Y-7038388D01*
X8986491Y-7038388D02*
X8976968Y-7057436D01*
X8976968Y-7057436D02*
X8967444Y-7066960D01*
X8967444Y-7066960D02*
X8948396Y-7076484D01*
X8948396Y-7076484D02*
X8929348Y-7076484D01*
X8929348Y-7076484D02*
X8910301Y-7066960D01*
X8910301Y-7066960D02*
X8900777Y-7057436D01*
X8900777Y-7057436D02*
X8891253Y-7038388D01*
X8891253Y-7038388D02*
X8881729Y-7000293D01*
X8881729Y-7000293D02*
X8881729Y-6952674D01*
X8881729Y-6952674D02*
X8891253Y-6914579D01*
X8891253Y-6914579D02*
X8900777Y-6895531D01*
X8900777Y-6895531D02*
X8910301Y-6886008D01*
X8910301Y-6886008D02*
X8929348Y-6876484D01*
X9186491Y-7076484D02*
X9072206Y-7076484D01*
X9129348Y-7076484D02*
X9129348Y-6876484D01*
X9129348Y-6876484D02*
X9110301Y-6905055D01*
X9110301Y-6905055D02*
X9091253Y-6924103D01*
X9091253Y-6924103D02*
X9072206Y-6933627D01*
X9376968Y-7076484D02*
X9262682Y-7076484D01*
X9319825Y-7076484D02*
X9319825Y-6876484D01*
X9319825Y-6876484D02*
X9300777Y-6905055D01*
X9300777Y-6905055D02*
X9281729Y-6924103D01*
X9281729Y-6924103D02*
X9262682Y-6933627D01*
X9491253Y-6962198D02*
X9472206Y-6952674D01*
X9472206Y-6952674D02*
X9462682Y-6943150D01*
X9462682Y-6943150D02*
X9453158Y-6924103D01*
X9453158Y-6924103D02*
X9453158Y-6914579D01*
X9453158Y-6914579D02*
X9462682Y-6895531D01*
X9462682Y-6895531D02*
X9472206Y-6886008D01*
X9472206Y-6886008D02*
X9491253Y-6876484D01*
X9491253Y-6876484D02*
X9529349Y-6876484D01*
X9529349Y-6876484D02*
X9548396Y-6886008D01*
X9548396Y-6886008D02*
X9557920Y-6895531D01*
X9557920Y-6895531D02*
X9567444Y-6914579D01*
X9567444Y-6914579D02*
X9567444Y-6924103D01*
X9567444Y-6924103D02*
X9557920Y-6943150D01*
X9557920Y-6943150D02*
X9548396Y-6952674D01*
X9548396Y-6952674D02*
X9529349Y-6962198D01*
X9529349Y-6962198D02*
X9491253Y-6962198D01*
X9491253Y-6962198D02*
X9472206Y-6971722D01*
X9472206Y-6971722D02*
X9462682Y-6981246D01*
X9462682Y-6981246D02*
X9453158Y-7000293D01*
X9453158Y-7000293D02*
X9453158Y-7038388D01*
X9453158Y-7038388D02*
X9462682Y-7057436D01*
X9462682Y-7057436D02*
X9472206Y-7066960D01*
X9472206Y-7066960D02*
X9491253Y-7076484D01*
X9491253Y-7076484D02*
X9529349Y-7076484D01*
X9529349Y-7076484D02*
X9548396Y-7066960D01*
X9548396Y-7066960D02*
X9557920Y-7057436D01*
X9557920Y-7057436D02*
X9567444Y-7038388D01*
X9567444Y-7038388D02*
X9567444Y-7000293D01*
X9567444Y-7000293D02*
X9557920Y-6981246D01*
X9557920Y-6981246D02*
X9548396Y-6971722D01*
X9548396Y-6971722D02*
X9529349Y-6962198D01*
X9643634Y-6876484D02*
X9643634Y-6914579D01*
X9719825Y-6876484D02*
X9719825Y-6914579D01*
X10015063Y-7152674D02*
X10005539Y-7143150D01*
X10005539Y-7143150D02*
X9986491Y-7114579D01*
X9986491Y-7114579D02*
X9976968Y-7095531D01*
X9976968Y-7095531D02*
X9967444Y-7066960D01*
X9967444Y-7066960D02*
X9957920Y-7019341D01*
X9957920Y-7019341D02*
X9957920Y-6981246D01*
X9957920Y-6981246D02*
X9967444Y-6933627D01*
X9967444Y-6933627D02*
X9976968Y-6905055D01*
X9976968Y-6905055D02*
X9986491Y-6886008D01*
X9986491Y-6886008D02*
X10005539Y-6857436D01*
X10005539Y-6857436D02*
X10015063Y-6847912D01*
X10196015Y-7076484D02*
X10081730Y-7076484D01*
X10138872Y-7076484D02*
X10138872Y-6876484D01*
X10138872Y-6876484D02*
X10119825Y-6905055D01*
X10119825Y-6905055D02*
X10100777Y-6924103D01*
X10100777Y-6924103D02*
X10081730Y-6933627D01*
X10262682Y-6876484D02*
X10396015Y-6876484D01*
X10396015Y-6876484D02*
X10310301Y-7076484D01*
X10453158Y-6876484D02*
X10576968Y-6876484D01*
X10576968Y-6876484D02*
X10510301Y-6952674D01*
X10510301Y-6952674D02*
X10538872Y-6952674D01*
X10538872Y-6952674D02*
X10557920Y-6962198D01*
X10557920Y-6962198D02*
X10567444Y-6971722D01*
X10567444Y-6971722D02*
X10576968Y-6990769D01*
X10576968Y-6990769D02*
X10576968Y-7038388D01*
X10576968Y-7038388D02*
X10567444Y-7057436D01*
X10567444Y-7057436D02*
X10557920Y-7066960D01*
X10557920Y-7066960D02*
X10538872Y-7076484D01*
X10538872Y-7076484D02*
X10481730Y-7076484D01*
X10481730Y-7076484D02*
X10462682Y-7066960D01*
X10462682Y-7066960D02*
X10453158Y-7057436D01*
X10815063Y-7076484D02*
X10815063Y-6876484D01*
X10900777Y-7076484D02*
X10900777Y-6971722D01*
X10900777Y-6971722D02*
X10891253Y-6952674D01*
X10891253Y-6952674D02*
X10872206Y-6943150D01*
X10872206Y-6943150D02*
X10843634Y-6943150D01*
X10843634Y-6943150D02*
X10824587Y-6952674D01*
X10824587Y-6952674D02*
X10815063Y-6962198D01*
X11024587Y-7076484D02*
X11005539Y-7066960D01*
X11005539Y-7066960D02*
X10996015Y-7057436D01*
X10996015Y-7057436D02*
X10986492Y-7038388D01*
X10986492Y-7038388D02*
X10986492Y-6981246D01*
X10986492Y-6981246D02*
X10996015Y-6962198D01*
X10996015Y-6962198D02*
X11005539Y-6952674D01*
X11005539Y-6952674D02*
X11024587Y-6943150D01*
X11024587Y-6943150D02*
X11053158Y-6943150D01*
X11053158Y-6943150D02*
X11072206Y-6952674D01*
X11072206Y-6952674D02*
X11081730Y-6962198D01*
X11081730Y-6962198D02*
X11091253Y-6981246D01*
X11091253Y-6981246D02*
X11091253Y-7038388D01*
X11091253Y-7038388D02*
X11081730Y-7057436D01*
X11081730Y-7057436D02*
X11072206Y-7066960D01*
X11072206Y-7066960D02*
X11053158Y-7076484D01*
X11053158Y-7076484D02*
X11024587Y-7076484D01*
X11205539Y-7076484D02*
X11186491Y-7066960D01*
X11186491Y-7066960D02*
X11176968Y-7047912D01*
X11176968Y-7047912D02*
X11176968Y-6876484D01*
X11357920Y-7066960D02*
X11338872Y-7076484D01*
X11338872Y-7076484D02*
X11300777Y-7076484D01*
X11300777Y-7076484D02*
X11281730Y-7066960D01*
X11281730Y-7066960D02*
X11272206Y-7047912D01*
X11272206Y-7047912D02*
X11272206Y-6971722D01*
X11272206Y-6971722D02*
X11281730Y-6952674D01*
X11281730Y-6952674D02*
X11300777Y-6943150D01*
X11300777Y-6943150D02*
X11338872Y-6943150D01*
X11338872Y-6943150D02*
X11357920Y-6952674D01*
X11357920Y-6952674D02*
X11367444Y-6971722D01*
X11367444Y-6971722D02*
X11367444Y-6990769D01*
X11367444Y-6990769D02*
X11272206Y-7009817D01*
X11443634Y-7066960D02*
X11462682Y-7076484D01*
X11462682Y-7076484D02*
X11500777Y-7076484D01*
X11500777Y-7076484D02*
X11519825Y-7066960D01*
X11519825Y-7066960D02*
X11529349Y-7047912D01*
X11529349Y-7047912D02*
X11529349Y-7038388D01*
X11529349Y-7038388D02*
X11519825Y-7019341D01*
X11519825Y-7019341D02*
X11500777Y-7009817D01*
X11500777Y-7009817D02*
X11472206Y-7009817D01*
X11472206Y-7009817D02*
X11453158Y-7000293D01*
X11453158Y-7000293D02*
X11443634Y-6981246D01*
X11443634Y-6981246D02*
X11443634Y-6971722D01*
X11443634Y-6971722D02*
X11453158Y-6952674D01*
X11453158Y-6952674D02*
X11472206Y-6943150D01*
X11472206Y-6943150D02*
X11500777Y-6943150D01*
X11500777Y-6943150D02*
X11519825Y-6952674D01*
X11596015Y-7152674D02*
X11605539Y-7143150D01*
X11605539Y-7143150D02*
X11624587Y-7114579D01*
X11624587Y-7114579D02*
X11634111Y-7095531D01*
X11634111Y-7095531D02*
X11643634Y-7066960D01*
X11643634Y-7066960D02*
X11653158Y-7019341D01*
X11653158Y-7019341D02*
X11653158Y-6981246D01*
X11653158Y-6981246D02*
X11643634Y-6933627D01*
X11643634Y-6933627D02*
X11634111Y-6905055D01*
X11634111Y-6905055D02*
X11624587Y-6886008D01*
X11624587Y-6886008D02*
X11605539Y-6857436D01*
X11605539Y-6857436D02*
X11596015Y-6847912D01*
M02*
