G04 #@! TF.GenerationSoftware,KiCad,Pcbnew,7.0.10*
G04 #@! TF.CreationDate,2024-02-13T01:05:36+00:00*
G04 #@! TF.ProjectId,WYSE_5070_Riser,57595345-5f35-4303-9730-5f5269736572,rev?*
G04 #@! TF.SameCoordinates,Original*
G04 #@! TF.FileFunction,Legend,Top*
G04 #@! TF.FilePolarity,Positive*
%FSLAX46Y46*%
G04 Gerber Fmt 4.6, Leading zero omitted, Abs format (unit mm)*
G04 Created by KiCad (PCBNEW 7.0.10) date 2024-02-13 01:05:36*
%MOMM*%
%LPD*%
G01*
G04 APERTURE LIST*
G04 Aperture macros list*
%AMRoundRect*
0 Rectangle with rounded corners*
0 $1 Rounding radius*
0 $2 $3 $4 $5 $6 $7 $8 $9 X,Y pos of 4 corners*
0 Add a 4 corners polygon primitive as box body*
4,1,4,$2,$3,$4,$5,$6,$7,$8,$9,$2,$3,0*
0 Add four circle primitives for the rounded corners*
1,1,$1+$1,$2,$3*
1,1,$1+$1,$4,$5*
1,1,$1+$1,$6,$7*
1,1,$1+$1,$8,$9*
0 Add four rect primitives between the rounded corners*
20,1,$1+$1,$2,$3,$4,$5,0*
20,1,$1+$1,$4,$5,$6,$7,0*
20,1,$1+$1,$6,$7,$8,$9,0*
20,1,$1+$1,$8,$9,$2,$3,0*%
G04 Aperture macros list end*
%ADD10C,0.150000*%
%ADD11C,0.120000*%
%ADD12C,0.020000*%
%ADD13C,0.100000*%
%ADD14C,0.152400*%
%ADD15C,0.000000*%
%ADD16RoundRect,0.140000X-0.219203X-0.021213X-0.021213X-0.219203X0.219203X0.021213X0.021213X0.219203X0*%
%ADD17RoundRect,0.140000X-0.170000X0.140000X-0.170000X-0.140000X0.170000X-0.140000X0.170000X0.140000X0*%
%ADD18RoundRect,0.250000X0.325000X0.650000X-0.325000X0.650000X-0.325000X-0.650000X0.325000X-0.650000X0*%
%ADD19R,0.700000X4.300000*%
%ADD20R,0.700000X3.200000*%
%ADD21RoundRect,0.250000X-0.475000X0.250000X-0.475000X-0.250000X0.475000X-0.250000X0.475000X0.250000X0*%
%ADD22RoundRect,0.140000X0.140000X0.170000X-0.140000X0.170000X-0.140000X-0.170000X0.140000X-0.170000X0*%
%ADD23RoundRect,0.250000X-0.250000X-0.475000X0.250000X-0.475000X0.250000X0.475000X-0.250000X0.475000X0*%
%ADD24C,0.500000*%
%ADD25RoundRect,0.135000X-0.185000X0.135000X-0.185000X-0.135000X0.185000X-0.135000X0.185000X0.135000X0*%
%ADD26RoundRect,0.135000X0.185000X-0.135000X0.185000X0.135000X-0.185000X0.135000X-0.185000X-0.135000X0*%
%ADD27R,3.550000X3.500000*%
%ADD28R,0.558800X1.422400*%
%ADD29R,3.352800X2.717800*%
%ADD30C,1.200000*%
G04 APERTURE END LIST*
D10*
X113700001Y-50500000D02*
G75*
G03*
X113699999Y-50500000I-1J0D01*
G01*
X113699999Y-50500000D02*
G75*
G03*
X113700001Y-50500000I1J0D01*
G01*
X117700001Y-50500000D02*
G75*
G03*
X117699999Y-50500000I-1J0D01*
G01*
X117699999Y-50500000D02*
G75*
G03*
X117700001Y-50500000I1J0D01*
G01*
X104700001Y-50500000D02*
G75*
G03*
X104699999Y-50500000I-1J0D01*
G01*
X104699999Y-50500000D02*
G75*
G03*
X104700001Y-50500000I1J0D01*
G01*
X109700001Y-50500000D02*
G75*
G03*
X109699999Y-50500000I-1J0D01*
G01*
X109699999Y-50500000D02*
G75*
G03*
X109700001Y-50500000I1J0D01*
G01*
X126119046Y-49018295D02*
X126209523Y-49818295D01*
X126209523Y-49818295D02*
X126433332Y-49246866D01*
X126433332Y-49246866D02*
X126514284Y-49818295D01*
X126514284Y-49818295D02*
X126804761Y-49018295D01*
X127209523Y-49437342D02*
X127161904Y-49818295D01*
X126995237Y-49018295D02*
X127209523Y-49437342D01*
X127209523Y-49437342D02*
X127528570Y-49018295D01*
X127661903Y-49780200D02*
X127771427Y-49818295D01*
X127771427Y-49818295D02*
X127961903Y-49818295D01*
X127961903Y-49818295D02*
X128042856Y-49780200D01*
X128042856Y-49780200D02*
X128085713Y-49742104D01*
X128085713Y-49742104D02*
X128133332Y-49665914D01*
X128133332Y-49665914D02*
X128142856Y-49589723D01*
X128142856Y-49589723D02*
X128114284Y-49513533D01*
X128114284Y-49513533D02*
X128080951Y-49475438D01*
X128080951Y-49475438D02*
X128009523Y-49437342D01*
X128009523Y-49437342D02*
X127861903Y-49399247D01*
X127861903Y-49399247D02*
X127790475Y-49361152D01*
X127790475Y-49361152D02*
X127757142Y-49323057D01*
X127757142Y-49323057D02*
X127728570Y-49246866D01*
X127728570Y-49246866D02*
X127738094Y-49170676D01*
X127738094Y-49170676D02*
X127785713Y-49094485D01*
X127785713Y-49094485D02*
X127828570Y-49056390D01*
X127828570Y-49056390D02*
X127909523Y-49018295D01*
X127909523Y-49018295D02*
X128099999Y-49018295D01*
X128099999Y-49018295D02*
X128209523Y-49056390D01*
X128509523Y-49399247D02*
X128776189Y-49399247D01*
X128838094Y-49818295D02*
X128457142Y-49818295D01*
X128457142Y-49818295D02*
X128557142Y-49018295D01*
X128557142Y-49018295D02*
X128938094Y-49018295D01*
X130271428Y-49018295D02*
X129890476Y-49018295D01*
X129890476Y-49018295D02*
X129804762Y-49399247D01*
X129804762Y-49399247D02*
X129847619Y-49361152D01*
X129847619Y-49361152D02*
X129928571Y-49323057D01*
X129928571Y-49323057D02*
X130119047Y-49323057D01*
X130119047Y-49323057D02*
X130190476Y-49361152D01*
X130190476Y-49361152D02*
X130223809Y-49399247D01*
X130223809Y-49399247D02*
X130252381Y-49475438D01*
X130252381Y-49475438D02*
X130228571Y-49665914D01*
X130228571Y-49665914D02*
X130180952Y-49742104D01*
X130180952Y-49742104D02*
X130138095Y-49780200D01*
X130138095Y-49780200D02*
X130057142Y-49818295D01*
X130057142Y-49818295D02*
X129866666Y-49818295D01*
X129866666Y-49818295D02*
X129795238Y-49780200D01*
X129795238Y-49780200D02*
X129761904Y-49742104D01*
X130804762Y-49018295D02*
X130880952Y-49018295D01*
X130880952Y-49018295D02*
X130952381Y-49056390D01*
X130952381Y-49056390D02*
X130985714Y-49094485D01*
X130985714Y-49094485D02*
X131014286Y-49170676D01*
X131014286Y-49170676D02*
X131033333Y-49323057D01*
X131033333Y-49323057D02*
X131009524Y-49513533D01*
X131009524Y-49513533D02*
X130952381Y-49665914D01*
X130952381Y-49665914D02*
X130904762Y-49742104D01*
X130904762Y-49742104D02*
X130861905Y-49780200D01*
X130861905Y-49780200D02*
X130780952Y-49818295D01*
X130780952Y-49818295D02*
X130704762Y-49818295D01*
X130704762Y-49818295D02*
X130633333Y-49780200D01*
X130633333Y-49780200D02*
X130600000Y-49742104D01*
X130600000Y-49742104D02*
X130571428Y-49665914D01*
X130571428Y-49665914D02*
X130552381Y-49513533D01*
X130552381Y-49513533D02*
X130576190Y-49323057D01*
X130576190Y-49323057D02*
X130633333Y-49170676D01*
X130633333Y-49170676D02*
X130680952Y-49094485D01*
X130680952Y-49094485D02*
X130723809Y-49056390D01*
X130723809Y-49056390D02*
X130804762Y-49018295D01*
X131338095Y-49018295D02*
X131871429Y-49018295D01*
X131871429Y-49018295D02*
X131428572Y-49818295D01*
X132328572Y-49018295D02*
X132404762Y-49018295D01*
X132404762Y-49018295D02*
X132476191Y-49056390D01*
X132476191Y-49056390D02*
X132509524Y-49094485D01*
X132509524Y-49094485D02*
X132538096Y-49170676D01*
X132538096Y-49170676D02*
X132557143Y-49323057D01*
X132557143Y-49323057D02*
X132533334Y-49513533D01*
X132533334Y-49513533D02*
X132476191Y-49665914D01*
X132476191Y-49665914D02*
X132428572Y-49742104D01*
X132428572Y-49742104D02*
X132385715Y-49780200D01*
X132385715Y-49780200D02*
X132304762Y-49818295D01*
X132304762Y-49818295D02*
X132228572Y-49818295D01*
X132228572Y-49818295D02*
X132157143Y-49780200D01*
X132157143Y-49780200D02*
X132123810Y-49742104D01*
X132123810Y-49742104D02*
X132095238Y-49665914D01*
X132095238Y-49665914D02*
X132076191Y-49513533D01*
X132076191Y-49513533D02*
X132100000Y-49323057D01*
X132100000Y-49323057D02*
X132157143Y-49170676D01*
X132157143Y-49170676D02*
X132204762Y-49094485D01*
X132204762Y-49094485D02*
X132247619Y-49056390D01*
X132247619Y-49056390D02*
X132328572Y-49018295D01*
X133638096Y-50123057D02*
X133604763Y-50084961D01*
X133604763Y-50084961D02*
X133542858Y-49970676D01*
X133542858Y-49970676D02*
X133514286Y-49894485D01*
X133514286Y-49894485D02*
X133490477Y-49780200D01*
X133490477Y-49780200D02*
X133476191Y-49589723D01*
X133476191Y-49589723D02*
X133495239Y-49437342D01*
X133495239Y-49437342D02*
X133557144Y-49246866D01*
X133557144Y-49246866D02*
X133609525Y-49132580D01*
X133609525Y-49132580D02*
X133657144Y-49056390D01*
X133657144Y-49056390D02*
X133747620Y-48942104D01*
X133747620Y-48942104D02*
X133790477Y-48904009D01*
X133980953Y-49818295D02*
X134080953Y-49018295D01*
X134080953Y-49018295D02*
X134438096Y-49818295D01*
X134438096Y-49818295D02*
X134538096Y-49018295D01*
X135238095Y-49818295D02*
X134780953Y-49818295D01*
X135009524Y-49818295D02*
X135109524Y-49018295D01*
X135109524Y-49018295D02*
X135019048Y-49132580D01*
X135019048Y-49132580D02*
X134933334Y-49208771D01*
X134933334Y-49208771D02*
X134852381Y-49246866D01*
X136000000Y-49818295D02*
X135542858Y-49818295D01*
X135771429Y-49818295D02*
X135871429Y-49018295D01*
X135871429Y-49018295D02*
X135780953Y-49132580D01*
X135780953Y-49132580D02*
X135695239Y-49208771D01*
X135695239Y-49208771D02*
X135614286Y-49246866D01*
X136342858Y-49818295D02*
X136442858Y-49018295D01*
X136442858Y-49018295D02*
X136633334Y-49018295D01*
X136633334Y-49018295D02*
X136742858Y-49056390D01*
X136742858Y-49056390D02*
X136809524Y-49132580D01*
X136809524Y-49132580D02*
X136838096Y-49208771D01*
X136838096Y-49208771D02*
X136857144Y-49361152D01*
X136857144Y-49361152D02*
X136842858Y-49475438D01*
X136842858Y-49475438D02*
X136785715Y-49627819D01*
X136785715Y-49627819D02*
X136738096Y-49704009D01*
X136738096Y-49704009D02*
X136652382Y-49780200D01*
X136652382Y-49780200D02*
X136533334Y-49818295D01*
X136533334Y-49818295D02*
X136342858Y-49818295D01*
X137028572Y-50123057D02*
X137071429Y-50084961D01*
X137071429Y-50084961D02*
X137161905Y-49970676D01*
X137161905Y-49970676D02*
X137209524Y-49894485D01*
X137209524Y-49894485D02*
X137261905Y-49780200D01*
X137261905Y-49780200D02*
X137323810Y-49589723D01*
X137323810Y-49589723D02*
X137342858Y-49437342D01*
X137342858Y-49437342D02*
X137328572Y-49246866D01*
X137328572Y-49246866D02*
X137304763Y-49132580D01*
X137304763Y-49132580D02*
X137276191Y-49056390D01*
X137276191Y-49056390D02*
X137214286Y-48942104D01*
X137214286Y-48942104D02*
X137180953Y-48904009D01*
X127066666Y-51106295D02*
X126685714Y-51106295D01*
X126685714Y-51106295D02*
X126785714Y-50306295D01*
X127447619Y-51106295D02*
X127376190Y-51068200D01*
X127376190Y-51068200D02*
X127342857Y-51030104D01*
X127342857Y-51030104D02*
X127314285Y-50953914D01*
X127314285Y-50953914D02*
X127342857Y-50725342D01*
X127342857Y-50725342D02*
X127390476Y-50649152D01*
X127390476Y-50649152D02*
X127433333Y-50611057D01*
X127433333Y-50611057D02*
X127514285Y-50572961D01*
X127514285Y-50572961D02*
X127628571Y-50572961D01*
X127628571Y-50572961D02*
X127699999Y-50611057D01*
X127699999Y-50611057D02*
X127733333Y-50649152D01*
X127733333Y-50649152D02*
X127761904Y-50725342D01*
X127761904Y-50725342D02*
X127733333Y-50953914D01*
X127733333Y-50953914D02*
X127685714Y-51030104D01*
X127685714Y-51030104D02*
X127642857Y-51068200D01*
X127642857Y-51068200D02*
X127561904Y-51106295D01*
X127561904Y-51106295D02*
X127447619Y-51106295D01*
X128047619Y-50572961D02*
X128133333Y-51106295D01*
X128133333Y-51106295D02*
X128333333Y-50725342D01*
X128333333Y-50725342D02*
X128438095Y-51106295D01*
X128438095Y-51106295D02*
X128657143Y-50572961D01*
X129504762Y-51106295D02*
X129604762Y-50306295D01*
X129604762Y-50306295D02*
X129909524Y-50306295D01*
X129909524Y-50306295D02*
X129980952Y-50344390D01*
X129980952Y-50344390D02*
X130014286Y-50382485D01*
X130014286Y-50382485D02*
X130042857Y-50458676D01*
X130042857Y-50458676D02*
X130028571Y-50572961D01*
X130028571Y-50572961D02*
X129980952Y-50649152D01*
X129980952Y-50649152D02*
X129938095Y-50687247D01*
X129938095Y-50687247D02*
X129857143Y-50725342D01*
X129857143Y-50725342D02*
X129552381Y-50725342D01*
X130304762Y-51106295D02*
X130371428Y-50572961D01*
X130352381Y-50725342D02*
X130400000Y-50649152D01*
X130400000Y-50649152D02*
X130442857Y-50611057D01*
X130442857Y-50611057D02*
X130523809Y-50572961D01*
X130523809Y-50572961D02*
X130600000Y-50572961D01*
X130914286Y-51106295D02*
X130842857Y-51068200D01*
X130842857Y-51068200D02*
X130809524Y-51030104D01*
X130809524Y-51030104D02*
X130780952Y-50953914D01*
X130780952Y-50953914D02*
X130809524Y-50725342D01*
X130809524Y-50725342D02*
X130857143Y-50649152D01*
X130857143Y-50649152D02*
X130900000Y-50611057D01*
X130900000Y-50611057D02*
X130980952Y-50572961D01*
X130980952Y-50572961D02*
X131095238Y-50572961D01*
X131095238Y-50572961D02*
X131166666Y-50611057D01*
X131166666Y-50611057D02*
X131200000Y-50649152D01*
X131200000Y-50649152D02*
X131228571Y-50725342D01*
X131228571Y-50725342D02*
X131200000Y-50953914D01*
X131200000Y-50953914D02*
X131152381Y-51030104D01*
X131152381Y-51030104D02*
X131109524Y-51068200D01*
X131109524Y-51068200D02*
X131028571Y-51106295D01*
X131028571Y-51106295D02*
X130914286Y-51106295D01*
X131476191Y-50572961D02*
X131780953Y-50572961D01*
X131523810Y-51106295D02*
X131609524Y-50420580D01*
X131609524Y-50420580D02*
X131657143Y-50344390D01*
X131657143Y-50344390D02*
X131738096Y-50306295D01*
X131738096Y-50306295D02*
X131814286Y-50306295D01*
X131980953Y-51106295D02*
X132047619Y-50572961D01*
X132080953Y-50306295D02*
X132038096Y-50344390D01*
X132038096Y-50344390D02*
X132071429Y-50382485D01*
X132071429Y-50382485D02*
X132114286Y-50344390D01*
X132114286Y-50344390D02*
X132080953Y-50306295D01*
X132080953Y-50306295D02*
X132071429Y-50382485D01*
X132476191Y-51106295D02*
X132404762Y-51068200D01*
X132404762Y-51068200D02*
X132376191Y-50992009D01*
X132376191Y-50992009D02*
X132461905Y-50306295D01*
X133090477Y-51068200D02*
X133009524Y-51106295D01*
X133009524Y-51106295D02*
X132857143Y-51106295D01*
X132857143Y-51106295D02*
X132785715Y-51068200D01*
X132785715Y-51068200D02*
X132757143Y-50992009D01*
X132757143Y-50992009D02*
X132795239Y-50687247D01*
X132795239Y-50687247D02*
X132842858Y-50611057D01*
X132842858Y-50611057D02*
X132923810Y-50572961D01*
X132923810Y-50572961D02*
X133076191Y-50572961D01*
X133076191Y-50572961D02*
X133147619Y-50611057D01*
X133147619Y-50611057D02*
X133176191Y-50687247D01*
X133176191Y-50687247D02*
X133166667Y-50763438D01*
X133166667Y-50763438D02*
X132776191Y-50839628D01*
X134533334Y-51106295D02*
X134314286Y-50725342D01*
X134076191Y-51106295D02*
X134176191Y-50306295D01*
X134176191Y-50306295D02*
X134480953Y-50306295D01*
X134480953Y-50306295D02*
X134552381Y-50344390D01*
X134552381Y-50344390D02*
X134585715Y-50382485D01*
X134585715Y-50382485D02*
X134614286Y-50458676D01*
X134614286Y-50458676D02*
X134600000Y-50572961D01*
X134600000Y-50572961D02*
X134552381Y-50649152D01*
X134552381Y-50649152D02*
X134509524Y-50687247D01*
X134509524Y-50687247D02*
X134428572Y-50725342D01*
X134428572Y-50725342D02*
X134123810Y-50725342D01*
X134876191Y-51106295D02*
X134942857Y-50572961D01*
X134976191Y-50306295D02*
X134933334Y-50344390D01*
X134933334Y-50344390D02*
X134966667Y-50382485D01*
X134966667Y-50382485D02*
X135009524Y-50344390D01*
X135009524Y-50344390D02*
X134976191Y-50306295D01*
X134976191Y-50306295D02*
X134966667Y-50382485D01*
X135223809Y-51068200D02*
X135295238Y-51106295D01*
X135295238Y-51106295D02*
X135447619Y-51106295D01*
X135447619Y-51106295D02*
X135528571Y-51068200D01*
X135528571Y-51068200D02*
X135576190Y-50992009D01*
X135576190Y-50992009D02*
X135580952Y-50953914D01*
X135580952Y-50953914D02*
X135552381Y-50877723D01*
X135552381Y-50877723D02*
X135480952Y-50839628D01*
X135480952Y-50839628D02*
X135366667Y-50839628D01*
X135366667Y-50839628D02*
X135295238Y-50801533D01*
X135295238Y-50801533D02*
X135266667Y-50725342D01*
X135266667Y-50725342D02*
X135271429Y-50687247D01*
X135271429Y-50687247D02*
X135319048Y-50611057D01*
X135319048Y-50611057D02*
X135400000Y-50572961D01*
X135400000Y-50572961D02*
X135514286Y-50572961D01*
X135514286Y-50572961D02*
X135585714Y-50611057D01*
X136214286Y-51068200D02*
X136133333Y-51106295D01*
X136133333Y-51106295D02*
X135980952Y-51106295D01*
X135980952Y-51106295D02*
X135909524Y-51068200D01*
X135909524Y-51068200D02*
X135880952Y-50992009D01*
X135880952Y-50992009D02*
X135919048Y-50687247D01*
X135919048Y-50687247D02*
X135966667Y-50611057D01*
X135966667Y-50611057D02*
X136047619Y-50572961D01*
X136047619Y-50572961D02*
X136200000Y-50572961D01*
X136200000Y-50572961D02*
X136271428Y-50611057D01*
X136271428Y-50611057D02*
X136300000Y-50687247D01*
X136300000Y-50687247D02*
X136290476Y-50763438D01*
X136290476Y-50763438D02*
X135900000Y-50839628D01*
X136590476Y-51106295D02*
X136657142Y-50572961D01*
X136638095Y-50725342D02*
X136685714Y-50649152D01*
X136685714Y-50649152D02*
X136728571Y-50611057D01*
X136728571Y-50611057D02*
X136809523Y-50572961D01*
X136809523Y-50572961D02*
X136885714Y-50572961D01*
X110459257Y-49505041D02*
X110391913Y-49505041D01*
X110391913Y-49505041D02*
X110257226Y-49437697D01*
X110257226Y-49437697D02*
X110189883Y-49370354D01*
X110189883Y-49370354D02*
X110122539Y-49235667D01*
X110122539Y-49235667D02*
X110122539Y-49100980D01*
X110122539Y-49100980D02*
X110156211Y-48999965D01*
X110156211Y-48999965D02*
X110257226Y-48831606D01*
X110257226Y-48831606D02*
X110358241Y-48730591D01*
X110358241Y-48730591D02*
X110526600Y-48629575D01*
X110526600Y-48629575D02*
X110627615Y-48595904D01*
X110627615Y-48595904D02*
X110762302Y-48595904D01*
X110762302Y-48595904D02*
X110896989Y-48663247D01*
X110896989Y-48663247D02*
X110964333Y-48730591D01*
X110964333Y-48730591D02*
X111031676Y-48865278D01*
X111031676Y-48865278D02*
X111031676Y-48932621D01*
X111469409Y-49707071D02*
X110998005Y-50178476D01*
X111570424Y-49269339D02*
X110896989Y-49606056D01*
X110896989Y-49606056D02*
X111334722Y-50043789D01*
X80159580Y-47127857D02*
X80207200Y-47175476D01*
X80207200Y-47175476D02*
X80254819Y-47318333D01*
X80254819Y-47318333D02*
X80254819Y-47413571D01*
X80254819Y-47413571D02*
X80207200Y-47556428D01*
X80207200Y-47556428D02*
X80111961Y-47651666D01*
X80111961Y-47651666D02*
X80016723Y-47699285D01*
X80016723Y-47699285D02*
X79826247Y-47746904D01*
X79826247Y-47746904D02*
X79683390Y-47746904D01*
X79683390Y-47746904D02*
X79492914Y-47699285D01*
X79492914Y-47699285D02*
X79397676Y-47651666D01*
X79397676Y-47651666D02*
X79302438Y-47556428D01*
X79302438Y-47556428D02*
X79254819Y-47413571D01*
X79254819Y-47413571D02*
X79254819Y-47318333D01*
X79254819Y-47318333D02*
X79302438Y-47175476D01*
X79302438Y-47175476D02*
X79350057Y-47127857D01*
X80254819Y-46175476D02*
X80254819Y-46746904D01*
X80254819Y-46461190D02*
X79254819Y-46461190D01*
X79254819Y-46461190D02*
X79397676Y-46556428D01*
X79397676Y-46556428D02*
X79492914Y-46651666D01*
X79492914Y-46651666D02*
X79540533Y-46746904D01*
X79254819Y-45842142D02*
X79254819Y-45175476D01*
X79254819Y-45175476D02*
X80254819Y-45604047D01*
X81507142Y-61209580D02*
X81459523Y-61257200D01*
X81459523Y-61257200D02*
X81316666Y-61304819D01*
X81316666Y-61304819D02*
X81221428Y-61304819D01*
X81221428Y-61304819D02*
X81078571Y-61257200D01*
X81078571Y-61257200D02*
X80983333Y-61161961D01*
X80983333Y-61161961D02*
X80935714Y-61066723D01*
X80935714Y-61066723D02*
X80888095Y-60876247D01*
X80888095Y-60876247D02*
X80888095Y-60733390D01*
X80888095Y-60733390D02*
X80935714Y-60542914D01*
X80935714Y-60542914D02*
X80983333Y-60447676D01*
X80983333Y-60447676D02*
X81078571Y-60352438D01*
X81078571Y-60352438D02*
X81221428Y-60304819D01*
X81221428Y-60304819D02*
X81316666Y-60304819D01*
X81316666Y-60304819D02*
X81459523Y-60352438D01*
X81459523Y-60352438D02*
X81507142Y-60400057D01*
X82459523Y-61304819D02*
X81888095Y-61304819D01*
X82173809Y-61304819D02*
X82173809Y-60304819D01*
X82173809Y-60304819D02*
X82078571Y-60447676D01*
X82078571Y-60447676D02*
X81983333Y-60542914D01*
X81983333Y-60542914D02*
X81888095Y-60590533D01*
X83316666Y-60304819D02*
X83126190Y-60304819D01*
X83126190Y-60304819D02*
X83030952Y-60352438D01*
X83030952Y-60352438D02*
X82983333Y-60400057D01*
X82983333Y-60400057D02*
X82888095Y-60542914D01*
X82888095Y-60542914D02*
X82840476Y-60733390D01*
X82840476Y-60733390D02*
X82840476Y-61114342D01*
X82840476Y-61114342D02*
X82888095Y-61209580D01*
X82888095Y-61209580D02*
X82935714Y-61257200D01*
X82935714Y-61257200D02*
X83030952Y-61304819D01*
X83030952Y-61304819D02*
X83221428Y-61304819D01*
X83221428Y-61304819D02*
X83316666Y-61257200D01*
X83316666Y-61257200D02*
X83364285Y-61209580D01*
X83364285Y-61209580D02*
X83411904Y-61114342D01*
X83411904Y-61114342D02*
X83411904Y-60876247D01*
X83411904Y-60876247D02*
X83364285Y-60781009D01*
X83364285Y-60781009D02*
X83316666Y-60733390D01*
X83316666Y-60733390D02*
X83221428Y-60685771D01*
X83221428Y-60685771D02*
X83030952Y-60685771D01*
X83030952Y-60685771D02*
X82935714Y-60733390D01*
X82935714Y-60733390D02*
X82888095Y-60781009D01*
X82888095Y-60781009D02*
X82840476Y-60876247D01*
X99766666Y-55904819D02*
X99766666Y-56619104D01*
X99766666Y-56619104D02*
X99719047Y-56761961D01*
X99719047Y-56761961D02*
X99623809Y-56857200D01*
X99623809Y-56857200D02*
X99480952Y-56904819D01*
X99480952Y-56904819D02*
X99385714Y-56904819D01*
X100766666Y-56904819D02*
X100195238Y-56904819D01*
X100480952Y-56904819D02*
X100480952Y-55904819D01*
X100480952Y-55904819D02*
X100385714Y-56047676D01*
X100385714Y-56047676D02*
X100290476Y-56142914D01*
X100290476Y-56142914D02*
X100195238Y-56190533D01*
X67359580Y-61292857D02*
X67407200Y-61340476D01*
X67407200Y-61340476D02*
X67454819Y-61483333D01*
X67454819Y-61483333D02*
X67454819Y-61578571D01*
X67454819Y-61578571D02*
X67407200Y-61721428D01*
X67407200Y-61721428D02*
X67311961Y-61816666D01*
X67311961Y-61816666D02*
X67216723Y-61864285D01*
X67216723Y-61864285D02*
X67026247Y-61911904D01*
X67026247Y-61911904D02*
X66883390Y-61911904D01*
X66883390Y-61911904D02*
X66692914Y-61864285D01*
X66692914Y-61864285D02*
X66597676Y-61816666D01*
X66597676Y-61816666D02*
X66502438Y-61721428D01*
X66502438Y-61721428D02*
X66454819Y-61578571D01*
X66454819Y-61578571D02*
X66454819Y-61483333D01*
X66454819Y-61483333D02*
X66502438Y-61340476D01*
X66502438Y-61340476D02*
X66550057Y-61292857D01*
X66550057Y-60911904D02*
X66502438Y-60864285D01*
X66502438Y-60864285D02*
X66454819Y-60769047D01*
X66454819Y-60769047D02*
X66454819Y-60530952D01*
X66454819Y-60530952D02*
X66502438Y-60435714D01*
X66502438Y-60435714D02*
X66550057Y-60388095D01*
X66550057Y-60388095D02*
X66645295Y-60340476D01*
X66645295Y-60340476D02*
X66740533Y-60340476D01*
X66740533Y-60340476D02*
X66883390Y-60388095D01*
X66883390Y-60388095D02*
X67454819Y-60959523D01*
X67454819Y-60959523D02*
X67454819Y-60340476D01*
X66454819Y-60007142D02*
X66454819Y-59388095D01*
X66454819Y-59388095D02*
X66835771Y-59721428D01*
X66835771Y-59721428D02*
X66835771Y-59578571D01*
X66835771Y-59578571D02*
X66883390Y-59483333D01*
X66883390Y-59483333D02*
X66931009Y-59435714D01*
X66931009Y-59435714D02*
X67026247Y-59388095D01*
X67026247Y-59388095D02*
X67264342Y-59388095D01*
X67264342Y-59388095D02*
X67359580Y-59435714D01*
X67359580Y-59435714D02*
X67407200Y-59483333D01*
X67407200Y-59483333D02*
X67454819Y-59578571D01*
X67454819Y-59578571D02*
X67454819Y-59864285D01*
X67454819Y-59864285D02*
X67407200Y-59959523D01*
X67407200Y-59959523D02*
X67359580Y-60007142D01*
X68659580Y-61292857D02*
X68707200Y-61340476D01*
X68707200Y-61340476D02*
X68754819Y-61483333D01*
X68754819Y-61483333D02*
X68754819Y-61578571D01*
X68754819Y-61578571D02*
X68707200Y-61721428D01*
X68707200Y-61721428D02*
X68611961Y-61816666D01*
X68611961Y-61816666D02*
X68516723Y-61864285D01*
X68516723Y-61864285D02*
X68326247Y-61911904D01*
X68326247Y-61911904D02*
X68183390Y-61911904D01*
X68183390Y-61911904D02*
X67992914Y-61864285D01*
X67992914Y-61864285D02*
X67897676Y-61816666D01*
X67897676Y-61816666D02*
X67802438Y-61721428D01*
X67802438Y-61721428D02*
X67754819Y-61578571D01*
X67754819Y-61578571D02*
X67754819Y-61483333D01*
X67754819Y-61483333D02*
X67802438Y-61340476D01*
X67802438Y-61340476D02*
X67850057Y-61292857D01*
X67850057Y-60911904D02*
X67802438Y-60864285D01*
X67802438Y-60864285D02*
X67754819Y-60769047D01*
X67754819Y-60769047D02*
X67754819Y-60530952D01*
X67754819Y-60530952D02*
X67802438Y-60435714D01*
X67802438Y-60435714D02*
X67850057Y-60388095D01*
X67850057Y-60388095D02*
X67945295Y-60340476D01*
X67945295Y-60340476D02*
X68040533Y-60340476D01*
X68040533Y-60340476D02*
X68183390Y-60388095D01*
X68183390Y-60388095D02*
X68754819Y-60959523D01*
X68754819Y-60959523D02*
X68754819Y-60340476D01*
X67850057Y-59959523D02*
X67802438Y-59911904D01*
X67802438Y-59911904D02*
X67754819Y-59816666D01*
X67754819Y-59816666D02*
X67754819Y-59578571D01*
X67754819Y-59578571D02*
X67802438Y-59483333D01*
X67802438Y-59483333D02*
X67850057Y-59435714D01*
X67850057Y-59435714D02*
X67945295Y-59388095D01*
X67945295Y-59388095D02*
X68040533Y-59388095D01*
X68040533Y-59388095D02*
X68183390Y-59435714D01*
X68183390Y-59435714D02*
X68754819Y-60007142D01*
X68754819Y-60007142D02*
X68754819Y-59388095D01*
X77159580Y-57942857D02*
X77207200Y-57990476D01*
X77207200Y-57990476D02*
X77254819Y-58133333D01*
X77254819Y-58133333D02*
X77254819Y-58228571D01*
X77254819Y-58228571D02*
X77207200Y-58371428D01*
X77207200Y-58371428D02*
X77111961Y-58466666D01*
X77111961Y-58466666D02*
X77016723Y-58514285D01*
X77016723Y-58514285D02*
X76826247Y-58561904D01*
X76826247Y-58561904D02*
X76683390Y-58561904D01*
X76683390Y-58561904D02*
X76492914Y-58514285D01*
X76492914Y-58514285D02*
X76397676Y-58466666D01*
X76397676Y-58466666D02*
X76302438Y-58371428D01*
X76302438Y-58371428D02*
X76254819Y-58228571D01*
X76254819Y-58228571D02*
X76254819Y-58133333D01*
X76254819Y-58133333D02*
X76302438Y-57990476D01*
X76302438Y-57990476D02*
X76350057Y-57942857D01*
X77254819Y-56990476D02*
X77254819Y-57561904D01*
X77254819Y-57276190D02*
X76254819Y-57276190D01*
X76254819Y-57276190D02*
X76397676Y-57371428D01*
X76397676Y-57371428D02*
X76492914Y-57466666D01*
X76492914Y-57466666D02*
X76540533Y-57561904D01*
X76683390Y-56419047D02*
X76635771Y-56514285D01*
X76635771Y-56514285D02*
X76588152Y-56561904D01*
X76588152Y-56561904D02*
X76492914Y-56609523D01*
X76492914Y-56609523D02*
X76445295Y-56609523D01*
X76445295Y-56609523D02*
X76350057Y-56561904D01*
X76350057Y-56561904D02*
X76302438Y-56514285D01*
X76302438Y-56514285D02*
X76254819Y-56419047D01*
X76254819Y-56419047D02*
X76254819Y-56228571D01*
X76254819Y-56228571D02*
X76302438Y-56133333D01*
X76302438Y-56133333D02*
X76350057Y-56085714D01*
X76350057Y-56085714D02*
X76445295Y-56038095D01*
X76445295Y-56038095D02*
X76492914Y-56038095D01*
X76492914Y-56038095D02*
X76588152Y-56085714D01*
X76588152Y-56085714D02*
X76635771Y-56133333D01*
X76635771Y-56133333D02*
X76683390Y-56228571D01*
X76683390Y-56228571D02*
X76683390Y-56419047D01*
X76683390Y-56419047D02*
X76731009Y-56514285D01*
X76731009Y-56514285D02*
X76778628Y-56561904D01*
X76778628Y-56561904D02*
X76873866Y-56609523D01*
X76873866Y-56609523D02*
X77064342Y-56609523D01*
X77064342Y-56609523D02*
X77159580Y-56561904D01*
X77159580Y-56561904D02*
X77207200Y-56514285D01*
X77207200Y-56514285D02*
X77254819Y-56419047D01*
X77254819Y-56419047D02*
X77254819Y-56228571D01*
X77254819Y-56228571D02*
X77207200Y-56133333D01*
X77207200Y-56133333D02*
X77159580Y-56085714D01*
X77159580Y-56085714D02*
X77064342Y-56038095D01*
X77064342Y-56038095D02*
X76873866Y-56038095D01*
X76873866Y-56038095D02*
X76778628Y-56085714D01*
X76778628Y-56085714D02*
X76731009Y-56133333D01*
X76731009Y-56133333D02*
X76683390Y-56228571D01*
X114459257Y-49505041D02*
X114391913Y-49505041D01*
X114391913Y-49505041D02*
X114257226Y-49437697D01*
X114257226Y-49437697D02*
X114189883Y-49370354D01*
X114189883Y-49370354D02*
X114122539Y-49235667D01*
X114122539Y-49235667D02*
X114122539Y-49100980D01*
X114122539Y-49100980D02*
X114156211Y-48999965D01*
X114156211Y-48999965D02*
X114257226Y-48831606D01*
X114257226Y-48831606D02*
X114358241Y-48730591D01*
X114358241Y-48730591D02*
X114526600Y-48629575D01*
X114526600Y-48629575D02*
X114627615Y-48595904D01*
X114627615Y-48595904D02*
X114762302Y-48595904D01*
X114762302Y-48595904D02*
X114896989Y-48663247D01*
X114896989Y-48663247D02*
X114964333Y-48730591D01*
X114964333Y-48730591D02*
X115031676Y-48865278D01*
X115031676Y-48865278D02*
X115031676Y-48932621D01*
X115705111Y-49471369D02*
X115570424Y-49336682D01*
X115570424Y-49336682D02*
X115469409Y-49303010D01*
X115469409Y-49303010D02*
X115402066Y-49303010D01*
X115402066Y-49303010D02*
X115233707Y-49336682D01*
X115233707Y-49336682D02*
X115065348Y-49437697D01*
X115065348Y-49437697D02*
X114795974Y-49707071D01*
X114795974Y-49707071D02*
X114762302Y-49808087D01*
X114762302Y-49808087D02*
X114762302Y-49875430D01*
X114762302Y-49875430D02*
X114795974Y-49976445D01*
X114795974Y-49976445D02*
X114930661Y-50111132D01*
X114930661Y-50111132D02*
X115031676Y-50144804D01*
X115031676Y-50144804D02*
X115099020Y-50144804D01*
X115099020Y-50144804D02*
X115200035Y-50111132D01*
X115200035Y-50111132D02*
X115368394Y-49942774D01*
X115368394Y-49942774D02*
X115402066Y-49841758D01*
X115402066Y-49841758D02*
X115402066Y-49774415D01*
X115402066Y-49774415D02*
X115368394Y-49673400D01*
X115368394Y-49673400D02*
X115233707Y-49538713D01*
X115233707Y-49538713D02*
X115132692Y-49505041D01*
X115132692Y-49505041D02*
X115065348Y-49505041D01*
X115065348Y-49505041D02*
X114964333Y-49538713D01*
X73757142Y-58759580D02*
X73709523Y-58807200D01*
X73709523Y-58807200D02*
X73566666Y-58854819D01*
X73566666Y-58854819D02*
X73471428Y-58854819D01*
X73471428Y-58854819D02*
X73328571Y-58807200D01*
X73328571Y-58807200D02*
X73233333Y-58711961D01*
X73233333Y-58711961D02*
X73185714Y-58616723D01*
X73185714Y-58616723D02*
X73138095Y-58426247D01*
X73138095Y-58426247D02*
X73138095Y-58283390D01*
X73138095Y-58283390D02*
X73185714Y-58092914D01*
X73185714Y-58092914D02*
X73233333Y-57997676D01*
X73233333Y-57997676D02*
X73328571Y-57902438D01*
X73328571Y-57902438D02*
X73471428Y-57854819D01*
X73471428Y-57854819D02*
X73566666Y-57854819D01*
X73566666Y-57854819D02*
X73709523Y-57902438D01*
X73709523Y-57902438D02*
X73757142Y-57950057D01*
X74138095Y-57950057D02*
X74185714Y-57902438D01*
X74185714Y-57902438D02*
X74280952Y-57854819D01*
X74280952Y-57854819D02*
X74519047Y-57854819D01*
X74519047Y-57854819D02*
X74614285Y-57902438D01*
X74614285Y-57902438D02*
X74661904Y-57950057D01*
X74661904Y-57950057D02*
X74709523Y-58045295D01*
X74709523Y-58045295D02*
X74709523Y-58140533D01*
X74709523Y-58140533D02*
X74661904Y-58283390D01*
X74661904Y-58283390D02*
X74090476Y-58854819D01*
X74090476Y-58854819D02*
X74709523Y-58854819D01*
X75328571Y-57854819D02*
X75423809Y-57854819D01*
X75423809Y-57854819D02*
X75519047Y-57902438D01*
X75519047Y-57902438D02*
X75566666Y-57950057D01*
X75566666Y-57950057D02*
X75614285Y-58045295D01*
X75614285Y-58045295D02*
X75661904Y-58235771D01*
X75661904Y-58235771D02*
X75661904Y-58473866D01*
X75661904Y-58473866D02*
X75614285Y-58664342D01*
X75614285Y-58664342D02*
X75566666Y-58759580D01*
X75566666Y-58759580D02*
X75519047Y-58807200D01*
X75519047Y-58807200D02*
X75423809Y-58854819D01*
X75423809Y-58854819D02*
X75328571Y-58854819D01*
X75328571Y-58854819D02*
X75233333Y-58807200D01*
X75233333Y-58807200D02*
X75185714Y-58759580D01*
X75185714Y-58759580D02*
X75138095Y-58664342D01*
X75138095Y-58664342D02*
X75090476Y-58473866D01*
X75090476Y-58473866D02*
X75090476Y-58235771D01*
X75090476Y-58235771D02*
X75138095Y-58045295D01*
X75138095Y-58045295D02*
X75185714Y-57950057D01*
X75185714Y-57950057D02*
X75233333Y-57902438D01*
X75233333Y-57902438D02*
X75328571Y-57854819D01*
X79857142Y-48909580D02*
X79809523Y-48957200D01*
X79809523Y-48957200D02*
X79666666Y-49004819D01*
X79666666Y-49004819D02*
X79571428Y-49004819D01*
X79571428Y-49004819D02*
X79428571Y-48957200D01*
X79428571Y-48957200D02*
X79333333Y-48861961D01*
X79333333Y-48861961D02*
X79285714Y-48766723D01*
X79285714Y-48766723D02*
X79238095Y-48576247D01*
X79238095Y-48576247D02*
X79238095Y-48433390D01*
X79238095Y-48433390D02*
X79285714Y-48242914D01*
X79285714Y-48242914D02*
X79333333Y-48147676D01*
X79333333Y-48147676D02*
X79428571Y-48052438D01*
X79428571Y-48052438D02*
X79571428Y-48004819D01*
X79571428Y-48004819D02*
X79666666Y-48004819D01*
X79666666Y-48004819D02*
X79809523Y-48052438D01*
X79809523Y-48052438D02*
X79857142Y-48100057D01*
X80238095Y-48100057D02*
X80285714Y-48052438D01*
X80285714Y-48052438D02*
X80380952Y-48004819D01*
X80380952Y-48004819D02*
X80619047Y-48004819D01*
X80619047Y-48004819D02*
X80714285Y-48052438D01*
X80714285Y-48052438D02*
X80761904Y-48100057D01*
X80761904Y-48100057D02*
X80809523Y-48195295D01*
X80809523Y-48195295D02*
X80809523Y-48290533D01*
X80809523Y-48290533D02*
X80761904Y-48433390D01*
X80761904Y-48433390D02*
X80190476Y-49004819D01*
X80190476Y-49004819D02*
X80809523Y-49004819D01*
X81714285Y-48004819D02*
X81238095Y-48004819D01*
X81238095Y-48004819D02*
X81190476Y-48481009D01*
X81190476Y-48481009D02*
X81238095Y-48433390D01*
X81238095Y-48433390D02*
X81333333Y-48385771D01*
X81333333Y-48385771D02*
X81571428Y-48385771D01*
X81571428Y-48385771D02*
X81666666Y-48433390D01*
X81666666Y-48433390D02*
X81714285Y-48481009D01*
X81714285Y-48481009D02*
X81761904Y-48576247D01*
X81761904Y-48576247D02*
X81761904Y-48814342D01*
X81761904Y-48814342D02*
X81714285Y-48909580D01*
X81714285Y-48909580D02*
X81666666Y-48957200D01*
X81666666Y-48957200D02*
X81571428Y-49004819D01*
X81571428Y-49004819D02*
X81333333Y-49004819D01*
X81333333Y-49004819D02*
X81238095Y-48957200D01*
X81238095Y-48957200D02*
X81190476Y-48909580D01*
X69959580Y-61292857D02*
X70007200Y-61340476D01*
X70007200Y-61340476D02*
X70054819Y-61483333D01*
X70054819Y-61483333D02*
X70054819Y-61578571D01*
X70054819Y-61578571D02*
X70007200Y-61721428D01*
X70007200Y-61721428D02*
X69911961Y-61816666D01*
X69911961Y-61816666D02*
X69816723Y-61864285D01*
X69816723Y-61864285D02*
X69626247Y-61911904D01*
X69626247Y-61911904D02*
X69483390Y-61911904D01*
X69483390Y-61911904D02*
X69292914Y-61864285D01*
X69292914Y-61864285D02*
X69197676Y-61816666D01*
X69197676Y-61816666D02*
X69102438Y-61721428D01*
X69102438Y-61721428D02*
X69054819Y-61578571D01*
X69054819Y-61578571D02*
X69054819Y-61483333D01*
X69054819Y-61483333D02*
X69102438Y-61340476D01*
X69102438Y-61340476D02*
X69150057Y-61292857D01*
X69150057Y-60911904D02*
X69102438Y-60864285D01*
X69102438Y-60864285D02*
X69054819Y-60769047D01*
X69054819Y-60769047D02*
X69054819Y-60530952D01*
X69054819Y-60530952D02*
X69102438Y-60435714D01*
X69102438Y-60435714D02*
X69150057Y-60388095D01*
X69150057Y-60388095D02*
X69245295Y-60340476D01*
X69245295Y-60340476D02*
X69340533Y-60340476D01*
X69340533Y-60340476D02*
X69483390Y-60388095D01*
X69483390Y-60388095D02*
X70054819Y-60959523D01*
X70054819Y-60959523D02*
X70054819Y-60340476D01*
X70054819Y-59388095D02*
X70054819Y-59959523D01*
X70054819Y-59673809D02*
X69054819Y-59673809D01*
X69054819Y-59673809D02*
X69197676Y-59769047D01*
X69197676Y-59769047D02*
X69292914Y-59864285D01*
X69292914Y-59864285D02*
X69340533Y-59959523D01*
X85524819Y-54466666D02*
X85048628Y-54799999D01*
X85524819Y-55038094D02*
X84524819Y-55038094D01*
X84524819Y-55038094D02*
X84524819Y-54657142D01*
X84524819Y-54657142D02*
X84572438Y-54561904D01*
X84572438Y-54561904D02*
X84620057Y-54514285D01*
X84620057Y-54514285D02*
X84715295Y-54466666D01*
X84715295Y-54466666D02*
X84858152Y-54466666D01*
X84858152Y-54466666D02*
X84953390Y-54514285D01*
X84953390Y-54514285D02*
X85001009Y-54561904D01*
X85001009Y-54561904D02*
X85048628Y-54657142D01*
X85048628Y-54657142D02*
X85048628Y-55038094D01*
X84858152Y-53609523D02*
X85524819Y-53609523D01*
X84477200Y-53847618D02*
X85191485Y-54085713D01*
X85191485Y-54085713D02*
X85191485Y-53466666D01*
X85524819Y-52466666D02*
X85048628Y-52799999D01*
X85524819Y-53038094D02*
X84524819Y-53038094D01*
X84524819Y-53038094D02*
X84524819Y-52657142D01*
X84524819Y-52657142D02*
X84572438Y-52561904D01*
X84572438Y-52561904D02*
X84620057Y-52514285D01*
X84620057Y-52514285D02*
X84715295Y-52466666D01*
X84715295Y-52466666D02*
X84858152Y-52466666D01*
X84858152Y-52466666D02*
X84953390Y-52514285D01*
X84953390Y-52514285D02*
X85001009Y-52561904D01*
X85001009Y-52561904D02*
X85048628Y-52657142D01*
X85048628Y-52657142D02*
X85048628Y-53038094D01*
X84524819Y-52133332D02*
X84524819Y-51514285D01*
X84524819Y-51514285D02*
X84905771Y-51847618D01*
X84905771Y-51847618D02*
X84905771Y-51704761D01*
X84905771Y-51704761D02*
X84953390Y-51609523D01*
X84953390Y-51609523D02*
X85001009Y-51561904D01*
X85001009Y-51561904D02*
X85096247Y-51514285D01*
X85096247Y-51514285D02*
X85334342Y-51514285D01*
X85334342Y-51514285D02*
X85429580Y-51561904D01*
X85429580Y-51561904D02*
X85477200Y-51609523D01*
X85477200Y-51609523D02*
X85524819Y-51704761D01*
X85524819Y-51704761D02*
X85524819Y-51990475D01*
X85524819Y-51990475D02*
X85477200Y-52085713D01*
X85477200Y-52085713D02*
X85429580Y-52133332D01*
X116196517Y-51767781D02*
X116129173Y-51767781D01*
X116129173Y-51767781D02*
X115994486Y-51700437D01*
X115994486Y-51700437D02*
X115927143Y-51633094D01*
X115927143Y-51633094D02*
X115859799Y-51498407D01*
X115859799Y-51498407D02*
X115859799Y-51363720D01*
X115859799Y-51363720D02*
X115893471Y-51262705D01*
X115893471Y-51262705D02*
X115994486Y-51094346D01*
X115994486Y-51094346D02*
X116095501Y-50993331D01*
X116095501Y-50993331D02*
X116263860Y-50892315D01*
X116263860Y-50892315D02*
X116364875Y-50858644D01*
X116364875Y-50858644D02*
X116499562Y-50858644D01*
X116499562Y-50858644D02*
X116634249Y-50925987D01*
X116634249Y-50925987D02*
X116701593Y-50993331D01*
X116701593Y-50993331D02*
X116768936Y-51128018D01*
X116768936Y-51128018D02*
X116768936Y-51195361D01*
X117071982Y-51363720D02*
X117543387Y-51835124D01*
X117543387Y-51835124D02*
X116533234Y-52239185D01*
X81654819Y-46646666D02*
X81178628Y-46979999D01*
X81654819Y-47218094D02*
X80654819Y-47218094D01*
X80654819Y-47218094D02*
X80654819Y-46837142D01*
X80654819Y-46837142D02*
X80702438Y-46741904D01*
X80702438Y-46741904D02*
X80750057Y-46694285D01*
X80750057Y-46694285D02*
X80845295Y-46646666D01*
X80845295Y-46646666D02*
X80988152Y-46646666D01*
X80988152Y-46646666D02*
X81083390Y-46694285D01*
X81083390Y-46694285D02*
X81131009Y-46741904D01*
X81131009Y-46741904D02*
X81178628Y-46837142D01*
X81178628Y-46837142D02*
X81178628Y-47218094D01*
X80750057Y-46265713D02*
X80702438Y-46218094D01*
X80702438Y-46218094D02*
X80654819Y-46122856D01*
X80654819Y-46122856D02*
X80654819Y-45884761D01*
X80654819Y-45884761D02*
X80702438Y-45789523D01*
X80702438Y-45789523D02*
X80750057Y-45741904D01*
X80750057Y-45741904D02*
X80845295Y-45694285D01*
X80845295Y-45694285D02*
X80940533Y-45694285D01*
X80940533Y-45694285D02*
X81083390Y-45741904D01*
X81083390Y-45741904D02*
X81654819Y-46313332D01*
X81654819Y-46313332D02*
X81654819Y-45694285D01*
X112196517Y-51767781D02*
X112129173Y-51767781D01*
X112129173Y-51767781D02*
X111994486Y-51700437D01*
X111994486Y-51700437D02*
X111927143Y-51633094D01*
X111927143Y-51633094D02*
X111859799Y-51498407D01*
X111859799Y-51498407D02*
X111859799Y-51363720D01*
X111859799Y-51363720D02*
X111893471Y-51262705D01*
X111893471Y-51262705D02*
X111994486Y-51094346D01*
X111994486Y-51094346D02*
X112095501Y-50993331D01*
X112095501Y-50993331D02*
X112263860Y-50892315D01*
X112263860Y-50892315D02*
X112364875Y-50858644D01*
X112364875Y-50858644D02*
X112499562Y-50858644D01*
X112499562Y-50858644D02*
X112634249Y-50925987D01*
X112634249Y-50925987D02*
X112701593Y-50993331D01*
X112701593Y-50993331D02*
X112768936Y-51128018D01*
X112768936Y-51128018D02*
X112768936Y-51195361D01*
X113476043Y-51767781D02*
X113139326Y-51431063D01*
X113139326Y-51431063D02*
X112768936Y-51734109D01*
X112768936Y-51734109D02*
X112836280Y-51734109D01*
X112836280Y-51734109D02*
X112937295Y-51767781D01*
X112937295Y-51767781D02*
X113105654Y-51936140D01*
X113105654Y-51936140D02*
X113139326Y-52037155D01*
X113139326Y-52037155D02*
X113139326Y-52104498D01*
X113139326Y-52104498D02*
X113105654Y-52205514D01*
X113105654Y-52205514D02*
X112937295Y-52373872D01*
X112937295Y-52373872D02*
X112836280Y-52407544D01*
X112836280Y-52407544D02*
X112768936Y-52407544D01*
X112768936Y-52407544D02*
X112667921Y-52373872D01*
X112667921Y-52373872D02*
X112499562Y-52205514D01*
X112499562Y-52205514D02*
X112465891Y-52104498D01*
X112465891Y-52104498D02*
X112465891Y-52037155D01*
X108196517Y-51767781D02*
X108129173Y-51767781D01*
X108129173Y-51767781D02*
X107994486Y-51700437D01*
X107994486Y-51700437D02*
X107927143Y-51633094D01*
X107927143Y-51633094D02*
X107859799Y-51498407D01*
X107859799Y-51498407D02*
X107859799Y-51363720D01*
X107859799Y-51363720D02*
X107893471Y-51262705D01*
X107893471Y-51262705D02*
X107994486Y-51094346D01*
X107994486Y-51094346D02*
X108095501Y-50993331D01*
X108095501Y-50993331D02*
X108263860Y-50892315D01*
X108263860Y-50892315D02*
X108364875Y-50858644D01*
X108364875Y-50858644D02*
X108499562Y-50858644D01*
X108499562Y-50858644D02*
X108634249Y-50925987D01*
X108634249Y-50925987D02*
X108701593Y-50993331D01*
X108701593Y-50993331D02*
X108768936Y-51128018D01*
X108768936Y-51128018D02*
X108768936Y-51195361D01*
X109071982Y-51363720D02*
X109509715Y-51801453D01*
X109509715Y-51801453D02*
X109004639Y-51835124D01*
X109004639Y-51835124D02*
X109105654Y-51936140D01*
X109105654Y-51936140D02*
X109139326Y-52037155D01*
X109139326Y-52037155D02*
X109139326Y-52104498D01*
X109139326Y-52104498D02*
X109105654Y-52205514D01*
X109105654Y-52205514D02*
X108937295Y-52373872D01*
X108937295Y-52373872D02*
X108836280Y-52407544D01*
X108836280Y-52407544D02*
X108768936Y-52407544D01*
X108768936Y-52407544D02*
X108667921Y-52373872D01*
X108667921Y-52373872D02*
X108465891Y-52171842D01*
X108465891Y-52171842D02*
X108432219Y-52070827D01*
X108432219Y-52070827D02*
X108432219Y-52003483D01*
X85554819Y-58366666D02*
X85078628Y-58699999D01*
X85554819Y-58938094D02*
X84554819Y-58938094D01*
X84554819Y-58938094D02*
X84554819Y-58557142D01*
X84554819Y-58557142D02*
X84602438Y-58461904D01*
X84602438Y-58461904D02*
X84650057Y-58414285D01*
X84650057Y-58414285D02*
X84745295Y-58366666D01*
X84745295Y-58366666D02*
X84888152Y-58366666D01*
X84888152Y-58366666D02*
X84983390Y-58414285D01*
X84983390Y-58414285D02*
X85031009Y-58461904D01*
X85031009Y-58461904D02*
X85078628Y-58557142D01*
X85078628Y-58557142D02*
X85078628Y-58938094D01*
X85554819Y-57414285D02*
X85554819Y-57985713D01*
X85554819Y-57699999D02*
X84554819Y-57699999D01*
X84554819Y-57699999D02*
X84697676Y-57795237D01*
X84697676Y-57795237D02*
X84792914Y-57890475D01*
X84792914Y-57890475D02*
X84840533Y-57985713D01*
X83159580Y-49492857D02*
X83207200Y-49540476D01*
X83207200Y-49540476D02*
X83254819Y-49683333D01*
X83254819Y-49683333D02*
X83254819Y-49778571D01*
X83254819Y-49778571D02*
X83207200Y-49921428D01*
X83207200Y-49921428D02*
X83111961Y-50016666D01*
X83111961Y-50016666D02*
X83016723Y-50064285D01*
X83016723Y-50064285D02*
X82826247Y-50111904D01*
X82826247Y-50111904D02*
X82683390Y-50111904D01*
X82683390Y-50111904D02*
X82492914Y-50064285D01*
X82492914Y-50064285D02*
X82397676Y-50016666D01*
X82397676Y-50016666D02*
X82302438Y-49921428D01*
X82302438Y-49921428D02*
X82254819Y-49778571D01*
X82254819Y-49778571D02*
X82254819Y-49683333D01*
X82254819Y-49683333D02*
X82302438Y-49540476D01*
X82302438Y-49540476D02*
X82350057Y-49492857D01*
X83254819Y-48540476D02*
X83254819Y-49111904D01*
X83254819Y-48826190D02*
X82254819Y-48826190D01*
X82254819Y-48826190D02*
X82397676Y-48921428D01*
X82397676Y-48921428D02*
X82492914Y-49016666D01*
X82492914Y-49016666D02*
X82540533Y-49111904D01*
X83254819Y-48064285D02*
X83254819Y-47873809D01*
X83254819Y-47873809D02*
X83207200Y-47778571D01*
X83207200Y-47778571D02*
X83159580Y-47730952D01*
X83159580Y-47730952D02*
X83016723Y-47635714D01*
X83016723Y-47635714D02*
X82826247Y-47588095D01*
X82826247Y-47588095D02*
X82445295Y-47588095D01*
X82445295Y-47588095D02*
X82350057Y-47635714D01*
X82350057Y-47635714D02*
X82302438Y-47683333D01*
X82302438Y-47683333D02*
X82254819Y-47778571D01*
X82254819Y-47778571D02*
X82254819Y-47969047D01*
X82254819Y-47969047D02*
X82302438Y-48064285D01*
X82302438Y-48064285D02*
X82350057Y-48111904D01*
X82350057Y-48111904D02*
X82445295Y-48159523D01*
X82445295Y-48159523D02*
X82683390Y-48159523D01*
X82683390Y-48159523D02*
X82778628Y-48111904D01*
X82778628Y-48111904D02*
X82826247Y-48064285D01*
X82826247Y-48064285D02*
X82873866Y-47969047D01*
X82873866Y-47969047D02*
X82873866Y-47778571D01*
X82873866Y-47778571D02*
X82826247Y-47683333D01*
X82826247Y-47683333D02*
X82778628Y-47635714D01*
X82778628Y-47635714D02*
X82683390Y-47588095D01*
X66254819Y-54616666D02*
X66254819Y-55092856D01*
X66254819Y-55092856D02*
X65254819Y-55092856D01*
X65350057Y-54330951D02*
X65302438Y-54283332D01*
X65302438Y-54283332D02*
X65254819Y-54188094D01*
X65254819Y-54188094D02*
X65254819Y-53949999D01*
X65254819Y-53949999D02*
X65302438Y-53854761D01*
X65302438Y-53854761D02*
X65350057Y-53807142D01*
X65350057Y-53807142D02*
X65445295Y-53759523D01*
X65445295Y-53759523D02*
X65540533Y-53759523D01*
X65540533Y-53759523D02*
X65683390Y-53807142D01*
X65683390Y-53807142D02*
X66254819Y-54378570D01*
X66254819Y-54378570D02*
X66254819Y-53759523D01*
X105459257Y-49505041D02*
X105391913Y-49505041D01*
X105391913Y-49505041D02*
X105257226Y-49437697D01*
X105257226Y-49437697D02*
X105189883Y-49370354D01*
X105189883Y-49370354D02*
X105122539Y-49235667D01*
X105122539Y-49235667D02*
X105122539Y-49100980D01*
X105122539Y-49100980D02*
X105156211Y-48999965D01*
X105156211Y-48999965D02*
X105257226Y-48831606D01*
X105257226Y-48831606D02*
X105358241Y-48730591D01*
X105358241Y-48730591D02*
X105526600Y-48629575D01*
X105526600Y-48629575D02*
X105627615Y-48595904D01*
X105627615Y-48595904D02*
X105762302Y-48595904D01*
X105762302Y-48595904D02*
X105896989Y-48663247D01*
X105896989Y-48663247D02*
X105964333Y-48730591D01*
X105964333Y-48730591D02*
X106031676Y-48865278D01*
X106031676Y-48865278D02*
X106031676Y-48932621D01*
X106301050Y-49201995D02*
X106368394Y-49201995D01*
X106368394Y-49201995D02*
X106469409Y-49235667D01*
X106469409Y-49235667D02*
X106637768Y-49404026D01*
X106637768Y-49404026D02*
X106671440Y-49505041D01*
X106671440Y-49505041D02*
X106671440Y-49572384D01*
X106671440Y-49572384D02*
X106637768Y-49673400D01*
X106637768Y-49673400D02*
X106570424Y-49740743D01*
X106570424Y-49740743D02*
X106435737Y-49808087D01*
X106435737Y-49808087D02*
X105627615Y-49808087D01*
X105627615Y-49808087D02*
X106065348Y-50245819D01*
X103196517Y-51767781D02*
X103129173Y-51767781D01*
X103129173Y-51767781D02*
X102994486Y-51700437D01*
X102994486Y-51700437D02*
X102927143Y-51633094D01*
X102927143Y-51633094D02*
X102859799Y-51498407D01*
X102859799Y-51498407D02*
X102859799Y-51363720D01*
X102859799Y-51363720D02*
X102893471Y-51262705D01*
X102893471Y-51262705D02*
X102994486Y-51094346D01*
X102994486Y-51094346D02*
X103095501Y-50993331D01*
X103095501Y-50993331D02*
X103263860Y-50892315D01*
X103263860Y-50892315D02*
X103364875Y-50858644D01*
X103364875Y-50858644D02*
X103499562Y-50858644D01*
X103499562Y-50858644D02*
X103634249Y-50925987D01*
X103634249Y-50925987D02*
X103701593Y-50993331D01*
X103701593Y-50993331D02*
X103768936Y-51128018D01*
X103768936Y-51128018D02*
X103768936Y-51195361D01*
X103802608Y-52508559D02*
X103398547Y-52104498D01*
X103600578Y-52306529D02*
X104307684Y-51599422D01*
X104307684Y-51599422D02*
X104139326Y-51633094D01*
X104139326Y-51633094D02*
X104004639Y-51633094D01*
X104004639Y-51633094D02*
X103903623Y-51599422D01*
X118459257Y-49505041D02*
X118391913Y-49505041D01*
X118391913Y-49505041D02*
X118257226Y-49437697D01*
X118257226Y-49437697D02*
X118189883Y-49370354D01*
X118189883Y-49370354D02*
X118122539Y-49235667D01*
X118122539Y-49235667D02*
X118122539Y-49100980D01*
X118122539Y-49100980D02*
X118156211Y-48999965D01*
X118156211Y-48999965D02*
X118257226Y-48831606D01*
X118257226Y-48831606D02*
X118358241Y-48730591D01*
X118358241Y-48730591D02*
X118526600Y-48629575D01*
X118526600Y-48629575D02*
X118627615Y-48595904D01*
X118627615Y-48595904D02*
X118762302Y-48595904D01*
X118762302Y-48595904D02*
X118896989Y-48663247D01*
X118896989Y-48663247D02*
X118964333Y-48730591D01*
X118964333Y-48730591D02*
X119031676Y-48865278D01*
X119031676Y-48865278D02*
X119031676Y-48932621D01*
X119200035Y-49572384D02*
X119166363Y-49471369D01*
X119166363Y-49471369D02*
X119166363Y-49404026D01*
X119166363Y-49404026D02*
X119200035Y-49303010D01*
X119200035Y-49303010D02*
X119233707Y-49269339D01*
X119233707Y-49269339D02*
X119334722Y-49235667D01*
X119334722Y-49235667D02*
X119402066Y-49235667D01*
X119402066Y-49235667D02*
X119503081Y-49269339D01*
X119503081Y-49269339D02*
X119637768Y-49404026D01*
X119637768Y-49404026D02*
X119671440Y-49505041D01*
X119671440Y-49505041D02*
X119671440Y-49572384D01*
X119671440Y-49572384D02*
X119637768Y-49673400D01*
X119637768Y-49673400D02*
X119604096Y-49707071D01*
X119604096Y-49707071D02*
X119503081Y-49740743D01*
X119503081Y-49740743D02*
X119435737Y-49740743D01*
X119435737Y-49740743D02*
X119334722Y-49707071D01*
X119334722Y-49707071D02*
X119200035Y-49572384D01*
X119200035Y-49572384D02*
X119099020Y-49538713D01*
X119099020Y-49538713D02*
X119031676Y-49538713D01*
X119031676Y-49538713D02*
X118930661Y-49572384D01*
X118930661Y-49572384D02*
X118795974Y-49707071D01*
X118795974Y-49707071D02*
X118762302Y-49808087D01*
X118762302Y-49808087D02*
X118762302Y-49875430D01*
X118762302Y-49875430D02*
X118795974Y-49976445D01*
X118795974Y-49976445D02*
X118930661Y-50111132D01*
X118930661Y-50111132D02*
X119031676Y-50144804D01*
X119031676Y-50144804D02*
X119099020Y-50144804D01*
X119099020Y-50144804D02*
X119200035Y-50111132D01*
X119200035Y-50111132D02*
X119334722Y-49976445D01*
X119334722Y-49976445D02*
X119368394Y-49875430D01*
X119368394Y-49875430D02*
X119368394Y-49808087D01*
X119368394Y-49808087D02*
X119334722Y-49707071D01*
X83438095Y-55454819D02*
X83438095Y-56264342D01*
X83438095Y-56264342D02*
X83485714Y-56359580D01*
X83485714Y-56359580D02*
X83533333Y-56407200D01*
X83533333Y-56407200D02*
X83628571Y-56454819D01*
X83628571Y-56454819D02*
X83819047Y-56454819D01*
X83819047Y-56454819D02*
X83914285Y-56407200D01*
X83914285Y-56407200D02*
X83961904Y-56359580D01*
X83961904Y-56359580D02*
X84009523Y-56264342D01*
X84009523Y-56264342D02*
X84009523Y-55454819D01*
X84438095Y-55550057D02*
X84485714Y-55502438D01*
X84485714Y-55502438D02*
X84580952Y-55454819D01*
X84580952Y-55454819D02*
X84819047Y-55454819D01*
X84819047Y-55454819D02*
X84914285Y-55502438D01*
X84914285Y-55502438D02*
X84961904Y-55550057D01*
X84961904Y-55550057D02*
X85009523Y-55645295D01*
X85009523Y-55645295D02*
X85009523Y-55740533D01*
X85009523Y-55740533D02*
X84961904Y-55883390D01*
X84961904Y-55883390D02*
X84390476Y-56454819D01*
X84390476Y-56454819D02*
X85009523Y-56454819D01*
X78254819Y-57549999D02*
X78492914Y-57549999D01*
X78397676Y-57788094D02*
X78492914Y-57549999D01*
X78492914Y-57549999D02*
X78397676Y-57311904D01*
X78683390Y-57692856D02*
X78492914Y-57549999D01*
X78492914Y-57549999D02*
X78683390Y-57407142D01*
D11*
X110231860Y-49815637D02*
X110384363Y-49968140D01*
X109722743Y-50324754D02*
X109875246Y-50477257D01*
X80285000Y-49997164D02*
X80285000Y-50212836D01*
X79565000Y-49997164D02*
X79565000Y-50212836D01*
X79111252Y-61760000D02*
X77688748Y-61760000D01*
X79111252Y-59940000D02*
X77688748Y-59940000D01*
D12*
X105650000Y-63400000D02*
X107550000Y-63400000D01*
D13*
X107700000Y-56550000D02*
G75*
G03*
X105500000Y-56550000I-1100000J0D01*
G01*
D11*
X68435000Y-57288748D02*
X68435000Y-57811252D01*
X66965000Y-57288748D02*
X66965000Y-57811252D01*
X70435000Y-57288748D02*
X70435000Y-57811252D01*
X68965000Y-57288748D02*
X68965000Y-57811252D01*
X77157836Y-59560000D02*
X76942164Y-59560000D01*
X77157836Y-58840000D02*
X76942164Y-58840000D01*
X114231860Y-49815637D02*
X114384363Y-49968140D01*
X113722743Y-50324754D02*
X113875246Y-50477257D01*
X74138748Y-56065000D02*
X74661252Y-56065000D01*
X74138748Y-57535000D02*
X74661252Y-57535000D01*
D13*
X102450000Y-44600000D02*
G75*
G03*
X102450000Y-42600000I0J1000000D01*
G01*
X106450000Y-42600000D02*
G75*
G03*
X106450000Y-44600000I0J-1000000D01*
G01*
D11*
X80607836Y-52010000D02*
X80392164Y-52010000D01*
X80607836Y-51290000D02*
X80392164Y-51290000D01*
X72435000Y-57288748D02*
X72435000Y-57811252D01*
X70965000Y-57288748D02*
X70965000Y-57811252D01*
X84280000Y-54146359D02*
X84280000Y-54453641D01*
X83520000Y-54146359D02*
X83520000Y-54453641D01*
X84280000Y-52146359D02*
X84280000Y-52453641D01*
X83520000Y-52146359D02*
X83520000Y-52453641D01*
X117524754Y-50522743D02*
X117677257Y-50675246D01*
X117015637Y-51031860D02*
X117168140Y-51184363D01*
X80695000Y-50253641D02*
X80695000Y-49946359D01*
X81455000Y-50253641D02*
X81455000Y-49946359D01*
X113524754Y-50522743D02*
X113677257Y-50675246D01*
X113015637Y-51031860D02*
X113168140Y-51184363D01*
X109524754Y-50522743D02*
X109677257Y-50675246D01*
X109015637Y-51031860D02*
X109168140Y-51184363D01*
X83520000Y-58353641D02*
X83520000Y-58046359D01*
X84280000Y-58353641D02*
X84280000Y-58046359D01*
X82760000Y-51142164D02*
X82760000Y-51357836D01*
X82040000Y-51142164D02*
X82040000Y-51357836D01*
X77300000Y-55700000D02*
X77300000Y-54300000D01*
X77300000Y-55700000D02*
X75900000Y-55700000D01*
X77050000Y-55050000D02*
X77050000Y-52300000D01*
X77050000Y-48300000D02*
X77050000Y-45550000D01*
X76650000Y-55450000D02*
X67150000Y-55450000D01*
X67150000Y-45150000D02*
X76650000Y-45150000D01*
X66750000Y-55050000D02*
X66750000Y-52300000D01*
X66750000Y-48300000D02*
X66750000Y-45550000D01*
X76650000Y-55450000D02*
G75*
G03*
X77050000Y-55050000I1J399999D01*
G01*
X77050000Y-45550000D02*
G75*
G03*
X76650000Y-45150000I-399999J1D01*
G01*
X66750000Y-55050000D02*
G75*
G03*
X67150000Y-55450000I400000J0D01*
G01*
X67150000Y-45150000D02*
G75*
G03*
X66750000Y-45550000I0J-400000D01*
G01*
D13*
X122450000Y-44600000D02*
G75*
G03*
X122450000Y-42600000I0J1000000D01*
G01*
X126450000Y-42600000D02*
G75*
G03*
X126450000Y-44600000I0J-1000000D01*
G01*
D11*
X105231860Y-49815637D02*
X105384363Y-49968140D01*
X104722743Y-50324754D02*
X104875246Y-50477257D01*
X104524754Y-50522743D02*
X104677257Y-50675246D01*
X104015637Y-51031860D02*
X104168140Y-51184363D01*
D13*
X82450000Y-44600000D02*
G75*
G03*
X82450000Y-42600000I0J1000000D01*
G01*
X86450000Y-42600000D02*
G75*
G03*
X86450000Y-44600000I0J-1000000D01*
G01*
D11*
X118231860Y-49815637D02*
X118384363Y-49968140D01*
X117722743Y-50324754D02*
X117875246Y-50477257D01*
D14*
X83103500Y-58108200D02*
X83103500Y-53891800D01*
X77896500Y-53891800D02*
X77896500Y-58108200D01*
%LPC*%
D15*
G36*
X128800000Y-63450000D02*
G01*
X94400000Y-63450000D01*
X94400000Y-57800000D01*
X128800000Y-57800000D01*
X128800000Y-63450000D01*
G37*
D16*
X109714142Y-49807036D03*
X110392964Y-50485858D03*
D17*
X79925000Y-49625000D03*
X79925000Y-50585000D03*
D18*
X79875000Y-60850000D03*
X76925000Y-60850000D03*
D19*
X95100000Y-59950000D03*
X96100000Y-59950000D03*
X97100000Y-59950000D03*
X98100000Y-59950000D03*
X99100000Y-59950000D03*
X100100000Y-59950000D03*
X101100000Y-59950000D03*
X102100000Y-59950000D03*
X103100000Y-59950000D03*
X104100000Y-59950000D03*
X105100000Y-59950000D03*
X108100000Y-59950000D03*
X109100000Y-59950000D03*
X110100000Y-59950000D03*
X111100000Y-59950000D03*
X112100000Y-59950000D03*
X113100000Y-59950000D03*
X114100000Y-59950000D03*
X115100000Y-59950000D03*
X116100000Y-59950000D03*
X117100000Y-59950000D03*
X118100000Y-59950000D03*
X119100000Y-59950000D03*
X120100000Y-59950000D03*
X121100000Y-59950000D03*
X122100000Y-59950000D03*
X123100000Y-59950000D03*
X124100000Y-59950000D03*
X125100000Y-59950000D03*
X126100000Y-59950000D03*
D20*
X127100000Y-59400000D03*
D19*
X128100000Y-59950000D03*
D21*
X67700000Y-56600000D03*
X67700000Y-58500000D03*
X69700000Y-56600000D03*
X69700000Y-58500000D03*
D22*
X77530000Y-59200000D03*
X76570000Y-59200000D03*
D16*
X113714142Y-49807036D03*
X114392964Y-50485858D03*
D23*
X73450000Y-56800000D03*
X75350000Y-56800000D03*
D24*
X103700000Y-42850000D03*
X103700000Y-44350000D03*
X104450000Y-42850000D03*
X104450000Y-44350000D03*
X105200000Y-42850000D03*
X105200000Y-44350000D03*
D22*
X80980000Y-51650000D03*
X80020000Y-51650000D03*
D21*
X71700000Y-56600000D03*
X71700000Y-58500000D03*
D25*
X83900000Y-53790000D03*
X83900000Y-54810000D03*
X83900000Y-51790000D03*
X83900000Y-52810000D03*
D16*
X117007036Y-50514142D03*
X117685858Y-51192964D03*
D26*
X81075000Y-50610000D03*
X81075000Y-49590000D03*
D16*
X113007036Y-50514142D03*
X113685858Y-51192964D03*
X109007036Y-50514142D03*
X109685858Y-51192964D03*
D26*
X83900000Y-58710000D03*
X83900000Y-57690000D03*
D17*
X82400000Y-50770000D03*
X82400000Y-51730000D03*
D27*
X76375000Y-50300000D03*
X67425000Y-50300000D03*
D24*
X123700000Y-42850000D03*
X123700000Y-44350000D03*
X124450000Y-42850000D03*
X124450000Y-44350000D03*
X125200000Y-42850000D03*
X125200000Y-44350000D03*
D16*
X104714142Y-49807036D03*
X105392964Y-50485858D03*
X104007036Y-50514142D03*
X104685858Y-51192964D03*
D24*
X83700000Y-42850000D03*
X83700000Y-44350000D03*
X84450000Y-42850000D03*
X84450000Y-44350000D03*
X85200000Y-42850000D03*
X85200000Y-44350000D03*
D16*
X117714142Y-49807036D03*
X118392964Y-50485858D03*
D28*
X78595000Y-58692400D03*
X79865000Y-58692400D03*
X81135000Y-58692400D03*
X82405000Y-58692400D03*
X82405000Y-53307600D03*
X81135000Y-53307600D03*
X79865000Y-53307600D03*
X78595000Y-53307600D03*
D29*
X80500000Y-56000000D03*
D30*
X140200000Y-51000000D03*
X123200000Y-51000000D03*
X100050000Y-51000000D03*
%LPD*%
M02*
