G04 #@! TF.GenerationSoftware,KiCad,Pcbnew,7.0.10*
G04 #@! TF.CreationDate,2024-02-13T01:05:36+00:00*
G04 #@! TF.ProjectId,WYSE_5070_Riser,57595345-5f35-4303-9730-5f5269736572,rev?*
G04 #@! TF.SameCoordinates,Original*
G04 #@! TF.FileFunction,Copper,L4,Bot*
G04 #@! TF.FilePolarity,Positive*
%FSLAX46Y46*%
G04 Gerber Fmt 4.6, Leading zero omitted, Abs format (unit mm)*
G04 Created by KiCad (PCBNEW 7.0.10) date 2024-02-13 01:05:36*
%MOMM*%
%LPD*%
G01*
G04 APERTURE LIST*
G04 Aperture macros list*
%AMFreePoly0*
4,1,25,2.100000,0.900000,1.800000,0.900000,1.705665,0.897535,1.521119,0.858308,1.348761,0.781569,1.196124,0.670672,1.069880,0.530464,0.975545,0.367071,0.917243,0.187636,0.900000,0.023576,0.900000,-0.023576,0.917243,-0.187636,0.975545,-0.367071,1.069880,-0.530464,1.196124,-0.670672,1.348761,-0.781569,1.521119,-0.858308,1.705665,-0.897535,1.800000,-0.900000,2.100000,-0.900000,
2.100000,-2.500000,-0.900000,-2.500000,-0.900000,2.500000,2.100000,2.500000,2.100000,0.900000,2.100000,0.900000,$1*%
G04 Aperture macros list end*
G04 #@! TA.AperFunction,ConnectorPad*
%ADD10R,0.700000X3.200000*%
G04 #@! TD*
G04 #@! TA.AperFunction,ConnectorPad*
%ADD11R,0.700000X4.300000*%
G04 #@! TD*
G04 #@! TA.AperFunction,SMDPad,CuDef*
%ADD12FreePoly0,180.000000*%
G04 #@! TD*
G04 #@! TA.AperFunction,SMDPad,CuDef*
%ADD13R,0.700000X1.600000*%
G04 #@! TD*
G04 #@! TA.AperFunction,SMDPad,CuDef*
%ADD14R,3.000000X5.000000*%
G04 #@! TD*
G04 #@! TA.AperFunction,ViaPad*
%ADD15C,0.500000*%
G04 #@! TD*
G04 #@! TA.AperFunction,Conductor*
%ADD16C,0.149352*%
G04 #@! TD*
G04 #@! TA.AperFunction,Conductor*
%ADD17C,0.700000*%
G04 #@! TD*
G04 #@! TA.AperFunction,Conductor*
%ADD18C,0.200000*%
G04 #@! TD*
G04 #@! TA.AperFunction,Conductor*
%ADD19C,0.500000*%
G04 #@! TD*
G04 #@! TA.AperFunction,Conductor*
%ADD20C,0.248158*%
G04 #@! TD*
G04 #@! TA.AperFunction,Conductor*
%ADD21C,0.400000*%
G04 #@! TD*
G04 APERTURE END LIST*
D10*
X95100000Y-59400000D03*
D11*
X96100000Y-59950000D03*
X97100000Y-59950000D03*
X98100000Y-59950000D03*
X99100000Y-59950000D03*
X100100000Y-59950000D03*
X101100000Y-59950000D03*
X102100000Y-59950000D03*
X103100000Y-59950000D03*
X104100000Y-59950000D03*
X105100000Y-59950000D03*
X108100000Y-59950000D03*
X109100000Y-59950000D03*
X110100000Y-59950000D03*
X111100000Y-59950000D03*
X112100000Y-59950000D03*
X113100000Y-59950000D03*
X114100000Y-59950000D03*
X115100000Y-59950000D03*
X116100000Y-59950000D03*
X117100000Y-59950000D03*
X118100000Y-59950000D03*
X119100000Y-59950000D03*
X120100000Y-59950000D03*
X121100000Y-59950000D03*
X122100000Y-59950000D03*
X123100000Y-59950000D03*
X124100000Y-59950000D03*
X125100000Y-59950000D03*
X126100000Y-59950000D03*
X127100000Y-59950000D03*
X128100000Y-59950000D03*
D12*
X142000000Y-51000000D03*
D13*
X88400000Y-54400000D03*
X89400000Y-54400000D03*
X90400000Y-54400000D03*
X91400000Y-54400000D03*
X92400000Y-54400000D03*
X93400000Y-54400000D03*
X94400000Y-54400000D03*
X95400000Y-54400000D03*
X96400000Y-54400000D03*
X97400000Y-54400000D03*
X98400000Y-54400000D03*
X101400000Y-54400000D03*
X102400000Y-54400000D03*
X103400000Y-54400000D03*
X104400000Y-54400000D03*
X105400000Y-54400000D03*
X106400000Y-54400000D03*
X107400000Y-54400000D03*
X108400000Y-54400000D03*
X109400000Y-54400000D03*
X110400000Y-54400000D03*
X111400000Y-54400000D03*
X112400000Y-54400000D03*
X113400000Y-54400000D03*
X114400000Y-54400000D03*
X115400000Y-54400000D03*
X116400000Y-54400000D03*
X117400000Y-54400000D03*
X118400000Y-54400000D03*
X119400000Y-54400000D03*
X120400000Y-54400000D03*
X121400000Y-54400000D03*
X88400000Y-47600000D03*
X89400000Y-47600000D03*
X90400000Y-47600000D03*
X91400000Y-47600000D03*
X92400000Y-47600000D03*
X93400000Y-47600000D03*
X94400000Y-47600000D03*
X95400000Y-47600000D03*
X96400000Y-47600000D03*
X97400000Y-47600000D03*
X98400000Y-47600000D03*
X101400000Y-47600000D03*
X102400000Y-47600000D03*
X103400000Y-47600000D03*
X104400000Y-47600000D03*
X105400000Y-47600000D03*
X106400000Y-47600000D03*
X107400000Y-47600000D03*
X108400000Y-47600000D03*
X109400000Y-47600000D03*
X110400000Y-47600000D03*
X111400000Y-47600000D03*
X112400000Y-47600000D03*
X113400000Y-47600000D03*
X114400000Y-47600000D03*
X115400000Y-47600000D03*
X116400000Y-47600000D03*
X117400000Y-47600000D03*
X118400000Y-47600000D03*
X119400000Y-47600000D03*
X120400000Y-47600000D03*
X121400000Y-47600000D03*
D14*
X85400000Y-51000000D03*
D12*
X125000000Y-51000000D03*
D15*
X103586500Y-48900000D03*
X104213500Y-48900000D03*
X108586500Y-48900000D03*
X109213500Y-48900000D03*
X112586500Y-48905482D03*
X113213500Y-48905482D03*
X116586500Y-48900000D03*
X117213500Y-48900000D03*
X113950000Y-48900000D03*
X118600000Y-57300000D03*
X75000000Y-55000000D03*
X108400000Y-55150000D03*
X108100000Y-57300000D03*
X101850000Y-52500000D03*
X82500000Y-56000000D03*
X79500000Y-56000000D03*
X98100000Y-57300000D03*
X67000000Y-59600000D03*
X80500000Y-56000000D03*
X104850000Y-52500000D03*
X105900000Y-48900000D03*
X107850000Y-48900000D03*
X80500000Y-55000000D03*
X95100000Y-56350000D03*
X76000000Y-58100000D03*
X91400000Y-54400000D03*
X83500000Y-56000000D03*
X111850000Y-48900000D03*
X74500000Y-59600000D03*
X114600000Y-57300000D03*
X101100000Y-57300000D03*
X116400000Y-54400000D03*
X79500000Y-55000000D03*
X77000000Y-56000000D03*
X103950000Y-52500000D03*
X68500000Y-59600000D03*
X73000000Y-61100000D03*
X78500000Y-57000000D03*
X106950000Y-52500000D03*
X79500000Y-57000000D03*
X120400000Y-54400000D03*
X78500000Y-56000000D03*
X81500000Y-56000000D03*
X114900000Y-48900000D03*
X84500000Y-57000000D03*
X82500000Y-55000000D03*
X115850000Y-48900000D03*
X91400000Y-47600000D03*
X71500000Y-59600000D03*
X124600000Y-57300000D03*
X77000000Y-55000000D03*
X120600000Y-57300000D03*
X78500000Y-55000000D03*
X71500000Y-61100000D03*
X81500000Y-57000000D03*
X82500000Y-57000000D03*
X126600000Y-57300000D03*
X76000000Y-55000000D03*
X127600000Y-57300000D03*
X83500000Y-57000000D03*
X70000000Y-61100000D03*
X116600000Y-57300000D03*
X76000000Y-61100000D03*
X67000000Y-61100000D03*
X112400000Y-54400000D03*
X107850000Y-52500000D03*
X80500000Y-57000000D03*
X77000000Y-57000000D03*
X106900000Y-48900000D03*
X74500000Y-58100000D03*
X70000000Y-59600000D03*
X111600000Y-57300000D03*
X113600000Y-57300000D03*
X102850000Y-48900000D03*
X68500000Y-61100000D03*
X121400000Y-47600000D03*
X109950000Y-48900000D03*
X73000000Y-58100000D03*
X104950000Y-48900000D03*
X81500000Y-55000000D03*
X117950000Y-48900000D03*
X94400000Y-47600000D03*
X73000000Y-59600000D03*
X91400000Y-49100000D03*
X74500000Y-61100000D03*
X122600000Y-57300000D03*
X110900000Y-48900000D03*
X90500000Y-58500000D03*
X97100000Y-57300000D03*
X96100000Y-57300000D03*
X79000000Y-60250000D03*
X79000000Y-61500000D03*
X89000000Y-58500000D03*
X90500000Y-57000000D03*
X81000000Y-61500000D03*
X81000000Y-60250000D03*
X86000000Y-57000000D03*
X90500000Y-60000000D03*
X89000000Y-60000000D03*
X89000000Y-57000000D03*
X83000000Y-61500000D03*
X87500000Y-57000000D03*
X97100000Y-56600000D03*
X84000000Y-61500000D03*
X87500000Y-58500000D03*
X89000000Y-61500000D03*
X87500000Y-60000000D03*
X96100000Y-56600000D03*
X86000000Y-58500000D03*
X82000000Y-61500000D03*
X82000000Y-60250000D03*
X83000000Y-60250000D03*
X100100000Y-56050000D03*
X101100000Y-56050000D03*
X102100000Y-56400000D03*
X102100000Y-57300000D03*
X103100000Y-57300000D03*
X100100000Y-55000000D03*
X98900000Y-55000000D03*
X104600000Y-56400000D03*
X102586500Y-52500000D03*
X108139977Y-56433333D03*
X103213500Y-52500000D03*
X108583333Y-55989977D03*
X105586500Y-52500000D03*
X109578322Y-56371678D03*
X106213500Y-52500000D03*
X110021678Y-55928322D03*
X92400000Y-47600000D03*
X93400000Y-47600000D03*
X100550000Y-53550000D03*
X98400000Y-47600000D03*
X87400000Y-49100000D03*
X88400000Y-47600000D03*
X68500000Y-53300000D03*
X71500000Y-53300000D03*
X87400000Y-50600000D03*
X71500000Y-54800000D03*
X90400000Y-47600000D03*
X89400000Y-49100000D03*
X67000000Y-54800000D03*
X89400000Y-50600000D03*
X70000000Y-48800000D03*
X67000000Y-47300000D03*
X70000000Y-54800000D03*
X68500000Y-45800000D03*
X90400000Y-49100000D03*
X88400000Y-46100000D03*
X70000000Y-51800000D03*
X73000000Y-51800000D03*
X88400000Y-49100000D03*
X68500000Y-47300000D03*
X88400000Y-50600000D03*
X70000000Y-47300000D03*
X73000000Y-53300000D03*
X68500000Y-54800000D03*
X71500000Y-50300000D03*
X87400000Y-46100000D03*
X89400000Y-47600000D03*
X71500000Y-51800000D03*
X73000000Y-54800000D03*
X70000000Y-50300000D03*
X90400000Y-46100000D03*
X71500000Y-48800000D03*
X89400000Y-46100000D03*
X83250000Y-50800000D03*
X70000000Y-53300000D03*
X90400000Y-50600000D03*
X87400000Y-47600000D03*
X67000000Y-53300000D03*
X70000000Y-45800000D03*
X77550000Y-58400000D03*
X77750000Y-53300000D03*
D16*
X103761824Y-48411824D02*
X103761824Y-48724676D01*
X103761824Y-48724676D02*
X103586500Y-48900000D01*
X103400000Y-48050000D02*
X103761824Y-48411824D01*
X103400000Y-47600000D02*
X103400000Y-48050000D01*
X104038176Y-48724676D02*
X104213500Y-48900000D01*
X104400000Y-48050000D02*
X104038176Y-48411824D01*
X104038176Y-48411824D02*
X104038176Y-48724676D01*
X104400000Y-47600000D02*
X104400000Y-48050000D01*
X108400000Y-47600000D02*
X108400000Y-48050000D01*
X108761824Y-48411824D02*
X108761824Y-48724676D01*
X108761824Y-48724676D02*
X108586500Y-48900000D01*
X108400000Y-48050000D02*
X108761824Y-48411824D01*
X109400000Y-48050000D02*
X109038176Y-48411824D01*
X109038176Y-48411824D02*
X109038176Y-48724676D01*
X109038176Y-48724676D02*
X109213500Y-48900000D01*
X109400000Y-47600000D02*
X109400000Y-48050000D01*
X112400000Y-47600000D02*
X112400000Y-48050000D01*
X112761824Y-48411824D02*
X112761824Y-48730158D01*
X112400000Y-48050000D02*
X112761824Y-48411824D01*
X112761824Y-48730158D02*
X112586500Y-48905482D01*
X113038176Y-48730158D02*
X113213500Y-48905482D01*
X113400000Y-48050000D02*
X113038176Y-48411824D01*
X113038176Y-48411824D02*
X113038176Y-48730158D01*
X113400000Y-47600000D02*
X113400000Y-48050000D01*
X116761824Y-48724676D02*
X116586500Y-48900000D01*
X116761824Y-48411824D02*
X116761824Y-48724676D01*
X116400000Y-47600000D02*
X116400000Y-48050000D01*
X116400000Y-48050000D02*
X116761824Y-48411824D01*
X117400000Y-47600000D02*
X117400000Y-48050000D01*
X117038176Y-48724676D02*
X117213500Y-48900000D01*
X117400000Y-48050000D02*
X117038176Y-48411824D01*
X117038176Y-48411824D02*
X117038176Y-48724676D01*
D17*
X95100000Y-59400000D02*
X95100000Y-56350000D01*
X112400000Y-54400000D02*
X113400000Y-54400000D01*
X117400000Y-54400000D02*
X116400000Y-54400000D01*
D18*
X104600000Y-56400000D02*
X105100000Y-56900000D01*
D19*
X98900000Y-55000000D02*
X98400000Y-54500000D01*
D18*
X105100000Y-56900000D02*
X105100000Y-59950000D01*
D19*
X98400000Y-54500000D02*
X98400000Y-54400000D01*
D16*
X109234896Y-57389207D02*
X109461824Y-57616135D01*
D20*
X102400000Y-53950000D02*
X102712421Y-53637579D01*
D16*
X108387922Y-56433333D02*
X108539708Y-56585119D01*
X108920603Y-57389207D02*
X109234896Y-57389207D01*
X109461824Y-57788176D02*
X109100000Y-58150000D01*
X109461824Y-57616135D02*
X109461824Y-57788176D01*
D20*
X102400000Y-54400000D02*
X102400000Y-53950000D01*
D16*
X108139977Y-56433333D02*
X108387922Y-56433333D01*
X109100000Y-58150000D02*
X109100000Y-59950000D01*
D20*
X102712421Y-53637579D02*
X102712421Y-52625921D01*
D16*
X108539708Y-57008312D02*
X108920603Y-57389207D01*
X108539708Y-56585119D02*
X108539708Y-57008312D01*
D20*
X102712421Y-52625921D02*
X102586500Y-52500000D01*
D16*
X108816060Y-56893840D02*
X109035075Y-57112855D01*
X109349368Y-57112855D02*
X109738176Y-57501663D01*
D20*
X103400000Y-53950000D02*
X103087579Y-53637579D01*
X103087579Y-52625921D02*
X103213500Y-52500000D01*
D16*
X110100000Y-58150000D02*
X110100000Y-59950000D01*
X109035075Y-57112855D02*
X109349368Y-57112855D01*
D20*
X103400000Y-54400000D02*
X103400000Y-53950000D01*
D16*
X109738176Y-57501663D02*
X109738176Y-57788176D01*
X108583333Y-55989977D02*
X108583333Y-56237922D01*
D20*
X103087579Y-53637579D02*
X103087579Y-52625921D01*
D16*
X108583333Y-56237922D02*
X108816060Y-56470649D01*
X108816060Y-56470649D02*
X108816060Y-56893840D01*
X109738176Y-57788176D02*
X110100000Y-58150000D01*
X110192765Y-56738176D02*
X109826267Y-56371678D01*
D20*
X105400000Y-54400000D02*
X105400000Y-53950000D01*
D16*
X112461824Y-57357236D02*
X111842764Y-56738176D01*
X111842764Y-56738176D02*
X110192765Y-56738176D01*
X112461824Y-57788176D02*
X112461824Y-57357236D01*
X109826267Y-56371678D02*
X109578322Y-56371678D01*
D20*
X105400000Y-53950000D02*
X105712421Y-53637579D01*
D16*
X112100000Y-59950000D02*
X112100000Y-58150000D01*
X112100000Y-58150000D02*
X112461824Y-57788176D01*
D20*
X105712421Y-52625921D02*
X105586500Y-52500000D01*
X105712421Y-53637579D02*
X105712421Y-52625921D01*
X106087579Y-52625921D02*
X106213500Y-52500000D01*
D16*
X111957236Y-56461824D02*
X110307235Y-56461824D01*
X113100000Y-59950000D02*
X113100000Y-58150000D01*
D20*
X106400000Y-53950000D02*
X106087579Y-53637579D01*
X106087579Y-53637579D02*
X106087579Y-52625921D01*
D16*
X112738176Y-57788176D02*
X112738176Y-57242764D01*
X112738176Y-57242764D02*
X111957236Y-56461824D01*
D20*
X106400000Y-54400000D02*
X106400000Y-53950000D01*
D16*
X110021678Y-56176267D02*
X110021678Y-55928322D01*
X113100000Y-58150000D02*
X112738176Y-57788176D01*
X110307235Y-56461824D02*
X110021678Y-56176267D01*
X110400000Y-54850000D02*
X110761824Y-55211824D01*
X117461824Y-57788176D02*
X117100000Y-58150000D01*
X110761824Y-55507236D02*
X111042764Y-55788176D01*
X117100000Y-58150000D02*
X117100000Y-59950000D01*
X111042764Y-55788176D02*
X113242764Y-55788176D01*
X116842764Y-56738176D02*
X117461824Y-57357236D01*
X114192764Y-56738176D02*
X116842764Y-56738176D01*
X110400000Y-54400000D02*
X110400000Y-54850000D01*
X113242764Y-55788176D02*
X114192764Y-56738176D01*
X117461824Y-57357236D02*
X117461824Y-57788176D01*
X110761824Y-55211824D02*
X110761824Y-55507236D01*
X118100000Y-58150000D02*
X118100000Y-59950000D01*
X117738176Y-57242764D02*
X117738176Y-57788176D01*
X113357236Y-55511824D02*
X114307236Y-56461824D01*
X111400000Y-54850000D02*
X111038176Y-55211824D01*
X117738176Y-57788176D02*
X118100000Y-58150000D01*
X114307236Y-56461824D02*
X116957236Y-56461824D01*
X111157236Y-55511824D02*
X113357236Y-55511824D01*
X111400000Y-54400000D02*
X111400000Y-54850000D01*
X116957236Y-56461824D02*
X117738176Y-57242764D01*
X111038176Y-55211824D02*
X111038176Y-55392764D01*
X111038176Y-55392764D02*
X111157236Y-55511824D01*
X114761824Y-55507236D02*
X115042764Y-55788176D01*
X121461824Y-57788176D02*
X121100000Y-58150000D01*
X114761824Y-55211824D02*
X114761824Y-55507236D01*
X115042764Y-55788176D02*
X117492764Y-55788176D01*
X121461824Y-56857236D02*
X121461824Y-57788176D01*
X114400000Y-54400000D02*
X114400000Y-54850000D01*
X118442764Y-56738176D02*
X121342764Y-56738176D01*
X114400000Y-54850000D02*
X114761824Y-55211824D01*
X121100000Y-58150000D02*
X121100000Y-59950000D01*
X117492764Y-55788176D02*
X118442764Y-56738176D01*
X121342764Y-56738176D02*
X121461824Y-56857236D01*
X122100000Y-58150000D02*
X122100000Y-59950000D01*
X115157236Y-55511824D02*
X117607236Y-55511824D01*
X115400000Y-54400000D02*
X115400000Y-54850000D01*
X121738176Y-57788176D02*
X122100000Y-58150000D01*
X121457236Y-56461824D02*
X121738176Y-56742764D01*
X115038176Y-55211824D02*
X115038176Y-55392764D01*
X117607236Y-55511824D02*
X118557236Y-56461824D01*
X115038176Y-55392764D02*
X115157236Y-55511824D01*
X115400000Y-54850000D02*
X115038176Y-55211824D01*
X121738176Y-56742764D02*
X121738176Y-57788176D01*
X118557236Y-56461824D02*
X121457236Y-56461824D01*
X118400000Y-54850000D02*
X118761824Y-55211824D01*
X119042764Y-55788176D02*
X123992764Y-55788176D01*
X123992764Y-55788176D02*
X125461824Y-57257236D01*
X118761824Y-55211824D02*
X118761824Y-55507236D01*
X118761824Y-55507236D02*
X119042764Y-55788176D01*
X118400000Y-54400000D02*
X118400000Y-54850000D01*
X125461824Y-57257236D02*
X125461824Y-57788176D01*
X125461824Y-57788176D02*
X125100000Y-58150000D01*
X125100000Y-58150000D02*
X125100000Y-59950000D01*
X119157236Y-55511824D02*
X124107236Y-55511824D01*
X125738176Y-57788176D02*
X126100000Y-58150000D01*
X126100000Y-58150000D02*
X126100000Y-59950000D01*
X119038176Y-55211824D02*
X119038176Y-55392764D01*
X119400000Y-54850000D02*
X119038176Y-55211824D01*
X124107236Y-55511824D02*
X125738176Y-57142764D01*
X119038176Y-55392764D02*
X119157236Y-55511824D01*
X125738176Y-57142764D02*
X125738176Y-57788176D01*
X119400000Y-54400000D02*
X119400000Y-54850000D01*
D19*
X101400000Y-51550000D02*
X101400000Y-50500000D01*
X100550000Y-52400000D02*
X101400000Y-51550000D01*
X100050000Y-49150000D02*
X97950000Y-49150000D01*
X101400000Y-50500000D02*
X100050000Y-49150000D01*
X97400000Y-48600000D02*
X97400000Y-47400000D01*
X100550000Y-53550000D02*
X100550000Y-52400000D01*
X97950000Y-49150000D02*
X97400000Y-48600000D01*
D21*
X77750000Y-58200000D02*
X77550000Y-58400000D01*
X77750000Y-53300000D02*
X77750000Y-58200000D01*
G04 #@! TA.AperFunction,Conductor*
G36*
X98367183Y-57068907D02*
G01*
X98378996Y-57078996D01*
X98421004Y-57121004D01*
X98448781Y-57175521D01*
X98450000Y-57191008D01*
X98450000Y-58001000D01*
X98431093Y-58059191D01*
X98381593Y-58095155D01*
X98351000Y-58100000D01*
X97849000Y-58100000D01*
X97790809Y-58081093D01*
X97754845Y-58031593D01*
X97750000Y-58001000D01*
X97750000Y-57191008D01*
X97768907Y-57132817D01*
X97778996Y-57121004D01*
X97821004Y-57078996D01*
X97875521Y-57051219D01*
X97891008Y-57050000D01*
X98308992Y-57050000D01*
X98367183Y-57068907D01*
G37*
G04 #@! TD.AperFunction*
G04 #@! TA.AperFunction,Conductor*
G36*
X110559561Y-48101902D02*
G01*
X110607222Y-48111382D01*
X110642908Y-48126163D01*
X110675050Y-48147640D01*
X110702359Y-48174949D01*
X110719513Y-48200621D01*
X110723835Y-48207089D01*
X110738616Y-48242775D01*
X110748097Y-48290436D01*
X110750000Y-48309751D01*
X110750000Y-48450000D01*
X110770096Y-48525000D01*
X110825000Y-48579904D01*
X110900000Y-48600000D01*
X110975000Y-48579904D01*
X111029904Y-48525000D01*
X111050000Y-48450000D01*
X111050000Y-48309751D01*
X111051902Y-48290438D01*
X111057353Y-48263034D01*
X111061382Y-48242775D01*
X111076162Y-48207092D01*
X111097642Y-48174946D01*
X111124946Y-48147642D01*
X111157092Y-48126162D01*
X111192775Y-48111382D01*
X111233043Y-48103373D01*
X111240439Y-48101902D01*
X111259752Y-48100000D01*
X111586965Y-48100000D01*
X111612587Y-48103373D01*
X111649375Y-48113230D01*
X111693757Y-48138853D01*
X111711146Y-48156242D01*
X111736768Y-48200621D01*
X111746626Y-48237409D01*
X111750000Y-48263034D01*
X111750000Y-48317160D01*
X111765223Y-48393694D01*
X111808578Y-48458578D01*
X112034528Y-48684528D01*
X112046840Y-48699531D01*
X112073835Y-48739932D01*
X112088616Y-48775618D01*
X112098097Y-48823279D01*
X112100000Y-48842594D01*
X112100000Y-48969535D01*
X112098097Y-48988851D01*
X112090845Y-49025305D01*
X112076064Y-49060990D01*
X112060940Y-49083625D01*
X112033625Y-49110940D01*
X112010990Y-49126064D01*
X111975306Y-49140845D01*
X111938853Y-49148097D01*
X111919536Y-49150000D01*
X109880464Y-49150000D01*
X109861148Y-49148097D01*
X109824694Y-49140845D01*
X109789009Y-49126064D01*
X109766374Y-49110940D01*
X109739059Y-49083625D01*
X109723935Y-49060990D01*
X109709153Y-49025303D01*
X109701902Y-48988849D01*
X109700000Y-48969535D01*
X109700000Y-48842594D01*
X109701902Y-48823281D01*
X109711382Y-48775620D01*
X109726162Y-48739935D01*
X109753164Y-48699524D01*
X109765472Y-48684528D01*
X109991413Y-48458587D01*
X109991421Y-48458579D01*
X110034776Y-48393694D01*
X110050000Y-48317157D01*
X110050000Y-48263034D01*
X110053373Y-48237412D01*
X110063230Y-48200624D01*
X110088851Y-48156244D01*
X110106244Y-48138851D01*
X110150623Y-48113230D01*
X110160732Y-48110521D01*
X110187413Y-48103373D01*
X110213035Y-48100000D01*
X110540248Y-48100000D01*
X110559561Y-48101902D01*
G37*
G04 #@! TD.AperFunction*
G04 #@! TA.AperFunction,Conductor*
G36*
X102612587Y-48103373D02*
G01*
X102649375Y-48113230D01*
X102693757Y-48138853D01*
X102711146Y-48156242D01*
X102736768Y-48200621D01*
X102746626Y-48237409D01*
X102750000Y-48263034D01*
X102750000Y-48317160D01*
X102765223Y-48393694D01*
X102794314Y-48437230D01*
X102809097Y-48472918D01*
X102814034Y-48497741D01*
X102869397Y-48580599D01*
X102869402Y-48580604D01*
X102952260Y-48635966D01*
X102964878Y-48638476D01*
X103015570Y-48665570D01*
X103034528Y-48684528D01*
X103046840Y-48699531D01*
X103073835Y-48739932D01*
X103088617Y-48775622D01*
X103091183Y-48788524D01*
X103092078Y-48821923D01*
X103086977Y-48857405D01*
X103084201Y-48876718D01*
X103080853Y-48900003D01*
X103087234Y-48944385D01*
X103076801Y-49004674D01*
X103071557Y-49013476D01*
X103046839Y-49050469D01*
X103034528Y-49065471D01*
X103015471Y-49084528D01*
X103000468Y-49096840D01*
X102960067Y-49123835D01*
X102924381Y-49138616D01*
X102876720Y-49148097D01*
X102857405Y-49150000D01*
X102342595Y-49150000D01*
X102323281Y-49148098D01*
X102307313Y-49144921D01*
X102275618Y-49138617D01*
X102239932Y-49123835D01*
X102199531Y-49096840D01*
X102184528Y-49084528D01*
X102115471Y-49015471D01*
X102103159Y-49000468D01*
X102076164Y-48960067D01*
X102061382Y-48924379D01*
X102051902Y-48876718D01*
X102050000Y-48857405D01*
X102050000Y-48309751D01*
X102051902Y-48290438D01*
X102057353Y-48263034D01*
X102061382Y-48242775D01*
X102076162Y-48207092D01*
X102097642Y-48174946D01*
X102124946Y-48147642D01*
X102157092Y-48126162D01*
X102192775Y-48111382D01*
X102233043Y-48103373D01*
X102240439Y-48101902D01*
X102259752Y-48100000D01*
X102586965Y-48100000D01*
X102612587Y-48103373D01*
G37*
G04 #@! TD.AperFunction*
G04 #@! TA.AperFunction,Conductor*
G36*
X90656433Y-56500847D02*
G01*
X90671739Y-56502862D01*
X90766489Y-56515336D01*
X90791447Y-56522023D01*
X90887960Y-56562000D01*
X90910336Y-56574918D01*
X90993216Y-56638515D01*
X91011484Y-56656783D01*
X91075079Y-56739660D01*
X91088001Y-56762042D01*
X91127975Y-56858548D01*
X91134664Y-56883512D01*
X91148653Y-56989768D01*
X91149500Y-57002690D01*
X91149500Y-61597308D01*
X91148653Y-61610230D01*
X91134664Y-61716487D01*
X91127975Y-61741451D01*
X91088001Y-61837957D01*
X91075079Y-61860339D01*
X91011487Y-61943213D01*
X90993213Y-61961487D01*
X90910339Y-62025079D01*
X90887957Y-62038001D01*
X90791451Y-62077975D01*
X90766487Y-62084664D01*
X90660232Y-62098653D01*
X90647310Y-62099500D01*
X79309797Y-62099500D01*
X79296875Y-62098653D01*
X79190619Y-62084664D01*
X79165655Y-62077975D01*
X79069147Y-62038000D01*
X79046766Y-62025078D01*
X78958706Y-61957507D01*
X78948969Y-61948969D01*
X78901030Y-61901030D01*
X78892492Y-61891293D01*
X78824921Y-61803233D01*
X78811999Y-61780852D01*
X78790691Y-61729410D01*
X78772023Y-61684340D01*
X78765336Y-61659382D01*
X78750847Y-61549325D01*
X78750000Y-61536404D01*
X78750000Y-60263595D01*
X78750847Y-60250674D01*
X78752511Y-60238030D01*
X78765336Y-60140615D01*
X78772022Y-60115661D01*
X78812002Y-60019141D01*
X78824918Y-59996771D01*
X78892499Y-59908697D01*
X78901022Y-59898977D01*
X78948977Y-59851022D01*
X78958697Y-59842499D01*
X79046771Y-59774918D01*
X79069141Y-59762002D01*
X79165661Y-59722022D01*
X79190615Y-59715336D01*
X79288030Y-59702511D01*
X79300674Y-59700847D01*
X79313595Y-59700000D01*
X83542892Y-59700000D01*
X83542893Y-59700000D01*
X83672303Y-59682963D01*
X83792893Y-59633013D01*
X83896447Y-59553553D01*
X85353553Y-58096447D01*
X85433013Y-57992893D01*
X85482963Y-57872303D01*
X85500000Y-57742893D01*
X85500000Y-57006488D01*
X85500847Y-56993567D01*
X85502511Y-56980923D01*
X85515336Y-56883508D01*
X85522022Y-56858554D01*
X85562001Y-56762035D01*
X85574916Y-56739666D01*
X85638518Y-56656779D01*
X85656779Y-56638518D01*
X85739666Y-56574916D01*
X85762035Y-56562001D01*
X85858554Y-56522022D01*
X85883508Y-56515336D01*
X85980923Y-56502511D01*
X85993567Y-56500847D01*
X86006488Y-56500000D01*
X90643512Y-56500000D01*
X90656433Y-56500847D01*
G37*
G04 #@! TD.AperFunction*
G04 #@! TA.AperFunction,Conductor*
G36*
X108168139Y-57051902D02*
G01*
X108177531Y-57053770D01*
X108213220Y-57068552D01*
X108221179Y-57073870D01*
X108236182Y-57086182D01*
X108303444Y-57153444D01*
X108315753Y-57168443D01*
X108319735Y-57174402D01*
X108319736Y-57174407D01*
X108319738Y-57174407D01*
X108341317Y-57206703D01*
X108356181Y-57216634D01*
X108371183Y-57228945D01*
X108420407Y-57278169D01*
X108447499Y-57328851D01*
X108448096Y-57331851D01*
X108450000Y-57351173D01*
X108450000Y-57980308D01*
X108442463Y-58018197D01*
X108436402Y-58032828D01*
X108396663Y-58079352D01*
X108382830Y-58086401D01*
X108375448Y-58089458D01*
X108368197Y-58092462D01*
X108330309Y-58100000D01*
X107949500Y-58100000D01*
X107891309Y-58081093D01*
X107855345Y-58031593D01*
X107850500Y-58001000D01*
X107850500Y-57240508D01*
X107869407Y-57182317D01*
X107879496Y-57170505D01*
X107963817Y-57086183D01*
X107978815Y-57073874D01*
X107986781Y-57068550D01*
X108022467Y-57053770D01*
X108031865Y-57051900D01*
X108051173Y-57050000D01*
X108148827Y-57050000D01*
X108168139Y-57051902D01*
G37*
G04 #@! TD.AperFunction*
G04 #@! TA.AperFunction,Conductor*
G36*
X96942778Y-56251071D02*
G01*
X96953141Y-56252609D01*
X96972455Y-56254511D01*
X96992595Y-56255500D01*
X97185056Y-56255500D01*
X97204369Y-56257402D01*
X97224379Y-56261382D01*
X97260066Y-56276163D01*
X97300470Y-56303161D01*
X97315471Y-56315471D01*
X97384528Y-56384528D01*
X97396840Y-56399531D01*
X97423835Y-56439932D01*
X97438616Y-56475618D01*
X97448097Y-56523279D01*
X97450000Y-56542594D01*
X97450000Y-57890248D01*
X97448097Y-57909563D01*
X97438616Y-57957224D01*
X97423835Y-57992910D01*
X97402362Y-58025047D01*
X97375047Y-58052362D01*
X97342910Y-58073835D01*
X97307224Y-58088616D01*
X97259563Y-58098097D01*
X97240248Y-58100000D01*
X96959752Y-58100000D01*
X96940438Y-58098098D01*
X96924470Y-58094921D01*
X96892775Y-58088617D01*
X96857089Y-58073835D01*
X96856330Y-58073328D01*
X96824949Y-58052359D01*
X96797640Y-58025050D01*
X96776163Y-57992908D01*
X96761382Y-57957222D01*
X96751902Y-57909561D01*
X96750000Y-57890248D01*
X96750000Y-57750001D01*
X96750000Y-57750000D01*
X96729904Y-57675000D01*
X96675000Y-57620096D01*
X96600000Y-57600000D01*
X96525000Y-57620096D01*
X96470096Y-57675000D01*
X96450000Y-57750001D01*
X96450000Y-57890248D01*
X96448097Y-57909563D01*
X96438616Y-57957224D01*
X96423835Y-57992910D01*
X96402362Y-58025047D01*
X96375047Y-58052362D01*
X96342910Y-58073835D01*
X96307224Y-58088616D01*
X96259563Y-58098097D01*
X96240248Y-58100000D01*
X95959752Y-58100000D01*
X95940438Y-58098098D01*
X95924470Y-58094921D01*
X95892775Y-58088617D01*
X95857089Y-58073835D01*
X95856330Y-58073328D01*
X95824949Y-58052359D01*
X95797640Y-58025050D01*
X95776163Y-57992908D01*
X95761382Y-57957222D01*
X95751902Y-57909561D01*
X95750000Y-57890248D01*
X95750000Y-56542594D01*
X95751902Y-56523281D01*
X95761382Y-56475620D01*
X95776162Y-56439935D01*
X95803164Y-56399524D01*
X95815466Y-56384533D01*
X95884533Y-56315466D01*
X95899524Y-56303164D01*
X95939935Y-56276162D01*
X95975618Y-56261382D01*
X96000864Y-56256360D01*
X96023282Y-56251902D01*
X96042595Y-56250000D01*
X96928251Y-56250000D01*
X96942778Y-56251071D01*
G37*
G04 #@! TD.AperFunction*
G04 #@! TA.AperFunction,Conductor*
G36*
X120717183Y-57068907D02*
G01*
X120728996Y-57078996D01*
X120821004Y-57171004D01*
X120848781Y-57225521D01*
X120850000Y-57241008D01*
X120850000Y-57358992D01*
X120831093Y-57417183D01*
X120821004Y-57428995D01*
X120450000Y-57799999D01*
X120450000Y-58001000D01*
X120431093Y-58059191D01*
X120381593Y-58095155D01*
X120351000Y-58100000D01*
X119849000Y-58100000D01*
X119790809Y-58081093D01*
X119754845Y-58031593D01*
X119750000Y-58001000D01*
X119750000Y-57800001D01*
X119750000Y-57800000D01*
X119749999Y-57800000D01*
X119450001Y-57800000D01*
X119450000Y-57800000D01*
X119450000Y-57800001D01*
X119450000Y-58001000D01*
X119431093Y-58059191D01*
X119381593Y-58095155D01*
X119351000Y-58100000D01*
X118849000Y-58100000D01*
X118790809Y-58081093D01*
X118754845Y-58031593D01*
X118750000Y-58001000D01*
X118750000Y-57800000D01*
X118749999Y-57799999D01*
X118378996Y-57428995D01*
X118351219Y-57374479D01*
X118350000Y-57358992D01*
X118350000Y-57241008D01*
X118368907Y-57182817D01*
X118378996Y-57171004D01*
X118471004Y-57078996D01*
X118525521Y-57051219D01*
X118541008Y-57050000D01*
X120658992Y-57050000D01*
X120717183Y-57068907D01*
G37*
G04 #@! TD.AperFunction*
G04 #@! TA.AperFunction,Conductor*
G36*
X104967183Y-52268907D02*
G01*
X104978996Y-52278996D01*
X105071004Y-52371004D01*
X105098781Y-52425521D01*
X105100000Y-52441008D01*
X105100000Y-52558992D01*
X105081093Y-52617183D01*
X105071004Y-52628995D01*
X104750000Y-52949999D01*
X104750000Y-53801000D01*
X104731093Y-53859191D01*
X104681593Y-53895155D01*
X104651000Y-53900000D01*
X104149000Y-53900000D01*
X104090809Y-53881093D01*
X104054845Y-53831593D01*
X104050000Y-53801000D01*
X104050000Y-52950000D01*
X104049999Y-52949999D01*
X103728996Y-52628995D01*
X103701219Y-52574479D01*
X103700000Y-52558992D01*
X103700000Y-52441008D01*
X103718907Y-52382817D01*
X103728996Y-52371004D01*
X103821004Y-52278996D01*
X103875521Y-52251219D01*
X103891008Y-52250000D01*
X104908992Y-52250000D01*
X104967183Y-52268907D01*
G37*
G04 #@! TD.AperFunction*
G04 #@! TA.AperFunction,Conductor*
G36*
X95559561Y-46801902D02*
G01*
X95607222Y-46811382D01*
X95642908Y-46826163D01*
X95675050Y-46847640D01*
X95702359Y-46874949D01*
X95723328Y-46906330D01*
X95723835Y-46907089D01*
X95738616Y-46942775D01*
X95748097Y-46990436D01*
X95750000Y-47009751D01*
X95750000Y-48317160D01*
X95765223Y-48393694D01*
X95808578Y-48458578D01*
X99984528Y-52634528D01*
X99996840Y-52649531D01*
X100023835Y-52689932D01*
X100038616Y-52725618D01*
X100048097Y-52773279D01*
X100050000Y-52792594D01*
X100050000Y-53767160D01*
X100065223Y-53843694D01*
X100108578Y-53908578D01*
X100784528Y-54584528D01*
X100796840Y-54599531D01*
X100823835Y-54639932D01*
X100838616Y-54675618D01*
X100847597Y-54720765D01*
X100849500Y-54740080D01*
X100849500Y-55219744D01*
X100849523Y-55219978D01*
X100849960Y-55228890D01*
X100850000Y-55229297D01*
X100862994Y-55294614D01*
X100862996Y-55294619D01*
X100896357Y-55344548D01*
X100900000Y-55350000D01*
X100955383Y-55387005D01*
X100977256Y-55391356D01*
X101020702Y-55399999D01*
X101020709Y-55399999D01*
X101020711Y-55400000D01*
X101020712Y-55400000D01*
X101021110Y-55400039D01*
X101030012Y-55400476D01*
X101030248Y-55400499D01*
X101030252Y-55400500D01*
X101030256Y-55400500D01*
X101769744Y-55400500D01*
X101769748Y-55400500D01*
X101769751Y-55400499D01*
X101769988Y-55400476D01*
X101779689Y-55400000D01*
X102020311Y-55400000D01*
X102030012Y-55400476D01*
X102030248Y-55400499D01*
X102030252Y-55400500D01*
X102030256Y-55400500D01*
X102659919Y-55400500D01*
X102679232Y-55402402D01*
X102724379Y-55411382D01*
X102760066Y-55426163D01*
X102800470Y-55453161D01*
X102815471Y-55465471D01*
X104384528Y-57034528D01*
X104396840Y-57049531D01*
X104423835Y-57089932D01*
X104438616Y-57125618D01*
X104448097Y-57173279D01*
X104450000Y-57192594D01*
X104450000Y-57936965D01*
X104446626Y-57962590D01*
X104436768Y-57999378D01*
X104411146Y-58043757D01*
X104393757Y-58061146D01*
X104349378Y-58086768D01*
X104312590Y-58096626D01*
X104286965Y-58100000D01*
X103959752Y-58100000D01*
X103940438Y-58098098D01*
X103924470Y-58094921D01*
X103892775Y-58088617D01*
X103857089Y-58073835D01*
X103856330Y-58073328D01*
X103824949Y-58052359D01*
X103797640Y-58025050D01*
X103776163Y-57992908D01*
X103761382Y-57957222D01*
X103751902Y-57909561D01*
X103750000Y-57890248D01*
X103750000Y-57800001D01*
X103750000Y-57800000D01*
X103729904Y-57725000D01*
X103675000Y-57670096D01*
X103600000Y-57650000D01*
X103525000Y-57670096D01*
X103470096Y-57725000D01*
X103450000Y-57800001D01*
X103450000Y-57890248D01*
X103448097Y-57909563D01*
X103438616Y-57957224D01*
X103423835Y-57992910D01*
X103402362Y-58025047D01*
X103375047Y-58052362D01*
X103342910Y-58073835D01*
X103307224Y-58088616D01*
X103259563Y-58098097D01*
X103240248Y-58100000D01*
X102913035Y-58100000D01*
X102887411Y-58096626D01*
X102850622Y-58086768D01*
X102806242Y-58061146D01*
X102788853Y-58043757D01*
X102763230Y-57999375D01*
X102753373Y-57962587D01*
X102750000Y-57936965D01*
X102750000Y-57882844D01*
X102749999Y-57882839D01*
X102734776Y-57806305D01*
X102691421Y-57741421D01*
X102558578Y-57608578D01*
X102493693Y-57565223D01*
X102493694Y-57565223D01*
X102417160Y-57550000D01*
X102417157Y-57550000D01*
X101959752Y-57550000D01*
X101940438Y-57548098D01*
X101924470Y-57544921D01*
X101892775Y-57538617D01*
X101857089Y-57523835D01*
X101856330Y-57523328D01*
X101824949Y-57502359D01*
X101797640Y-57475050D01*
X101776163Y-57442908D01*
X101761382Y-57407222D01*
X101751902Y-57359561D01*
X101750000Y-57340248D01*
X101750000Y-57182844D01*
X101749999Y-57182839D01*
X101748097Y-57173279D01*
X101734776Y-57106306D01*
X101734776Y-57106305D01*
X101691421Y-57041421D01*
X101508578Y-56858578D01*
X101443693Y-56815223D01*
X101443694Y-56815223D01*
X101367160Y-56800000D01*
X101367157Y-56800000D01*
X98242595Y-56800000D01*
X98223281Y-56798098D01*
X98207313Y-56794921D01*
X98175618Y-56788617D01*
X98139932Y-56773835D01*
X98099531Y-56746840D01*
X98084528Y-56734528D01*
X97458578Y-56108578D01*
X97393693Y-56065223D01*
X97393694Y-56065223D01*
X97317160Y-56050000D01*
X97317157Y-56050000D01*
X96992595Y-56050000D01*
X96973281Y-56048098D01*
X96957313Y-56044921D01*
X96925618Y-56038617D01*
X96889932Y-56023835D01*
X96849531Y-55996840D01*
X96834528Y-55984528D01*
X96115471Y-55265471D01*
X96103159Y-55250468D01*
X96082786Y-55219978D01*
X96082631Y-55219746D01*
X97849500Y-55219746D01*
X97849501Y-55219758D01*
X97861132Y-55278227D01*
X97861134Y-55278233D01*
X97905445Y-55344548D01*
X97905448Y-55344552D01*
X97971769Y-55388867D01*
X98016231Y-55397711D01*
X98030241Y-55400498D01*
X98030246Y-55400498D01*
X98030252Y-55400500D01*
X98660848Y-55400500D01*
X98703581Y-55413047D01*
X98704488Y-55411062D01*
X98710925Y-55414001D01*
X98710927Y-55414001D01*
X98710931Y-55414004D01*
X98759684Y-55428318D01*
X98764416Y-55429840D01*
X98815301Y-55447646D01*
X98815304Y-55447646D01*
X98818440Y-55448240D01*
X98828170Y-55449825D01*
X98828219Y-55449492D01*
X98835228Y-55450500D01*
X98889700Y-55450500D01*
X98893402Y-55450569D01*
X98894768Y-55450620D01*
X98951010Y-55452725D01*
X98951016Y-55452723D01*
X98953541Y-55452439D01*
X98958837Y-55451353D01*
X98964767Y-55450500D01*
X98964772Y-55450500D01*
X99020655Y-55434091D01*
X99022819Y-55433483D01*
X99082187Y-55417576D01*
X99082194Y-55417571D01*
X99084859Y-55416409D01*
X99087764Y-55414842D01*
X99089067Y-55414004D01*
X99089069Y-55414004D01*
X99141319Y-55380424D01*
X99141915Y-55380044D01*
X99197175Y-55345324D01*
X99240879Y-55294536D01*
X99240992Y-55294407D01*
X99279065Y-55250468D01*
X99282882Y-55246063D01*
X99282882Y-55246061D01*
X99284942Y-55243685D01*
X99285753Y-55242393D01*
X99285758Y-55242388D01*
X99311052Y-55184410D01*
X99311721Y-55182912D01*
X99336697Y-55128226D01*
X99336698Y-55128213D01*
X99337259Y-55126308D01*
X99339380Y-55120471D01*
X99340063Y-55117920D01*
X99340065Y-55117916D01*
X99346729Y-55058754D01*
X99347104Y-55055836D01*
X99355133Y-55000000D01*
X99355133Y-54999997D01*
X99355133Y-54992914D01*
X99355750Y-54992914D01*
X99355710Y-54990371D01*
X99355547Y-54990378D01*
X99355270Y-54982963D01*
X99344903Y-54928172D01*
X99344189Y-54923885D01*
X99336697Y-54871774D01*
X99336695Y-54871771D01*
X99334702Y-54864980D01*
X99334770Y-54864959D01*
X99330256Y-54850757D01*
X99330024Y-54849529D01*
X99305712Y-54803529D01*
X99303187Y-54798398D01*
X99299916Y-54791237D01*
X99282882Y-54753937D01*
X99281625Y-54752486D01*
X99268921Y-54733919D01*
X99266566Y-54729463D01*
X99257868Y-54720765D01*
X99232434Y-54695330D01*
X99227619Y-54690158D01*
X99198051Y-54656034D01*
X99193253Y-54652951D01*
X99176775Y-54639672D01*
X98979496Y-54442393D01*
X98951719Y-54387876D01*
X98950500Y-54372389D01*
X98950500Y-53580253D01*
X98950498Y-53580241D01*
X98942776Y-53541421D01*
X98938867Y-53521769D01*
X98894552Y-53455448D01*
X98844499Y-53422003D01*
X98828233Y-53411134D01*
X98828231Y-53411133D01*
X98828228Y-53411132D01*
X98828227Y-53411132D01*
X98769758Y-53399501D01*
X98769748Y-53399500D01*
X98030252Y-53399500D01*
X98030251Y-53399500D01*
X98030241Y-53399501D01*
X97971772Y-53411132D01*
X97971766Y-53411134D01*
X97905451Y-53455445D01*
X97905445Y-53455451D01*
X97861134Y-53521766D01*
X97861132Y-53521772D01*
X97849501Y-53580241D01*
X97849500Y-53580253D01*
X97849500Y-55219746D01*
X96082631Y-55219746D01*
X96076163Y-55210066D01*
X96061382Y-55174379D01*
X96051902Y-55126718D01*
X96050000Y-55107405D01*
X96050000Y-53682844D01*
X96049999Y-53682839D01*
X96034776Y-53606305D01*
X95991421Y-53541421D01*
X95115471Y-52665471D01*
X95103159Y-52650468D01*
X95092508Y-52634528D01*
X95076163Y-52610066D01*
X95061382Y-52574379D01*
X95051902Y-52526718D01*
X95050000Y-52507405D01*
X95050000Y-47009751D01*
X95051902Y-46990438D01*
X95061382Y-46942777D01*
X95076162Y-46907092D01*
X95097642Y-46874946D01*
X95124946Y-46847642D01*
X95157092Y-46826162D01*
X95192775Y-46811382D01*
X95218021Y-46806360D01*
X95240439Y-46801902D01*
X95259752Y-46800000D01*
X95540248Y-46800000D01*
X95559561Y-46801902D01*
G37*
G04 #@! TD.AperFunction*
G04 #@! TA.AperFunction,Conductor*
G36*
X116717183Y-57068907D02*
G01*
X116728996Y-57078996D01*
X116821004Y-57171004D01*
X116848781Y-57225521D01*
X116850000Y-57241008D01*
X116850000Y-57358992D01*
X116831093Y-57417183D01*
X116821004Y-57428995D01*
X116450000Y-57799999D01*
X116450000Y-58001000D01*
X116431093Y-58059191D01*
X116381593Y-58095155D01*
X116351000Y-58100000D01*
X115849000Y-58100000D01*
X115790809Y-58081093D01*
X115754845Y-58031593D01*
X115750000Y-58001000D01*
X115750000Y-57800001D01*
X115750000Y-57800000D01*
X115500000Y-57550000D01*
X115499999Y-57550000D01*
X114700001Y-57550000D01*
X114700000Y-57550000D01*
X114450000Y-57800000D01*
X114450000Y-57800001D01*
X114450000Y-58001000D01*
X114431093Y-58059191D01*
X114381593Y-58095155D01*
X114351000Y-58100000D01*
X113849000Y-58100000D01*
X113790809Y-58081093D01*
X113754845Y-58031593D01*
X113750000Y-58001000D01*
X113750000Y-57800000D01*
X113749999Y-57799999D01*
X113378996Y-57428995D01*
X113351219Y-57374479D01*
X113350000Y-57358992D01*
X113350000Y-57241008D01*
X113368907Y-57182817D01*
X113378996Y-57171004D01*
X113471004Y-57078996D01*
X113525521Y-57051219D01*
X113541008Y-57050000D01*
X116658992Y-57050000D01*
X116717183Y-57068907D01*
G37*
G04 #@! TD.AperFunction*
G04 #@! TA.AperFunction,Conductor*
G36*
X86340277Y-44900338D02*
G01*
X86342233Y-44900500D01*
X90247310Y-44900500D01*
X90260231Y-44901347D01*
X90273249Y-44903060D01*
X90366489Y-44915336D01*
X90391447Y-44922023D01*
X90487960Y-44962000D01*
X90510336Y-44974918D01*
X90593216Y-45038515D01*
X90611484Y-45056783D01*
X90675079Y-45139660D01*
X90688001Y-45162042D01*
X90727975Y-45258548D01*
X90734664Y-45283512D01*
X90749153Y-45393566D01*
X90750000Y-45406488D01*
X90750000Y-45800000D01*
X88050000Y-45800000D01*
X88050000Y-51600000D01*
X89050000Y-52600000D01*
X89050000Y-54200000D01*
X90750000Y-54200000D01*
X90750000Y-55693511D01*
X90749153Y-55706433D01*
X90734664Y-55816487D01*
X90727975Y-55841451D01*
X90688001Y-55937957D01*
X90675079Y-55960339D01*
X90611487Y-56043213D01*
X90593213Y-56061487D01*
X90510339Y-56125079D01*
X90487957Y-56138001D01*
X90391451Y-56177975D01*
X90366487Y-56184664D01*
X90256434Y-56199153D01*
X90243512Y-56200000D01*
X84863595Y-56200000D01*
X84850673Y-56199153D01*
X84740619Y-56184664D01*
X84715655Y-56177975D01*
X84619147Y-56138000D01*
X84596766Y-56125078D01*
X84508706Y-56057507D01*
X84498969Y-56048969D01*
X83669746Y-55219746D01*
X87849500Y-55219746D01*
X87849501Y-55219758D01*
X87861132Y-55278227D01*
X87861133Y-55278231D01*
X87905448Y-55344552D01*
X87971769Y-55388867D01*
X88016231Y-55397711D01*
X88030241Y-55400498D01*
X88030246Y-55400498D01*
X88030252Y-55400500D01*
X88030253Y-55400500D01*
X88769747Y-55400500D01*
X88769748Y-55400500D01*
X88828231Y-55388867D01*
X88894552Y-55344552D01*
X88938867Y-55278231D01*
X88950500Y-55219748D01*
X88950500Y-53580252D01*
X88950098Y-53578233D01*
X88947711Y-53566231D01*
X88938867Y-53521769D01*
X88894552Y-53455448D01*
X88894548Y-53455445D01*
X88828233Y-53411134D01*
X88828231Y-53411133D01*
X88828228Y-53411132D01*
X88828227Y-53411132D01*
X88769758Y-53399501D01*
X88769748Y-53399500D01*
X88030252Y-53399500D01*
X88030251Y-53399500D01*
X88030241Y-53399501D01*
X87971772Y-53411132D01*
X87971766Y-53411134D01*
X87905451Y-53455445D01*
X87905445Y-53455451D01*
X87861134Y-53521766D01*
X87861132Y-53521772D01*
X87849501Y-53580241D01*
X87849500Y-53580253D01*
X87849500Y-55219746D01*
X83669746Y-55219746D01*
X81969746Y-53519746D01*
X83699500Y-53519746D01*
X83699501Y-53519758D01*
X83711132Y-53578227D01*
X83711133Y-53578231D01*
X83755448Y-53644552D01*
X83821769Y-53688867D01*
X83866231Y-53697711D01*
X83880241Y-53700498D01*
X83880246Y-53700498D01*
X83880252Y-53700500D01*
X83880253Y-53700500D01*
X86919747Y-53700500D01*
X86919748Y-53700500D01*
X86978231Y-53688867D01*
X87044552Y-53644552D01*
X87088867Y-53578231D01*
X87100500Y-53519748D01*
X87100500Y-48480252D01*
X87088867Y-48421769D01*
X87044552Y-48355448D01*
X87044548Y-48355445D01*
X86978233Y-48311134D01*
X86978231Y-48311133D01*
X86978228Y-48311132D01*
X86978227Y-48311132D01*
X86919758Y-48299501D01*
X86919748Y-48299500D01*
X83880252Y-48299500D01*
X83880251Y-48299500D01*
X83880241Y-48299501D01*
X83821772Y-48311132D01*
X83821766Y-48311134D01*
X83755451Y-48355445D01*
X83755445Y-48355451D01*
X83711134Y-48421766D01*
X83711132Y-48421772D01*
X83699501Y-48480241D01*
X83699500Y-48480253D01*
X83699500Y-53519746D01*
X81969746Y-53519746D01*
X80851030Y-52401030D01*
X80842492Y-52391293D01*
X80774921Y-52303233D01*
X80761999Y-52280852D01*
X80722023Y-52184340D01*
X80715336Y-52159382D01*
X80700847Y-52049325D01*
X80700000Y-52036404D01*
X80700000Y-50291422D01*
X80700000Y-50291421D01*
X80674011Y-50160765D01*
X80600000Y-50050000D01*
X80489235Y-49975989D01*
X80358579Y-49950000D01*
X75657105Y-49950000D01*
X75527700Y-49967036D01*
X75527692Y-49967038D01*
X75407109Y-50016985D01*
X75407105Y-50016987D01*
X75303559Y-50096441D01*
X74296441Y-51103559D01*
X74216987Y-51207105D01*
X74216985Y-51207109D01*
X74167038Y-51327692D01*
X74167036Y-51327700D01*
X74150000Y-51457105D01*
X74150000Y-54936404D01*
X74149153Y-54949326D01*
X74134664Y-55059380D01*
X74127975Y-55084344D01*
X74088000Y-55180852D01*
X74075078Y-55203233D01*
X74007507Y-55291293D01*
X73998969Y-55301030D01*
X73851030Y-55448969D01*
X73841293Y-55457507D01*
X73753233Y-55525078D01*
X73730852Y-55538000D01*
X73634344Y-55577975D01*
X73609380Y-55584664D01*
X73499327Y-55599153D01*
X73486405Y-55600000D01*
X66113595Y-55600000D01*
X66100673Y-55599153D01*
X65990619Y-55584664D01*
X65965655Y-55577975D01*
X65869147Y-55538000D01*
X65846766Y-55525078D01*
X65758706Y-55457507D01*
X65748969Y-55448969D01*
X65601030Y-55301030D01*
X65592492Y-55291293D01*
X65524921Y-55203233D01*
X65511999Y-55180852D01*
X65472023Y-55084340D01*
X65465336Y-55059382D01*
X65450847Y-54949325D01*
X65450000Y-54936404D01*
X65450000Y-47663595D01*
X65450847Y-47650674D01*
X65452511Y-47638030D01*
X65465336Y-47540615D01*
X65472022Y-47515661D01*
X65512002Y-47419141D01*
X65524918Y-47396771D01*
X65592499Y-47308697D01*
X65601022Y-47298977D01*
X67848977Y-45051022D01*
X67858697Y-45042499D01*
X67946771Y-44974918D01*
X67969141Y-44962002D01*
X68065661Y-44922022D01*
X68090615Y-44915336D01*
X68186158Y-44902757D01*
X68196876Y-44901347D01*
X68209797Y-44900500D01*
X82557767Y-44900500D01*
X82559723Y-44900338D01*
X82567894Y-44900000D01*
X86332106Y-44900000D01*
X86340277Y-44900338D01*
G37*
G04 #@! TD.AperFunction*
G04 #@! TA.AperFunction,Conductor*
G36*
X90750000Y-54200000D02*
G01*
X90550000Y-54200000D01*
X89250000Y-54200000D01*
X89050000Y-54200000D01*
X89050000Y-52682843D01*
X89034776Y-52606306D01*
X88991421Y-52541421D01*
X88108579Y-51658579D01*
X88050000Y-51600000D01*
X88050000Y-45800000D01*
X90750000Y-45800000D01*
X90750000Y-54200000D01*
G37*
G04 #@! TD.AperFunction*
G04 #@! TA.AperFunction,Conductor*
G36*
X118559561Y-48101902D02*
G01*
X118607222Y-48111382D01*
X118642908Y-48126163D01*
X118675050Y-48147640D01*
X118702359Y-48174949D01*
X118719515Y-48200624D01*
X118723835Y-48207089D01*
X118738616Y-48242775D01*
X118748097Y-48290436D01*
X118750000Y-48309751D01*
X118750000Y-48857405D01*
X118748097Y-48876720D01*
X118738616Y-48924381D01*
X118723835Y-48960067D01*
X118696840Y-49000468D01*
X118684528Y-49015471D01*
X118615471Y-49084528D01*
X118600468Y-49096840D01*
X118560067Y-49123835D01*
X118524381Y-49138616D01*
X118476720Y-49148097D01*
X118457405Y-49150000D01*
X117942595Y-49150000D01*
X117923281Y-49148098D01*
X117907313Y-49144921D01*
X117875618Y-49138617D01*
X117839932Y-49123835D01*
X117799531Y-49096840D01*
X117784528Y-49084528D01*
X117765471Y-49065471D01*
X117753160Y-49050469D01*
X117728442Y-49013476D01*
X117711833Y-48954587D01*
X117712763Y-48944397D01*
X117719147Y-48900000D01*
X117707921Y-48821921D01*
X117708815Y-48788521D01*
X117711383Y-48775615D01*
X117726162Y-48739935D01*
X117753166Y-48699521D01*
X117765463Y-48684536D01*
X117784432Y-48665567D01*
X117835120Y-48638476D01*
X117847740Y-48635966D01*
X117889451Y-48608095D01*
X117930597Y-48580604D01*
X117930597Y-48580603D01*
X117930601Y-48580601D01*
X117985966Y-48497740D01*
X117990903Y-48472915D01*
X118005685Y-48437231D01*
X118034776Y-48393694D01*
X118050000Y-48317157D01*
X118050000Y-48263034D01*
X118053373Y-48237412D01*
X118063230Y-48200624D01*
X118088851Y-48156244D01*
X118106244Y-48138851D01*
X118150623Y-48113230D01*
X118160732Y-48110521D01*
X118187413Y-48103373D01*
X118213035Y-48100000D01*
X118540248Y-48100000D01*
X118559561Y-48101902D01*
G37*
G04 #@! TD.AperFunction*
G04 #@! TA.AperFunction,Conductor*
G36*
X111717183Y-57068907D02*
G01*
X111728996Y-57078996D01*
X111821004Y-57171004D01*
X111848781Y-57225521D01*
X111850000Y-57241008D01*
X111850000Y-57358992D01*
X111831093Y-57417183D01*
X111821004Y-57428995D01*
X111450000Y-57799999D01*
X111450000Y-57951000D01*
X111431093Y-58009191D01*
X111381593Y-58045155D01*
X111351000Y-58050000D01*
X110849000Y-58050000D01*
X110790809Y-58031093D01*
X110754845Y-57981593D01*
X110750000Y-57951000D01*
X110750000Y-57641008D01*
X110768907Y-57582817D01*
X110778996Y-57571004D01*
X111271004Y-57078996D01*
X111325521Y-57051219D01*
X111341008Y-57050000D01*
X111658992Y-57050000D01*
X111717183Y-57068907D01*
G37*
G04 #@! TD.AperFunction*
G04 #@! TA.AperFunction,Conductor*
G36*
X124717183Y-57068907D02*
G01*
X124728996Y-57078996D01*
X124821004Y-57171004D01*
X124848781Y-57225521D01*
X124850000Y-57241008D01*
X124850000Y-57358992D01*
X124831093Y-57417183D01*
X124821004Y-57428995D01*
X124450000Y-57799999D01*
X124450000Y-58001000D01*
X124431093Y-58059191D01*
X124381593Y-58095155D01*
X124351000Y-58100000D01*
X123849000Y-58100000D01*
X123790809Y-58081093D01*
X123754845Y-58031593D01*
X123750000Y-58001000D01*
X123750000Y-57800001D01*
X123750000Y-57800000D01*
X123749999Y-57800000D01*
X123450001Y-57800000D01*
X123450000Y-57800000D01*
X123450000Y-57800001D01*
X123450000Y-58001000D01*
X123431093Y-58059191D01*
X123381593Y-58095155D01*
X123351000Y-58100000D01*
X122849000Y-58100000D01*
X122790809Y-58081093D01*
X122754845Y-58031593D01*
X122750000Y-58001000D01*
X122750000Y-57800000D01*
X122749999Y-57799999D01*
X122378996Y-57428995D01*
X122351219Y-57374479D01*
X122350000Y-57358992D01*
X122350000Y-57241008D01*
X122368907Y-57182817D01*
X122378996Y-57171004D01*
X122471004Y-57078996D01*
X122525521Y-57051219D01*
X122541008Y-57050000D01*
X124658992Y-57050000D01*
X124717183Y-57068907D01*
G37*
G04 #@! TD.AperFunction*
G04 #@! TA.AperFunction,Conductor*
G36*
X127717183Y-57068907D02*
G01*
X127728996Y-57078996D01*
X127821004Y-57171004D01*
X127848781Y-57225521D01*
X127850000Y-57241008D01*
X127850000Y-57358992D01*
X127831093Y-57417183D01*
X127821004Y-57428995D01*
X127450000Y-57799999D01*
X127450000Y-58001000D01*
X127431093Y-58059191D01*
X127381593Y-58095155D01*
X127351000Y-58100000D01*
X126849000Y-58100000D01*
X126790809Y-58081093D01*
X126754845Y-58031593D01*
X126750000Y-58001000D01*
X126750000Y-57800000D01*
X126749999Y-57799999D01*
X126378996Y-57428995D01*
X126351219Y-57374479D01*
X126350000Y-57358992D01*
X126350000Y-57241008D01*
X126368907Y-57182817D01*
X126378996Y-57171004D01*
X126471004Y-57078996D01*
X126525521Y-57051219D01*
X126541008Y-57050000D01*
X127658992Y-57050000D01*
X127717183Y-57068907D01*
G37*
G04 #@! TD.AperFunction*
G04 #@! TA.AperFunction,Conductor*
G36*
X109567183Y-52268907D02*
G01*
X109578996Y-52278996D01*
X109721004Y-52421004D01*
X109748781Y-52475521D01*
X109750000Y-52491008D01*
X109750000Y-53801000D01*
X109731093Y-53859191D01*
X109681593Y-53895155D01*
X109651000Y-53900000D01*
X109149000Y-53900000D01*
X109090809Y-53881093D01*
X109054845Y-53831593D01*
X109050000Y-53801000D01*
X109050000Y-53600001D01*
X109050000Y-53600000D01*
X108750000Y-53300000D01*
X108749999Y-53300000D01*
X108050001Y-53300000D01*
X108050000Y-53300000D01*
X107750000Y-53600000D01*
X107750000Y-53600001D01*
X107750000Y-53801000D01*
X107731093Y-53859191D01*
X107681593Y-53895155D01*
X107651000Y-53900000D01*
X107149000Y-53900000D01*
X107090809Y-53881093D01*
X107054845Y-53831593D01*
X107050000Y-53801000D01*
X107050000Y-52950000D01*
X107049999Y-52949999D01*
X106728996Y-52628995D01*
X106701219Y-52574479D01*
X106700000Y-52558992D01*
X106700000Y-52441008D01*
X106718907Y-52382817D01*
X106728996Y-52371004D01*
X106821004Y-52278996D01*
X106875521Y-52251219D01*
X106891008Y-52250000D01*
X109508992Y-52250000D01*
X109567183Y-52268907D01*
G37*
G04 #@! TD.AperFunction*
G04 #@! TA.AperFunction,Conductor*
G36*
X114559561Y-48101902D02*
G01*
X114607222Y-48111382D01*
X114642908Y-48126163D01*
X114675050Y-48147640D01*
X114702359Y-48174949D01*
X114719513Y-48200621D01*
X114723835Y-48207089D01*
X114738616Y-48242775D01*
X114748097Y-48290436D01*
X114750000Y-48309751D01*
X114750000Y-48450000D01*
X114770096Y-48525000D01*
X114825000Y-48579904D01*
X114900000Y-48600000D01*
X114975000Y-48579904D01*
X115029904Y-48525000D01*
X115050000Y-48450000D01*
X115050000Y-48309751D01*
X115051902Y-48290438D01*
X115057353Y-48263034D01*
X115061382Y-48242775D01*
X115076162Y-48207092D01*
X115097642Y-48174946D01*
X115124946Y-48147642D01*
X115157092Y-48126162D01*
X115192775Y-48111382D01*
X115233043Y-48103373D01*
X115240439Y-48101902D01*
X115259752Y-48100000D01*
X115586965Y-48100000D01*
X115612587Y-48103373D01*
X115649375Y-48113230D01*
X115693757Y-48138853D01*
X115711146Y-48156242D01*
X115736768Y-48200621D01*
X115746626Y-48237409D01*
X115750000Y-48263034D01*
X115750000Y-48317160D01*
X115765223Y-48393694D01*
X115808578Y-48458578D01*
X116034528Y-48684528D01*
X116046840Y-48699531D01*
X116073835Y-48739932D01*
X116088616Y-48775618D01*
X116098097Y-48823279D01*
X116100000Y-48842594D01*
X116100000Y-48969535D01*
X116098097Y-48988851D01*
X116090845Y-49025305D01*
X116076064Y-49060990D01*
X116060940Y-49083625D01*
X116033625Y-49110940D01*
X116010990Y-49126064D01*
X115975306Y-49140845D01*
X115938853Y-49148097D01*
X115919536Y-49150000D01*
X113880464Y-49150000D01*
X113861148Y-49148097D01*
X113824694Y-49140845D01*
X113789009Y-49126064D01*
X113766374Y-49110940D01*
X113739059Y-49083625D01*
X113723935Y-49060990D01*
X113709153Y-49025303D01*
X113701902Y-48988849D01*
X113700000Y-48969535D01*
X113700000Y-48842594D01*
X113701902Y-48823281D01*
X113711382Y-48775620D01*
X113726162Y-48739935D01*
X113753164Y-48699524D01*
X113765472Y-48684528D01*
X113991413Y-48458587D01*
X113991421Y-48458579D01*
X114034776Y-48393694D01*
X114050000Y-48317157D01*
X114050000Y-48263034D01*
X114053373Y-48237412D01*
X114063230Y-48200624D01*
X114088851Y-48156244D01*
X114106244Y-48138851D01*
X114150623Y-48113230D01*
X114160732Y-48110521D01*
X114187413Y-48103373D01*
X114213035Y-48100000D01*
X114540248Y-48100000D01*
X114559561Y-48101902D01*
G37*
G04 #@! TD.AperFunction*
G04 #@! TA.AperFunction,Conductor*
G36*
X101967183Y-52268907D02*
G01*
X101978996Y-52278996D01*
X102071004Y-52371004D01*
X102098781Y-52425521D01*
X102100000Y-52441008D01*
X102100000Y-52558992D01*
X102081093Y-52617183D01*
X102071004Y-52628995D01*
X101750000Y-52949999D01*
X101750000Y-53801000D01*
X101731093Y-53859191D01*
X101681593Y-53895155D01*
X101651000Y-53900000D01*
X101149000Y-53900000D01*
X101090809Y-53881093D01*
X101054845Y-53831593D01*
X101050000Y-53801000D01*
X101050000Y-52841008D01*
X101068907Y-52782817D01*
X101078996Y-52771004D01*
X101571004Y-52278996D01*
X101625521Y-52251219D01*
X101641008Y-52250000D01*
X101908992Y-52250000D01*
X101967183Y-52268907D01*
G37*
G04 #@! TD.AperFunction*
G04 #@! TA.AperFunction,Conductor*
G36*
X79956433Y-50200847D02*
G01*
X79971739Y-50202862D01*
X80066489Y-50215336D01*
X80091447Y-50222023D01*
X80187960Y-50262000D01*
X80210336Y-50274918D01*
X80293216Y-50338515D01*
X80311484Y-50356783D01*
X80375079Y-50439660D01*
X80388001Y-50462042D01*
X80427975Y-50558548D01*
X80434664Y-50583512D01*
X80449153Y-50693566D01*
X80450000Y-50706488D01*
X80450000Y-52192894D01*
X80467036Y-52322299D01*
X80467038Y-52322307D01*
X80516985Y-52442890D01*
X80516987Y-52442894D01*
X80596441Y-52546440D01*
X80596443Y-52546442D01*
X80596447Y-52546447D01*
X83192892Y-55142892D01*
X84848969Y-56798969D01*
X84857507Y-56808706D01*
X84925078Y-56896766D01*
X84938000Y-56919147D01*
X84977975Y-57015655D01*
X84984664Y-57040619D01*
X84999153Y-57150673D01*
X85000000Y-57163595D01*
X85000000Y-57736404D01*
X84999153Y-57749326D01*
X84984664Y-57859380D01*
X84977975Y-57884344D01*
X84938000Y-57980852D01*
X84925078Y-58003233D01*
X84857507Y-58091293D01*
X84848969Y-58101030D01*
X83701030Y-59248969D01*
X83691293Y-59257507D01*
X83603233Y-59325078D01*
X83580852Y-59338000D01*
X83484344Y-59377975D01*
X83459380Y-59384664D01*
X83349327Y-59399153D01*
X83336405Y-59400000D01*
X78657105Y-59400000D01*
X78527700Y-59417036D01*
X78527692Y-59417038D01*
X78407109Y-59466985D01*
X78407105Y-59466987D01*
X78303559Y-59546441D01*
X78296441Y-59553559D01*
X78216987Y-59657105D01*
X78216985Y-59657109D01*
X78167038Y-59777692D01*
X78167036Y-59777700D01*
X78150000Y-59907105D01*
X78150000Y-61748827D01*
X78148098Y-61768142D01*
X78127852Y-61869922D01*
X78113070Y-61905608D01*
X78060941Y-61983626D01*
X78033626Y-62010941D01*
X77955608Y-62063070D01*
X77919922Y-62077852D01*
X77851026Y-62091556D01*
X77820653Y-62097598D01*
X77801341Y-62099500D01*
X66502690Y-62099500D01*
X66489768Y-62098653D01*
X66383512Y-62084664D01*
X66358548Y-62077975D01*
X66262042Y-62038001D01*
X66239660Y-62025079D01*
X66156783Y-61961484D01*
X66138515Y-61943216D01*
X66074918Y-61860336D01*
X66062000Y-61837960D01*
X66022023Y-61741447D01*
X66015336Y-61716489D01*
X66000847Y-61606432D01*
X66000000Y-61593511D01*
X66000000Y-58400002D01*
X77094867Y-58400002D01*
X77113302Y-58528225D01*
X77167117Y-58646061D01*
X77167118Y-58646063D01*
X77251951Y-58743967D01*
X77251952Y-58743968D01*
X77360926Y-58814001D01*
X77360931Y-58814004D01*
X77485228Y-58850500D01*
X77485230Y-58850500D01*
X77614770Y-58850500D01*
X77614772Y-58850500D01*
X77739069Y-58814004D01*
X77848049Y-58743967D01*
X77932882Y-58646063D01*
X77978043Y-58547174D01*
X77998090Y-58518301D01*
X78055484Y-58460909D01*
X78055485Y-58460906D01*
X78061124Y-58455268D01*
X78061127Y-58455263D01*
X78078050Y-58438342D01*
X78089004Y-58416841D01*
X78097110Y-58403613D01*
X78111296Y-58384089D01*
X78118750Y-58361146D01*
X78124691Y-58346802D01*
X78135646Y-58325304D01*
X78139421Y-58301467D01*
X78143046Y-58286371D01*
X78150500Y-58263433D01*
X78150500Y-58136567D01*
X78150500Y-53529021D01*
X78159447Y-53487894D01*
X78186697Y-53428226D01*
X78205133Y-53300000D01*
X78186697Y-53171774D01*
X78132882Y-53053937D01*
X78048049Y-52956033D01*
X78048048Y-52956032D01*
X78048047Y-52956031D01*
X77939073Y-52885998D01*
X77939070Y-52885996D01*
X77939069Y-52885996D01*
X77939066Y-52885995D01*
X77814774Y-52849500D01*
X77814772Y-52849500D01*
X77685228Y-52849500D01*
X77685225Y-52849500D01*
X77560933Y-52885995D01*
X77560926Y-52885998D01*
X77451952Y-52956031D01*
X77367117Y-53053938D01*
X77313302Y-53171774D01*
X77294867Y-53299997D01*
X77294867Y-53300002D01*
X77313302Y-53428224D01*
X77340553Y-53487894D01*
X77349500Y-53529021D01*
X77349500Y-57939284D01*
X77330593Y-57997475D01*
X77304023Y-58022568D01*
X77251952Y-58056031D01*
X77167117Y-58153938D01*
X77113302Y-58271774D01*
X77094867Y-58399997D01*
X77094867Y-58400002D01*
X66000000Y-58400002D01*
X66000000Y-56406488D01*
X66000847Y-56393567D01*
X66002511Y-56380923D01*
X66015336Y-56283508D01*
X66022022Y-56258554D01*
X66062001Y-56162035D01*
X66074916Y-56139666D01*
X66138518Y-56056779D01*
X66156779Y-56038518D01*
X66239666Y-55974916D01*
X66262035Y-55962001D01*
X66358554Y-55922022D01*
X66383508Y-55915336D01*
X66480923Y-55902511D01*
X66493567Y-55900847D01*
X66506488Y-55900000D01*
X73642892Y-55900000D01*
X73642893Y-55900000D01*
X73772303Y-55882963D01*
X73892893Y-55833013D01*
X73996447Y-55753553D01*
X74253553Y-55496447D01*
X74333013Y-55392893D01*
X74382963Y-55272303D01*
X74400000Y-55142893D01*
X74400000Y-51613595D01*
X74400847Y-51600674D01*
X74402511Y-51588030D01*
X74415336Y-51490615D01*
X74422022Y-51465661D01*
X74462002Y-51369141D01*
X74474918Y-51346771D01*
X74542499Y-51258697D01*
X74551022Y-51248977D01*
X75448977Y-50351022D01*
X75458697Y-50342499D01*
X75546771Y-50274918D01*
X75569141Y-50262002D01*
X75665661Y-50222022D01*
X75690615Y-50215336D01*
X75788030Y-50202511D01*
X75800674Y-50200847D01*
X75813595Y-50200000D01*
X79943512Y-50200000D01*
X79956433Y-50200847D01*
G37*
G04 #@! TD.AperFunction*
G04 #@! TA.AperFunction,Conductor*
G36*
X105612587Y-48103373D02*
G01*
X105649375Y-48113230D01*
X105693757Y-48138853D01*
X105711146Y-48156242D01*
X105736768Y-48200621D01*
X105746626Y-48237409D01*
X105750000Y-48263034D01*
X105750000Y-48317160D01*
X105765223Y-48393694D01*
X105808578Y-48458578D01*
X105941421Y-48591421D01*
X106006306Y-48634776D01*
X106006305Y-48634776D01*
X106044054Y-48642284D01*
X106082843Y-48650000D01*
X106717156Y-48650000D01*
X106717157Y-48650000D01*
X106793694Y-48634776D01*
X106858579Y-48591421D01*
X106991421Y-48458579D01*
X107034776Y-48393694D01*
X107050000Y-48317157D01*
X107050000Y-48263034D01*
X107053373Y-48237412D01*
X107063230Y-48200624D01*
X107088851Y-48156244D01*
X107106244Y-48138851D01*
X107150623Y-48113230D01*
X107160732Y-48110521D01*
X107187413Y-48103373D01*
X107213035Y-48100000D01*
X107586965Y-48100000D01*
X107612587Y-48103373D01*
X107649375Y-48113230D01*
X107693757Y-48138853D01*
X107711146Y-48156242D01*
X107736768Y-48200621D01*
X107746626Y-48237409D01*
X107750000Y-48263034D01*
X107750000Y-48317160D01*
X107765223Y-48393694D01*
X107808578Y-48458578D01*
X108034528Y-48684528D01*
X108046840Y-48699531D01*
X108073835Y-48739932D01*
X108088616Y-48775618D01*
X108098097Y-48823279D01*
X108100000Y-48842594D01*
X108100000Y-48907405D01*
X108098097Y-48926720D01*
X108088616Y-48974381D01*
X108073835Y-49010067D01*
X108046840Y-49050468D01*
X108034528Y-49065471D01*
X108015471Y-49084528D01*
X108000468Y-49096840D01*
X107960067Y-49123835D01*
X107924381Y-49138616D01*
X107876720Y-49148097D01*
X107857405Y-49150000D01*
X104942595Y-49150000D01*
X104923281Y-49148098D01*
X104907313Y-49144921D01*
X104875618Y-49138617D01*
X104839932Y-49123835D01*
X104799531Y-49096840D01*
X104784528Y-49084528D01*
X104765471Y-49065471D01*
X104753159Y-49050468D01*
X104726164Y-49010067D01*
X104711382Y-48974379D01*
X104701902Y-48926718D01*
X104700000Y-48907405D01*
X104700000Y-48842594D01*
X104701902Y-48823281D01*
X104711382Y-48775620D01*
X104726162Y-48739935D01*
X104753164Y-48699524D01*
X104765472Y-48684528D01*
X104991413Y-48458587D01*
X104991421Y-48458579D01*
X105034776Y-48393694D01*
X105050000Y-48317157D01*
X105050000Y-48263034D01*
X105053373Y-48237412D01*
X105063230Y-48200624D01*
X105088851Y-48156244D01*
X105106244Y-48138851D01*
X105150623Y-48113230D01*
X105160732Y-48110521D01*
X105187413Y-48103373D01*
X105213035Y-48100000D01*
X105586965Y-48100000D01*
X105612587Y-48103373D01*
G37*
G04 #@! TD.AperFunction*
M02*
