M48
; DRILL file {KiCad 7.0.10} date Tue Feb 13 00:03:23 2024
; FORMAT={-:-/ absolute / metric / decimal}
; #@! TF.CreationDate,2024-02-13T00:03:23+00:00
; #@! TF.GenerationSoftware,Kicad,Pcbnew,7.0.10
; #@! TF.FileFunction,Plated,1,4,PTH
FMAT,2
METRIC
; #@! TA.AperFunction,Plated,PTH,ViaDrill
T1C0.300
%
G90
G05
T1
X67.0Y-47.3
X67.0Y-53.3
X67.0Y-54.8
X67.0Y-59.6
X67.0Y-61.1
X68.5Y-45.8
X68.5Y-47.3
X68.5Y-53.3
X68.5Y-54.8
X68.5Y-59.6
X68.5Y-61.1
X70.0Y-45.8
X70.0Y-47.3
X70.0Y-48.8
X70.0Y-50.3
X70.0Y-51.8
X70.0Y-53.3
X70.0Y-54.8
X70.0Y-59.6
X70.0Y-61.1
X71.5Y-48.8
X71.5Y-50.3
X71.5Y-51.8
X71.5Y-53.3
X71.5Y-54.8
X71.5Y-59.6
X71.5Y-61.1
X73.0Y-51.8
X73.0Y-53.3
X73.0Y-54.8
X73.0Y-58.1
X73.0Y-59.6
X73.0Y-61.1
X74.5Y-58.1
X74.5Y-59.6
X74.5Y-61.1
X75.0Y-55.0
X76.0Y-55.0
X76.0Y-58.1
X76.0Y-61.1
X77.0Y-55.0
X77.0Y-56.0
X77.0Y-57.0
X77.55Y-58.4
X77.75Y-53.3
X78.5Y-55.0
X78.5Y-56.0
X78.5Y-57.0
X79.0Y-60.25
X79.0Y-61.5
X79.5Y-55.0
X79.5Y-56.0
X79.5Y-57.0
X80.5Y-55.0
X80.5Y-56.0
X80.5Y-57.0
X81.0Y-60.25
X81.0Y-61.5
X81.5Y-55.0
X81.5Y-56.0
X81.5Y-57.0
X82.0Y-60.25
X82.0Y-61.5
X82.5Y-55.0
X82.5Y-56.0
X82.5Y-57.0
X83.0Y-60.25
X83.0Y-61.5
X83.25Y-50.8
X83.5Y-56.0
X83.5Y-57.0
X84.0Y-61.5
X84.5Y-57.0
X86.0Y-57.0
X86.0Y-58.5
X87.4Y-46.1
X87.4Y-47.6
X87.4Y-49.1
X87.4Y-50.6
X87.5Y-57.0
X87.5Y-58.5
X87.5Y-60.0
X88.4Y-46.1
X88.4Y-47.6
X88.4Y-49.1
X88.4Y-50.6
X89.0Y-57.0
X89.0Y-58.5
X89.0Y-60.0
X89.0Y-61.5
X89.4Y-46.1
X89.4Y-47.6
X89.4Y-49.1
X89.4Y-50.6
X90.4Y-46.1
X90.4Y-47.6
X90.4Y-49.1
X90.4Y-50.6
X90.5Y-57.0
X90.5Y-58.5
X90.5Y-60.0
X91.4Y-47.6
X91.4Y-49.1
X91.4Y-54.4
X92.4Y-47.6
X93.4Y-47.6
X94.4Y-47.6
X95.1Y-56.35
X96.1Y-56.6
X96.1Y-57.3
X97.1Y-56.6
X97.1Y-57.3
X98.1Y-57.3
X98.4Y-47.6
X98.9Y-55.0
X100.1Y-55.0
X100.1Y-56.05
X100.55Y-53.55
X101.1Y-56.05
X101.1Y-57.3
X101.85Y-52.5
X102.1Y-56.4
X102.1Y-57.3
X102.587Y-52.5
X102.85Y-48.9
X103.1Y-57.3
X103.213Y-52.5
X103.587Y-48.9
X103.95Y-52.5
X104.213Y-48.9
X104.6Y-56.4
X104.85Y-52.5
X104.95Y-48.9
X105.587Y-52.5
X105.9Y-48.9
X106.213Y-52.5
X106.9Y-48.9
X106.95Y-52.5
X107.85Y-48.9
X107.85Y-52.5
X108.1Y-57.3
X108.14Y-56.433
X108.4Y-55.15
X108.583Y-55.99
X108.587Y-48.9
X109.213Y-48.9
X109.578Y-56.372
X109.95Y-48.9
X110.022Y-55.928
X110.9Y-48.9
X111.6Y-57.3
X111.85Y-48.9
X112.4Y-54.4
X112.587Y-48.905
X113.213Y-48.905
X113.6Y-57.3
X113.95Y-48.9
X114.6Y-57.3
X114.9Y-48.9
X115.85Y-48.9
X116.4Y-54.4
X116.587Y-48.9
X116.6Y-57.3
X117.213Y-48.9
X117.95Y-48.9
X118.6Y-57.3
X120.4Y-54.4
X120.6Y-57.3
X121.4Y-47.6
X122.6Y-57.3
X124.6Y-57.3
X126.6Y-57.3
X127.6Y-57.3
M30
