G04 #@! TF.GenerationSoftware,KiCad,Pcbnew,7.0.10*
G04 #@! TF.CreationDate,2024-02-13T01:05:36+00:00*
G04 #@! TF.ProjectId,WYSE_5070_Riser,57595345-5f35-4303-9730-5f5269736572,rev?*
G04 #@! TF.SameCoordinates,Original*
G04 #@! TF.FileFunction,Profile,NP*
%FSLAX46Y46*%
G04 Gerber Fmt 4.6, Leading zero omitted, Abs format (unit mm)*
G04 Created by KiCad (PCBNEW 7.0.10) date 2024-02-13 01:05:36*
%MOMM*%
%LPD*%
G01*
G04 APERTURE LIST*
G04 #@! TA.AperFunction,Profile*
%ADD10C,0.100000*%
G04 #@! TD*
G04 APERTURE END LIST*
D10*
X144450000Y-45000000D02*
G75*
G03*
X144050000Y-44600000I-400000J0D01*
G01*
X144450000Y-45000000D02*
X144450000Y-55200000D01*
X64850000Y-42600000D02*
X82450000Y-42600000D01*
X64450000Y-62000000D02*
X64450000Y-45000000D01*
X122450000Y-44600000D02*
G75*
G03*
X122450000Y-42600000I0J1000000D01*
G01*
X106450000Y-44600000D02*
X122450000Y-44600000D01*
X91450000Y-55600000D02*
X91450000Y-62000000D01*
X106450000Y-42600000D02*
X122450000Y-42600000D01*
X144050000Y-55600000D02*
G75*
G03*
X144450000Y-55200000I0J400000D01*
G01*
X126450000Y-42600000D02*
G75*
G03*
X126450000Y-44600000I0J-1000000D01*
G01*
X126450000Y-42600000D02*
X144050000Y-42600000D01*
X144450000Y-13700000D02*
G75*
G03*
X144050000Y-13300000I-400000J0D01*
G01*
X64450000Y-62000000D02*
G75*
G03*
X64850000Y-62400000I400000J0D01*
G01*
X82450000Y-44600000D02*
G75*
G03*
X82450000Y-42600000I0J1000000D01*
G01*
X64850000Y-13300000D02*
G75*
G03*
X64450000Y-13700000I0J-400000D01*
G01*
X144450000Y-42200000D02*
X144450000Y-13700000D01*
X64450000Y-42200000D02*
X64450000Y-13700000D01*
X86450000Y-42600000D02*
X102450000Y-42600000D01*
X128750000Y-55600000D02*
X144050000Y-55600000D01*
X126450000Y-44600000D02*
X144050000Y-44600000D01*
X144050000Y-42600000D02*
G75*
G03*
X144450000Y-42200000I0J400000D01*
G01*
X102450000Y-44600000D02*
G75*
G03*
X102450000Y-42600000I0J1000000D01*
G01*
X86450000Y-42600000D02*
G75*
G03*
X86450000Y-44600000I0J-1000000D01*
G01*
X64850000Y-44600000D02*
G75*
G03*
X64450000Y-45000000I0J-400000D01*
G01*
X91050000Y-62400000D02*
G75*
G03*
X91450000Y-62000000I0J400000D01*
G01*
X94450000Y-55600000D02*
X91450000Y-55600000D01*
X106450000Y-42600000D02*
G75*
G03*
X106450000Y-44600000I0J-1000000D01*
G01*
X64850000Y-44600000D02*
X82450000Y-44600000D01*
X86450000Y-44600000D02*
X102450000Y-44600000D01*
X64450000Y-42200000D02*
G75*
G03*
X64850000Y-42600000I400000J0D01*
G01*
X91050000Y-62400000D02*
X64850000Y-62400000D01*
X144050000Y-13300000D02*
X64850000Y-13300000D01*
X94450000Y-55600000D02*
X94450000Y-62900000D01*
X94450000Y-62900000D02*
X94950000Y-63400000D01*
X94950000Y-63400000D02*
X105150000Y-63400000D01*
X105650000Y-56550000D02*
X105650000Y-62900000D01*
X105650000Y-62900000D02*
X105150000Y-63400000D01*
X107550000Y-56550000D02*
X107550000Y-62900000D01*
X107550000Y-62900000D02*
X108050000Y-63400000D01*
X108050000Y-63400000D02*
X128250000Y-63400000D01*
X128750000Y-55600000D02*
X128750000Y-62900000D01*
X128750000Y-62900000D02*
X128250000Y-63400000D01*
X107550000Y-56550000D02*
G75*
G03*
X105650000Y-56550000I-950000J0D01*
G01*
M02*
