G04 #@! TF.GenerationSoftware,KiCad,Pcbnew,7.0.10*
G04 #@! TF.CreationDate,2024-02-13T01:05:36+00:00*
G04 #@! TF.ProjectId,WYSE_5070_Riser,57595345-5f35-4303-9730-5f5269736572,rev?*
G04 #@! TF.SameCoordinates,Original*
G04 #@! TF.FileFunction,Paste,Bot*
G04 #@! TF.FilePolarity,Positive*
%FSLAX46Y46*%
G04 Gerber Fmt 4.6, Leading zero omitted, Abs format (unit mm)*
G04 Created by KiCad (PCBNEW 7.0.10) date 2024-02-13 01:05:36*
%MOMM*%
%LPD*%
G01*
G04 APERTURE LIST*
G04 Aperture macros list*
%AMFreePoly0*
4,1,25,2.100000,0.900000,1.800000,0.900000,1.705665,0.897535,1.521119,0.858308,1.348761,0.781569,1.196124,0.670672,1.069880,0.530464,0.975545,0.367071,0.917243,0.187636,0.900000,0.023576,0.900000,-0.023576,0.917243,-0.187636,0.975545,-0.367071,1.069880,-0.530464,1.196124,-0.670672,1.348761,-0.781569,1.521119,-0.858308,1.705665,-0.897535,1.800000,-0.900000,2.100000,-0.900000,
2.100000,-2.500000,-0.900000,-2.500000,-0.900000,2.500000,2.100000,2.500000,2.100000,0.900000,2.100000,0.900000,$1*%
G04 Aperture macros list end*
%ADD10FreePoly0,180.000000*%
%ADD11R,0.700000X1.600000*%
%ADD12R,3.000000X5.000000*%
G04 APERTURE END LIST*
D10*
X142000000Y-51000000D03*
D11*
X88400000Y-54400000D03*
X89400000Y-54400000D03*
X90400000Y-54400000D03*
X91400000Y-54400000D03*
X92400000Y-54400000D03*
X93400000Y-54400000D03*
X94400000Y-54400000D03*
X95400000Y-54400000D03*
X96400000Y-54400000D03*
X97400000Y-54400000D03*
X98400000Y-54400000D03*
X101400000Y-54400000D03*
X102400000Y-54400000D03*
X103400000Y-54400000D03*
X104400000Y-54400000D03*
X105400000Y-54400000D03*
X106400000Y-54400000D03*
X107400000Y-54400000D03*
X108400000Y-54400000D03*
X109400000Y-54400000D03*
X110400000Y-54400000D03*
X111400000Y-54400000D03*
X112400000Y-54400000D03*
X113400000Y-54400000D03*
X114400000Y-54400000D03*
X115400000Y-54400000D03*
X116400000Y-54400000D03*
X117400000Y-54400000D03*
X118400000Y-54400000D03*
X119400000Y-54400000D03*
X120400000Y-54400000D03*
X121400000Y-54400000D03*
X88400000Y-47600000D03*
X89400000Y-47600000D03*
X90400000Y-47600000D03*
X91400000Y-47600000D03*
X92400000Y-47600000D03*
X93400000Y-47600000D03*
X94400000Y-47600000D03*
X95400000Y-47600000D03*
X96400000Y-47600000D03*
X97400000Y-47600000D03*
X98400000Y-47600000D03*
X101400000Y-47600000D03*
X102400000Y-47600000D03*
X103400000Y-47600000D03*
X104400000Y-47600000D03*
X105400000Y-47600000D03*
X106400000Y-47600000D03*
X107400000Y-47600000D03*
X108400000Y-47600000D03*
X109400000Y-47600000D03*
X110400000Y-47600000D03*
X111400000Y-47600000D03*
X112400000Y-47600000D03*
X113400000Y-47600000D03*
X114400000Y-47600000D03*
X115400000Y-47600000D03*
X116400000Y-47600000D03*
X117400000Y-47600000D03*
X118400000Y-47600000D03*
X119400000Y-47600000D03*
X120400000Y-47600000D03*
X121400000Y-47600000D03*
D12*
X85400000Y-51000000D03*
D10*
X125000000Y-51000000D03*
M02*
